<svg width="420" height="260" viewBox="0 0 420 260" fill="none" xmlns="http://www.w3.org/2000/svg">
<rect width="420" height="260" rx="10" fill="#181C14"/>
<g clip-path="url(#clip0_350_102)">
<path d="M404 10H16C12.6863 10 10 12.6863 10 16V244C10 247.314 12.6863 250 16 250H404C407.314 250 410 247.314 410 244V16C410 12.6863 407.314 10 404 10Z" fill="white"/>
<path d="M127.5 79H67C59.8203 79 54 84.8203 54 92C54 99.1797 59.8203 105 67 105H127.5C134.68 105 140.5 99.1797 140.5 92C140.5 84.8203 134.68 79 127.5 79Z" fill="#333333"/>
<path d="M77.018 91.739C77.018 90.787 77.2375 89.933 77.676 89.177C78.124 88.421 78.726 87.833 79.482 87.413C80.2475 86.9835 81.0825 86.769 81.988 86.769C83.024 86.769 83.9435 87.0255 84.746 87.539C85.558 88.043 86.146 88.7615 86.51 89.695H84.592C84.34 89.1815 83.99 88.799 83.542 88.547C83.094 88.295 82.576 88.169 81.988 88.169C81.344 88.169 80.77 88.3135 80.266 88.603C79.762 88.8925 79.3655 89.3075 79.076 89.849C78.796 90.3905 78.656 91.0205 78.656 91.739C78.656 92.4575 78.796 93.0875 79.076 93.629C79.3655 94.1705 79.762 94.5905 80.266 94.889C80.77 95.1785 81.344 95.323 81.988 95.323C82.576 95.323 83.094 95.197 83.542 94.945C83.99 94.693 84.34 94.3105 84.592 93.797H86.51C86.146 94.7305 85.558 95.449 84.746 95.953C83.9435 96.457 83.024 96.709 81.988 96.709C81.0735 96.709 80.238 96.499 79.482 96.079C78.726 95.6495 78.124 95.057 77.676 94.301C77.2375 93.545 77.018 92.691 77.018 91.739ZM89.974 86.265V96.625H88.378V86.265H89.974ZM92.8815 87.889C92.592 87.889 92.3495 87.791 92.1535 87.595C91.9575 87.399 91.8595 87.1565 91.8595 86.867C91.8595 86.5775 91.9575 86.335 92.1535 86.139C92.3495 85.943 92.592 85.845 92.8815 85.845C93.1615 85.845 93.3995 85.943 93.5955 86.139C93.7915 86.335 93.8895 86.5775 93.8895 86.867C93.8895 87.1565 93.7915 87.399 93.5955 87.595C93.3995 87.791 93.1615 87.889 92.8815 87.889ZM93.6655 88.911V96.625H92.0695V88.911H93.6655ZM102.831 92.579C102.831 92.8685 102.813 93.1295 102.775 93.363H96.881C96.9275 93.979 97.1565 94.4735 97.567 94.847C97.9775 95.2205 98.4815 95.407 99.079 95.407C99.9375 95.407 100.545 95.0475 100.899 94.329H102.621C102.388 95.0385 101.963 95.6215 101.347 96.079C100.741 96.527 99.9845 96.751 99.079 96.751C98.3415 96.751 97.679 96.5875 97.091 96.261C96.5125 95.925 96.055 95.4585 95.719 94.861C95.3925 94.2545 95.229 93.5545 95.229 92.761C95.229 91.9675 95.3875 91.2725 95.705 90.675C96.0315 90.0685 96.4845 89.6015 97.063 89.275C97.651 88.9485 98.323 88.785 99.079 88.785C99.807 88.785 100.456 88.9435 101.025 89.261C101.595 89.5785 102.038 90.0265 102.355 90.605C102.673 91.1745 102.831 91.8325 102.831 92.579ZM101.165 92.075C101.156 91.487 100.946 91.0155 100.535 90.661C100.125 90.3065 99.6155 90.129 99.009 90.129C98.4585 90.129 97.987 90.3065 97.595 90.661C97.203 91.0065 96.9695 91.4775 96.895 92.075H101.165ZM108.294 88.785C108.9 88.785 109.442 88.911 109.918 89.163C110.403 89.415 110.781 89.7885 111.052 90.283C111.322 90.7775 111.458 91.375 111.458 92.075V96.625H109.876V92.313C109.876 91.6225 109.703 91.095 109.358 90.731C109.012 90.3575 108.541 90.171 107.944 90.171C107.346 90.171 106.87 90.3575 106.516 90.731C106.17 91.095 105.998 91.6225 105.998 92.313V96.625H104.402V88.911H105.998V89.793C106.259 89.4755 106.59 89.2285 106.992 89.051C107.402 88.8735 107.836 88.785 108.294 88.785ZM115.356 90.213V94.483C115.356 94.7725 115.421 94.9825 115.552 95.113C115.692 95.2345 115.925 95.295 116.252 95.295H117.232V96.625H115.972C115.253 96.625 114.702 96.457 114.32 96.121C113.937 95.785 113.746 95.239 113.746 94.483V90.213H112.836V88.911H113.746V86.993H115.356V88.911H117.232V90.213H115.356Z" fill="#F5F5F5"/>
<path d="M316 180C343.614 180 366 157.614 366 130C366 102.386 343.614 80 316 80C288.386 80 266 102.386 266 130C266 157.614 288.386 180 316 180Z" fill="#003366"/>
<path d="M335.349 125.719C335.719 125.986 336.061 126.268 336.403 126.57C336.509 126.658 336.614 126.747 336.723 126.838C337.843 127.858 338.646 129.214 339.3 130.573C339.867 131.713 340.572 132.344 341.605 133.07C341.885 133.272 342.165 133.476 342.444 133.679C342.567 133.766 342.69 133.853 342.816 133.943C342.904 134.012 342.992 134.082 343.083 134.153C343.083 134.213 343.083 134.272 343.083 134.334C342.94 134.33 342.796 134.326 342.648 134.322C337.491 134.106 337.492 134.106 332.973 136.32C331.889 137.376 331.257 138.614 330.612 139.961C330.128 140.962 329.567 141.812 328.819 142.639C328.728 142.745 328.637 142.851 328.543 142.96C325.485 146.273 320.756 147.807 316.361 148.056C316.141 148.069 315.921 148.081 315.694 148.095C312.789 148.17 309.792 147.792 306.961 147.153C306.771 147.111 306.771 147.111 306.577 147.069C306.232 146.984 306.232 146.984 305.708 146.792C305.649 146.613 305.589 146.434 305.528 146.25C306.362 146.012 307.196 145.774 308.056 145.528C302.707 144.322 296.839 144.393 291.917 147.093C291.41 147.351 290.903 147.527 290.361 147.695C290.361 147.814 290.361 147.933 290.361 148.056C289.836 148.424 289.567 148.597 288.917 148.597C289.031 147.879 289.391 147.386 289.797 146.792C289.923 146.606 290.049 146.42 290.179 146.228C290.299 146.056 290.419 145.885 290.542 145.709C290.688 145.496 290.687 145.496 290.836 145.28C290.918 145.183 290.999 145.086 291.083 144.986C291.202 144.986 291.321 144.986 291.444 144.986C291.509 144.834 291.51 144.834 291.576 144.678C292.923 142.252 295.92 140.655 298.306 139.389C298.465 139.304 298.623 139.218 298.786 139.13C301.332 137.865 304.126 137.502 306.914 137.167C310.646 136.717 314.24 135.828 317.625 134.153C317.799 134.072 317.972 133.991 318.151 133.907C319.35 133.333 320.437 132.666 321.526 131.903C321.959 131.625 321.958 131.625 322.319 131.625C322.319 131.506 322.319 131.387 322.319 131.264C322.578 131.043 322.579 131.043 322.94 130.79C323.954 130.054 324.965 129.271 325.747 128.285C327.934 125.572 332.135 123.801 335.349 125.719Z" fill="white"/>
<path d="M298.125 109.597C298.666 109.778 298.666 109.778 298.994 110.274C299.322 110.761 299.533 111.008 299.975 111.357C300.139 111.491 300.303 111.626 300.472 111.764C300.472 111.883 300.472 112.002 300.472 112.125C300.568 112.166 300.664 112.208 300.763 112.251C301.33 112.56 301.818 112.955 302.323 113.355C303.181 114.027 304.044 114.64 304.986 115.194C304.908 115.003 304.829 114.812 304.749 114.614C304.647 114.364 304.546 114.113 304.444 113.863C304.393 113.736 304.341 113.61 304.288 113.48C303.903 112.527 303.903 112.527 303.903 112.125C304.503 112.325 304.581 112.434 304.953 112.915C307.312 115.666 310.796 117.344 313.935 119.031C316.941 120.653 319.955 122.702 321.264 126.014C321.558 127.085 321.653 128.306 321.246 129.358C321.026 129.723 320.793 130.039 320.514 130.361C320.391 130.503 320.391 130.503 320.266 130.649C320.029 130.903 320.028 130.903 319.611 131.264C319.492 131.264 319.373 131.264 319.25 131.264C319.205 131.398 319.161 131.532 319.116 131.67C318.578 132.848 317.227 133.778 316.092 134.36C314.853 134.78 313.543 134.7 312.355 134.164C309.695 132.631 307.846 130.022 306.25 127.472C306.178 127.358 306.107 127.244 306.032 127.126C298.125 114.446 298.125 114.446 298.125 109.597Z" fill="white"/>
<path d="M298.125 109.597C298.918 109.861 299.006 110.315 299.389 111.041C299.151 111.101 298.912 111.161 298.667 111.222C298.488 110.686 298.309 110.149 298.125 109.597Z" fill="white"/>
<path d="M67.282 140L59.481 130.981V140H56.175V119.845H59.481V129.038L67.311 119.845H71.458L62.7 129.937L71.603 140H67.282ZM76.2085 121.904C75.609 121.904 75.1065 121.701 74.7005 121.295C74.2945 120.889 74.0915 120.386 74.0915 119.787C74.0915 119.187 74.2945 118.685 74.7005 118.279C75.1065 117.873 75.609 117.67 76.2085 117.67C76.7885 117.67 77.2815 117.873 77.6875 118.279C78.0935 118.685 78.2965 119.187 78.2965 119.787C78.2965 120.386 78.0935 120.889 77.6875 121.295C77.2815 121.701 76.7885 121.904 76.2085 121.904ZM77.8325 124.021V140H74.5265V124.021H77.8325ZM81.071 131.996C81.071 130.352 81.3995 128.912 82.057 127.675C82.7335 126.418 83.6615 125.451 84.841 124.775C86.0205 124.098 87.3735 123.76 88.901 123.76C90.8345 123.76 92.4295 124.224 93.686 125.152C94.962 126.06 95.8225 127.365 96.267 129.067H92.7C92.41 128.274 91.946 127.655 91.308 127.211C90.67 126.766 89.8675 126.544 88.901 126.544C87.5475 126.544 86.465 127.027 85.653 127.994C84.8605 128.941 84.464 130.275 84.464 131.996C84.464 133.716 84.8605 135.06 85.653 136.027C86.465 136.993 87.5475 137.477 88.901 137.477C90.815 137.477 92.0815 136.636 92.7 134.954H96.267C95.803 136.578 94.933 137.873 93.657 138.84C92.381 139.787 90.7955 140.261 88.901 140.261C87.3735 140.261 86.0205 139.922 84.841 139.246C83.6615 138.55 82.7335 137.583 82.057 136.346C81.3995 135.089 81.071 133.639 81.071 131.996ZM98.4595 131.938C98.4595 130.333 98.7885 128.912 99.4455 127.675C100.122 126.437 101.031 125.48 102.171 124.804C103.331 124.108 104.607 123.76 105.999 123.76C107.256 123.76 108.348 124.011 109.276 124.514C110.224 124.997 110.978 125.606 111.538 126.341V124.021H114.873V140H111.538V137.622C110.978 138.376 110.214 139.004 109.247 139.507C108.281 140.009 107.179 140.261 105.941 140.261C104.569 140.261 103.312 139.913 102.171 139.217C101.031 138.501 100.122 137.515 99.4455 136.259C98.7885 134.983 98.4595 133.542 98.4595 131.938ZM111.538 131.996C111.538 130.894 111.306 129.937 110.842 129.125C110.398 128.313 109.808 127.694 109.073 127.269C108.339 126.843 107.546 126.631 106.695 126.631C105.845 126.631 105.052 126.843 104.317 127.269C103.583 127.675 102.983 128.284 102.519 129.096C102.075 129.888 101.852 130.836 101.852 131.938C101.852 133.04 102.075 134.006 102.519 134.838C102.983 135.669 103.583 136.307 104.317 136.752C105.071 137.177 105.864 137.39 106.695 137.39C107.546 137.39 108.339 137.177 109.073 136.752C109.808 136.326 110.398 135.708 110.842 134.896C111.306 134.064 111.538 133.098 111.538 131.996ZM133.687 124.021V140H130.381V138.115C129.859 138.772 129.172 139.294 128.322 139.681C127.49 140.048 126.601 140.232 125.654 140.232C124.397 140.232 123.266 139.971 122.261 139.449C121.275 138.927 120.492 138.153 119.912 137.129C119.351 136.104 119.071 134.867 119.071 133.417V124.021H122.348V132.924C122.348 134.354 122.705 135.456 123.421 136.23C124.136 136.984 125.112 137.361 126.35 137.361C127.587 137.361 128.563 136.984 129.279 136.23C130.013 135.456 130.381 134.354 130.381 132.924V124.021H133.687ZM166.81 119.845V140H163.504V126.196L157.356 140H155.065L148.888 126.196V140H145.582V119.845H149.149L156.225 135.65L163.272 119.845H166.81ZM170.053 131.938C170.053 130.333 170.382 128.912 171.039 127.675C171.716 126.437 172.625 125.48 173.765 124.804C174.925 124.108 176.201 123.76 177.593 123.76C178.85 123.76 179.942 124.011 180.87 124.514C181.818 124.997 182.572 125.606 183.132 126.341V124.021H186.467V140H183.132V137.622C182.572 138.376 181.808 139.004 180.841 139.507C179.875 140.009 178.773 140.261 177.535 140.261C176.163 140.261 174.906 139.913 173.765 139.217C172.625 138.501 171.716 137.515 171.039 136.259C170.382 134.983 170.053 133.542 170.053 131.938ZM183.132 131.996C183.132 130.894 182.9 129.937 182.436 129.125C181.992 128.313 181.402 127.694 180.667 127.269C179.933 126.843 179.14 126.631 178.289 126.631C177.439 126.631 176.646 126.843 175.911 127.269C175.177 127.675 174.577 128.284 174.113 129.096C173.669 129.888 173.446 130.836 173.446 131.938C173.446 133.04 173.669 134.006 174.113 134.838C174.577 135.669 175.177 136.307 175.911 136.752C176.665 137.177 177.458 137.39 178.289 137.39C179.14 137.39 179.933 137.177 180.667 136.752C181.402 136.326 181.992 135.708 182.436 134.896C182.9 134.064 183.132 133.098 183.132 131.996ZM198.872 123.76C200.128 123.76 201.25 124.021 202.236 124.543C203.241 125.065 204.024 125.838 204.585 126.863C205.145 127.887 205.426 129.125 205.426 130.575V140H202.149V131.068C202.149 129.637 201.791 128.545 201.076 127.791C200.36 127.017 199.384 126.631 198.147 126.631C196.909 126.631 195.923 127.017 195.189 127.791C194.473 128.545 194.116 129.637 194.116 131.068V140H190.81V124.021H194.116V125.848C194.657 125.19 195.343 124.678 196.175 124.311C197.025 123.943 197.924 123.76 198.872 123.76ZM211.325 121.904C210.725 121.904 210.223 121.701 209.817 121.295C209.411 120.889 209.208 120.386 209.208 119.787C209.208 119.187 209.411 118.685 209.817 118.279C210.223 117.873 210.725 117.67 211.325 117.67C211.905 117.67 212.398 117.873 212.804 118.279C213.21 118.685 213.413 119.187 213.413 119.787C213.413 120.386 213.21 120.889 212.804 121.295C212.398 121.701 211.905 121.904 211.325 121.904ZM212.949 124.021V140H209.643V124.021H212.949ZM216.187 131.938C216.187 130.333 216.516 128.912 217.173 127.675C217.85 126.437 218.758 125.48 219.899 124.804C221.059 124.108 222.335 123.76 223.727 123.76C224.984 123.76 226.076 124.011 227.004 124.514C227.951 124.997 228.705 125.606 229.266 126.341V124.021H232.601V140H229.266V137.622C228.705 138.376 227.942 139.004 226.975 139.507C226.008 140.009 224.906 140.261 223.669 140.261C222.296 140.261 221.04 139.913 219.899 139.217C218.758 138.501 217.85 137.515 217.173 136.259C216.516 134.983 216.187 133.542 216.187 131.938ZM229.266 131.996C229.266 130.894 229.034 129.937 228.57 129.125C228.125 128.313 227.536 127.694 226.801 127.269C226.066 126.843 225.274 126.631 224.423 126.631C223.572 126.631 222.78 126.843 222.045 127.269C221.31 127.675 220.711 128.284 220.247 129.096C219.802 129.888 219.58 130.836 219.58 131.938C219.58 133.04 219.802 134.006 220.247 134.838C220.711 135.669 221.31 136.307 222.045 136.752C222.799 137.177 223.592 137.39 224.423 137.39C225.274 137.39 226.066 137.177 226.801 136.752C227.536 136.326 228.125 135.708 228.57 134.896C229.034 134.064 229.266 133.098 229.266 131.996Z" fill="#333333"/>
<path d="M66.912 160.38V171.5H65.088V163.884L61.696 171.5H60.432L57.024 163.884V171.5H55.2V160.38H57.168L61.072 169.1L64.96 160.38H66.912ZM73.1335 171.644C72.3015 171.644 71.5495 171.457 70.8775 171.084C70.2055 170.7 69.6775 170.166 69.2935 169.484C68.9095 168.79 68.7175 167.99 68.7175 167.084C68.7175 166.188 68.9145 165.393 69.3095 164.7C69.704 164.006 70.2425 163.473 70.9255 163.1C71.608 162.726 72.3705 162.54 73.2135 162.54C74.056 162.54 74.8185 162.726 75.5015 163.1C76.184 163.473 76.7225 164.006 77.1175 164.7C77.512 165.393 77.7095 166.188 77.7095 167.084C77.7095 167.98 77.5065 168.774 77.1015 169.468C76.696 170.161 76.1415 170.7 75.4375 171.084C74.744 171.457 73.976 171.644 73.1335 171.644ZM73.1335 170.06C73.6025 170.06 74.04 169.948 74.4455 169.724C74.8615 169.5 75.1975 169.164 75.4535 168.716C75.7095 168.268 75.8375 167.724 75.8375 167.084C75.8375 166.444 75.7145 165.905 75.4695 165.468C75.224 165.02 74.8985 164.684 74.4935 164.46C74.088 164.236 73.6505 164.124 73.1815 164.124C72.712 164.124 72.2745 164.236 71.8695 164.46C71.4745 164.684 71.16 165.02 70.9255 165.468C70.6905 165.905 70.5735 166.444 70.5735 167.084C70.5735 168.033 70.8135 168.769 71.2935 169.292C71.784 169.804 72.3975 170.06 73.1335 170.06ZM81.3365 163.996C81.646 163.569 82.067 163.222 82.6005 162.956C83.1445 162.678 83.747 162.54 84.4085 162.54C85.187 162.54 85.891 162.726 86.5205 163.1C87.15 163.473 87.646 164.006 88.0085 164.7C88.371 165.382 88.5525 166.166 88.5525 167.052C88.5525 167.937 88.371 168.732 88.0085 169.436C87.646 170.129 87.1445 170.673 86.5045 171.068C85.875 171.452 85.1765 171.644 84.4085 171.644C83.726 171.644 83.118 171.51 82.5845 171.244C82.062 170.977 81.646 170.636 81.3365 170.22V171.5H79.5125V159.66H81.3365V163.996ZM86.6965 167.052C86.6965 166.444 86.5685 165.921 86.3125 165.484C86.067 165.036 85.7365 164.7 85.3205 164.476C84.915 164.241 84.478 164.124 84.0085 164.124C83.55 164.124 83.1125 164.241 82.6965 164.476C82.291 164.71 81.9605 165.052 81.7045 165.5C81.459 165.948 81.3365 166.476 81.3365 167.084C81.3365 167.692 81.459 168.225 81.7045 168.684C81.9605 169.132 82.291 169.473 82.6965 169.708C83.1125 169.942 83.55 170.06 84.0085 170.06C84.478 170.06 84.915 169.942 85.3205 169.708C85.7365 169.462 86.067 169.11 86.3125 168.652C86.5685 168.193 86.6965 167.66 86.6965 167.052ZM91.2845 161.516C90.9535 161.516 90.6765 161.404 90.4525 161.18C90.2285 160.956 90.1165 160.678 90.1165 160.348C90.1165 160.017 90.2285 159.74 90.4525 159.516C90.6765 159.292 90.9535 159.18 91.2845 159.18C91.6045 159.18 91.8765 159.292 92.1005 159.516C92.3245 159.74 92.4365 160.017 92.4365 160.348C92.4365 160.678 92.3245 160.956 92.1005 161.18C91.8765 161.404 91.6045 161.516 91.2845 161.516ZM92.1805 162.684V171.5H90.3565V162.684H92.1805ZM96.399 159.66V171.5H94.575V159.66H96.399ZM106.874 166.876C106.874 167.206 106.853 167.505 106.81 167.772H100.074C100.127 168.476 100.389 169.041 100.858 169.468C101.327 169.894 101.903 170.108 102.586 170.108C103.567 170.108 104.261 169.697 104.666 168.876H106.634C106.367 169.686 105.882 170.353 105.178 170.876C104.485 171.388 103.621 171.644 102.586 171.644C101.743 171.644 100.986 171.457 100.314 171.084C99.6525 170.7 99.13 170.166 98.746 169.484C98.3725 168.79 98.186 167.99 98.186 167.084C98.186 166.177 98.367 165.382 98.73 164.7C99.103 164.006 99.6205 163.473 100.282 163.1C100.954 162.726 101.722 162.54 102.586 162.54C103.418 162.54 104.159 162.721 104.81 163.084C105.461 163.446 105.967 163.958 106.33 164.62C106.693 165.27 106.874 166.022 106.874 166.876ZM104.97 166.3C104.959 165.628 104.719 165.089 104.25 164.684C103.781 164.278 103.199 164.076 102.506 164.076C101.877 164.076 101.338 164.278 100.89 164.684C100.442 165.078 100.175 165.617 100.09 166.3H104.97ZM119.529 169.228H114.873L114.073 171.5H112.169L116.153 160.364H118.265L122.249 171.5H120.329L119.529 169.228ZM119.017 167.74L117.209 162.572L115.385 167.74H119.017ZM125.806 163.98C126.115 163.574 126.536 163.233 127.07 162.956C127.603 162.678 128.206 162.54 128.878 162.54C129.646 162.54 130.344 162.732 130.974 163.116C131.614 163.489 132.115 164.017 132.478 164.7C132.84 165.382 133.022 166.166 133.022 167.052C133.022 167.937 132.84 168.732 132.478 169.436C132.115 170.129 131.614 170.673 130.974 171.068C130.344 171.452 129.646 171.644 128.878 171.644C128.206 171.644 127.608 171.51 127.086 171.244C126.563 170.966 126.136 170.625 125.806 170.22V175.692H123.982V162.684H125.806V163.98ZM131.166 167.052C131.166 166.444 131.038 165.921 130.781 165.484C130.536 165.036 130.206 164.7 129.79 164.476C129.384 164.241 128.947 164.124 128.478 164.124C128.019 164.124 127.582 164.241 127.166 164.476C126.76 164.71 126.43 165.052 126.174 165.5C125.928 165.948 125.806 166.476 125.806 167.084C125.806 167.692 125.928 168.225 126.174 168.684C126.43 169.132 126.76 169.473 127.166 169.708C127.582 169.942 128.019 170.06 128.478 170.06C128.947 170.06 129.384 169.942 129.79 169.708C130.206 169.462 130.536 169.11 130.781 168.652C131.038 168.193 131.166 167.66 131.166 167.052ZM136.649 163.98C136.959 163.574 137.38 163.233 137.913 162.956C138.447 162.678 139.049 162.54 139.721 162.54C140.489 162.54 141.188 162.732 141.817 163.116C142.457 163.489 142.959 164.017 143.321 164.7C143.684 165.382 143.865 166.166 143.865 167.052C143.865 167.937 143.684 168.732 143.321 169.436C142.959 170.129 142.457 170.673 141.817 171.068C141.188 171.452 140.489 171.644 139.721 171.644C139.049 171.644 138.452 171.51 137.929 171.244C137.407 170.966 136.98 170.625 136.649 170.22V175.692H134.825V162.684H136.649V163.98ZM142.009 167.052C142.009 166.444 141.881 165.921 141.625 165.484C141.38 165.036 141.049 164.7 140.633 164.476C140.228 164.241 139.791 164.124 139.321 164.124C138.863 164.124 138.425 164.241 138.009 164.476C137.604 164.71 137.273 165.052 137.017 165.5C136.772 165.948 136.649 166.476 136.649 167.084C136.649 167.692 136.772 168.225 137.017 168.684C137.273 169.132 137.604 169.473 138.009 169.708C138.425 169.942 138.863 170.06 139.321 170.06C139.791 170.06 140.228 169.942 140.633 169.708C141.049 169.462 141.38 169.11 141.625 168.652C141.881 168.193 142.009 167.66 142.009 167.052ZM147.493 159.66V171.5H145.669V159.66H147.493ZM150.816 161.516C150.485 161.516 150.208 161.404 149.984 161.18C149.76 160.956 149.648 160.678 149.648 160.348C149.648 160.017 149.76 159.74 149.984 159.516C150.208 159.292 150.485 159.18 150.816 159.18C151.136 159.18 151.408 159.292 151.632 159.516C151.856 159.74 151.968 160.017 151.968 160.348C151.968 160.678 151.856 160.956 151.632 161.18C151.408 161.404 151.136 161.516 150.816 161.516ZM151.712 162.684V171.5H149.888V162.684H151.712ZM153.499 167.084C153.499 166.177 153.68 165.382 154.043 164.7C154.416 164.006 154.928 163.473 155.579 163.1C156.229 162.726 156.976 162.54 157.819 162.54C158.885 162.54 159.765 162.796 160.459 163.308C161.163 163.809 161.637 164.529 161.883 165.468H159.915C159.755 165.03 159.499 164.689 159.147 164.444C158.795 164.198 158.352 164.076 157.819 164.076C157.072 164.076 156.475 164.342 156.027 164.876C155.589 165.398 155.371 166.134 155.371 167.084C155.371 168.033 155.589 168.774 156.027 169.308C156.475 169.841 157.072 170.108 157.819 170.108C158.875 170.108 159.573 169.644 159.915 168.716H161.883C161.627 169.612 161.147 170.326 160.443 170.86C159.739 171.382 158.864 171.644 157.819 171.644C156.976 171.644 156.229 171.457 155.579 171.084C154.928 170.7 154.416 170.166 154.043 169.484C153.68 168.79 153.499 167.99 153.499 167.084ZM163.092 167.052C163.092 166.166 163.274 165.382 163.636 164.7C164.01 164.017 164.511 163.489 165.14 163.116C165.78 162.732 166.484 162.54 167.252 162.54C167.946 162.54 168.548 162.678 169.06 162.956C169.583 163.222 169.999 163.558 170.308 163.964V162.684H172.148V171.5H170.308V170.188C169.999 170.604 169.578 170.95 169.044 171.228C168.511 171.505 167.903 171.644 167.22 171.644C166.463 171.644 165.77 171.452 165.14 171.068C164.511 170.673 164.01 170.129 163.636 169.436C163.274 168.732 163.092 167.937 163.092 167.052ZM170.308 167.084C170.308 166.476 170.18 165.948 169.924 165.5C169.679 165.052 169.354 164.71 168.948 164.476C168.543 164.241 168.106 164.124 167.636 164.124C167.167 164.124 166.73 164.241 166.324 164.476C165.919 164.7 165.588 165.036 165.332 165.484C165.087 165.921 164.964 166.444 164.964 167.052C164.964 167.66 165.087 168.193 165.332 168.652C165.588 169.11 165.919 169.462 166.324 169.708C166.74 169.942 167.178 170.06 167.636 170.06C168.106 170.06 168.543 169.942 168.948 169.708C169.354 169.473 169.679 169.132 169.924 168.684C170.18 168.225 170.308 167.692 170.308 167.084ZM176.672 164.172V169.052C176.672 169.382 176.747 169.622 176.896 169.772C177.056 169.91 177.323 169.98 177.696 169.98H178.816V171.5H177.376C176.555 171.5 175.925 171.308 175.488 170.924C175.051 170.54 174.832 169.916 174.832 169.052V164.172H173.792V162.684H174.832V160.492H176.672V162.684H178.816V164.172H176.672ZM181.425 161.516C181.094 161.516 180.817 161.404 180.593 161.18C180.369 160.956 180.257 160.678 180.257 160.348C180.257 160.017 180.369 159.74 180.593 159.516C180.817 159.292 181.094 159.18 181.425 159.18C181.745 159.18 182.017 159.292 182.241 159.516C182.465 159.74 182.577 160.017 182.577 160.348C182.577 160.678 182.465 160.956 182.241 161.18C182.017 161.404 181.745 161.516 181.425 161.516ZM182.321 162.684V171.5H180.497V162.684H182.321ZM188.54 171.644C187.708 171.644 186.956 171.457 186.284 171.084C185.612 170.7 185.084 170.166 184.7 169.484C184.316 168.79 184.124 167.99 184.124 167.084C184.124 166.188 184.321 165.393 184.716 164.7C185.111 164.006 185.649 163.473 186.332 163.1C187.015 162.726 187.777 162.54 188.62 162.54C189.463 162.54 190.225 162.726 190.908 163.1C191.591 163.473 192.129 164.006 192.524 164.7C192.919 165.393 193.116 166.188 193.116 167.084C193.116 167.98 192.913 168.774 192.508 169.468C192.103 170.161 191.548 170.7 190.844 171.084C190.151 171.457 189.383 171.644 188.54 171.644ZM188.54 170.06C189.009 170.06 189.447 169.948 189.852 169.724C190.268 169.5 190.604 169.164 190.86 168.716C191.116 168.268 191.244 167.724 191.244 167.084C191.244 166.444 191.121 165.905 190.876 165.468C190.631 165.02 190.305 164.684 189.9 164.46C189.495 164.236 189.057 164.124 188.588 164.124C188.119 164.124 187.681 164.236 187.276 164.46C186.881 164.684 186.567 165.02 186.332 165.468C186.097 165.905 185.98 166.444 185.98 167.084C185.98 168.033 186.22 168.769 186.7 169.292C187.191 169.804 187.804 170.06 188.54 170.06ZM199.367 162.54C200.06 162.54 200.679 162.684 201.223 162.972C201.778 163.26 202.21 163.686 202.519 164.252C202.828 164.817 202.983 165.5 202.983 166.3V171.5H201.175V166.572C201.175 165.782 200.978 165.18 200.583 164.764C200.188 164.337 199.65 164.124 198.967 164.124C198.284 164.124 197.74 164.337 197.335 164.764C196.94 165.18 196.743 165.782 196.743 166.572V171.5H194.919V162.684H196.743V163.692C197.042 163.329 197.42 163.046 197.879 162.844C198.348 162.641 198.844 162.54 199.367 162.54ZM213.098 160.38C214.282 160.38 215.317 160.609 216.202 161.068C217.098 161.516 217.786 162.166 218.266 163.02C218.757 163.862 219.002 164.849 219.002 165.98C219.002 167.11 218.757 168.092 218.266 168.924C217.786 169.756 217.098 170.396 216.202 170.844C215.317 171.281 214.282 171.5 213.098 171.5H209.466V160.38H213.098ZM213.098 170.012C214.399 170.012 215.397 169.66 216.09 168.956C216.783 168.252 217.13 167.26 217.13 165.98C217.13 164.689 216.783 163.681 216.09 162.956C215.397 162.23 214.399 161.868 213.098 161.868H211.29V170.012H213.098ZM228.89 166.876C228.89 167.206 228.868 167.505 228.826 167.772H222.09C222.143 168.476 222.404 169.041 222.874 169.468C223.343 169.894 223.919 170.108 224.602 170.108C225.583 170.108 226.276 169.697 226.682 168.876H228.65C228.383 169.686 227.898 170.353 227.194 170.876C226.5 171.388 225.636 171.644 224.602 171.644C223.759 171.644 223.002 171.457 222.33 171.084C221.668 170.7 221.146 170.166 220.762 169.484C220.388 168.79 220.202 167.99 220.202 167.084C220.202 166.177 220.383 165.382 220.746 164.7C221.119 164.006 221.636 163.473 222.298 163.1C222.97 162.726 223.738 162.54 224.602 162.54C225.434 162.54 226.175 162.721 226.826 163.084C227.476 163.446 227.983 163.958 228.346 164.62C228.708 165.27 228.89 166.022 228.89 166.876ZM226.986 166.3C226.975 165.628 226.735 165.089 226.266 164.684C225.796 164.278 225.215 164.076 224.522 164.076C223.892 164.076 223.354 164.278 222.906 164.684C222.458 165.078 222.191 165.617 222.106 166.3H226.986ZM233.885 171.644C233.191 171.644 232.567 171.521 232.013 171.276C231.469 171.02 231.037 170.678 230.717 170.252C230.397 169.814 230.226 169.329 230.205 168.796H232.093C232.125 169.169 232.301 169.484 232.621 169.74C232.951 169.985 233.362 170.108 233.853 170.108C234.365 170.108 234.759 170.012 235.037 169.82C235.325 169.617 235.469 169.361 235.469 169.052C235.469 168.721 235.309 168.476 234.989 168.316C234.679 168.156 234.183 167.98 233.501 167.788C232.839 167.606 232.301 167.43 231.885 167.26C231.469 167.089 231.106 166.828 230.797 166.476C230.498 166.124 230.349 165.66 230.349 165.084C230.349 164.614 230.487 164.188 230.765 163.804C231.042 163.409 231.437 163.1 231.949 162.876C232.471 162.652 233.069 162.54 233.741 162.54C234.743 162.54 235.549 162.796 236.157 163.308C236.775 163.809 237.106 164.497 237.149 165.372H235.325C235.293 164.977 235.133 164.662 234.845 164.428C234.557 164.193 234.167 164.076 233.677 164.076C233.197 164.076 232.829 164.166 232.573 164.348C232.317 164.529 232.189 164.769 232.189 165.068C232.189 165.302 232.274 165.5 232.445 165.66C232.615 165.82 232.823 165.948 233.069 166.044C233.314 166.129 233.677 166.241 234.157 166.38C234.797 166.55 235.319 166.726 235.725 166.908C236.141 167.078 236.498 167.334 236.797 167.676C237.095 168.017 237.25 168.47 237.261 169.036C237.261 169.537 237.122 169.985 236.845 170.38C236.567 170.774 236.173 171.084 235.661 171.308C235.159 171.532 234.567 171.644 233.885 171.644ZM240.16 161.516C239.829 161.516 239.552 161.404 239.328 161.18C239.104 160.956 238.992 160.678 238.992 160.348C238.992 160.017 239.104 159.74 239.328 159.516C239.552 159.292 239.829 159.18 240.16 159.18C240.48 159.18 240.752 159.292 240.976 159.516C241.2 159.74 241.312 160.017 241.312 160.348C241.312 160.678 241.2 160.956 240.976 161.18C240.752 161.404 240.48 161.516 240.16 161.516ZM241.056 162.684V171.5H239.232V162.684H241.056ZM247.002 162.54C247.685 162.54 248.288 162.678 248.81 162.956C249.344 163.222 249.76 163.558 250.058 163.964V162.684H251.898V171.644C251.898 172.454 251.728 173.174 251.386 173.804C251.045 174.444 250.549 174.945 249.898 175.308C249.258 175.67 248.49 175.852 247.594 175.852C246.4 175.852 245.408 175.569 244.618 175.004C243.829 174.449 243.381 173.692 243.274 172.732H245.082C245.221 173.19 245.514 173.558 245.962 173.836C246.421 174.124 246.965 174.268 247.594 174.268C248.33 174.268 248.922 174.044 249.37 173.596C249.829 173.148 250.058 172.497 250.058 171.644V170.172C249.749 170.588 249.328 170.94 248.794 171.228C248.272 171.505 247.674 171.644 247.002 171.644C246.234 171.644 245.53 171.452 244.89 171.068C244.261 170.673 243.76 170.129 243.386 169.436C243.024 168.732 242.842 167.937 242.842 167.052C242.842 166.166 243.024 165.382 243.386 164.7C243.76 164.017 244.261 163.489 244.89 163.116C245.53 162.732 246.234 162.54 247.002 162.54ZM250.058 167.084C250.058 166.476 249.93 165.948 249.674 165.5C249.429 165.052 249.104 164.71 248.698 164.476C248.293 164.241 247.856 164.124 247.386 164.124C246.917 164.124 246.48 164.241 246.074 164.476C245.669 164.7 245.338 165.036 245.082 165.484C244.837 165.921 244.714 166.444 244.714 167.052C244.714 167.66 244.837 168.193 245.082 168.652C245.338 169.11 245.669 169.462 246.074 169.708C246.49 169.942 246.928 170.06 247.386 170.06C247.856 170.06 248.293 169.942 248.698 169.708C249.104 169.473 249.429 169.132 249.674 168.684C249.93 168.225 250.058 167.692 250.058 167.084ZM258.742 162.54C259.435 162.54 260.054 162.684 260.598 162.972C261.153 163.26 261.585 163.686 261.894 164.252C262.203 164.817 262.358 165.5 262.358 166.3V171.5H260.55V166.572C260.55 165.782 260.353 165.18 259.958 164.764C259.563 164.337 259.025 164.124 258.342 164.124C257.659 164.124 257.115 164.337 256.71 164.764C256.315 165.18 256.118 165.782 256.118 166.572V171.5H254.294V162.684H256.118V163.692C256.417 163.329 256.795 163.046 257.254 162.844C257.723 162.641 258.219 162.54 258.742 162.54Z" fill="#909090"/>
</g>
<defs>
<clipPath id="clip0_350_102">
<rect width="400" height="240" fill="white" transform="translate(10 10)"/>
</clipPath>
</defs>
</svg>
