<svg width="58" height="38" viewBox="0 0 58 38" fill="none" xmlns="http://www.w3.org/2000/svg">
<path d="M17.7546 30.6895H16.1844C16.1288 28.1842 15.9759 25.8289 15.7259 23.6219H15.7119L13.3212 30.6895H12.1257L9.74932 23.6219H9.73567C9.55938 25.7408 9.44832 28.0967 9.4022 30.6895H7.97095C8.06319 27.5366 8.29501 24.5807 8.66549 21.8215H10.6117L12.8767 28.3377H12.8907L15.1697 21.8215H17.0318C17.4396 25.0534 17.6805 28.0095 17.7546 30.6895ZM24.5644 24.1467C23.925 27.4262 23.0815 29.809 22.0347 31.2964C21.2191 32.4414 20.3255 33.0145 19.3524 33.0145C19.093 33.0145 18.7729 32.9405 18.3936 32.7936V32.0029C18.579 32.0281 18.7965 32.0424 19.0466 32.0424C19.5011 32.0424 19.8664 31.9243 20.145 31.6874C20.4781 31.3988 20.6447 31.0744 20.6447 30.7156C20.6447 30.4696 20.5148 29.9665 20.2557 29.2047L18.5326 24.1464H20.0752L21.3119 27.9295C21.5899 28.7885 21.7058 29.3883 21.6594 29.7299C22.3357 28.0225 22.8081 26.1607 23.0773 24.1462H24.5644V24.1467Z" fill="#5D87A1"/>
<path d="M45.4654 30.6901H41.0051V21.8221H42.5055V29.5985H45.4654V30.6901ZM39.8375 30.9044L38.1128 30.0999C38.2657 29.9811 38.412 29.8526 38.5437 29.7038C39.2768 28.8898 39.6424 27.686 39.6424 26.0916C39.6424 23.1578 38.4244 21.6902 35.9876 21.6902C34.7927 21.6902 33.8606 22.0625 33.194 22.8073C32.4615 23.6219 32.0959 24.8213 32.0959 26.4071C32.0959 27.966 32.42 29.1095 33.0684 29.8348C33.6616 30.4919 34.5558 30.8209 35.7516 30.8209C36.1976 30.8209 36.6069 30.7693 36.9798 30.6652L39.2252 31.9008L39.8375 30.9044ZM34.2505 28.9156C33.8706 28.338 33.6807 27.4104 33.6807 26.1315C33.6807 23.8987 34.3983 22.7809 35.835 22.7809C36.586 22.7809 37.1364 23.0483 37.4884 23.5817C37.8677 24.1602 38.0585 25.0795 38.0585 26.3406C38.0585 28.5918 37.3403 29.7175 35.9045 29.7175C35.1532 29.7178 34.6028 29.4514 34.2505 28.9156ZM31.442 28.2321C31.442 28.9842 31.1501 29.6011 30.5669 30.0844C29.9832 30.5656 29.2003 30.8069 28.2193 30.8069C27.3018 30.8069 26.4121 30.5298 25.551 29.9785L25.9543 29.217C26.6952 29.5678 27.3661 29.7422 27.9684 29.7422C28.5337 29.7422 28.9755 29.6237 29.2959 29.3888C29.616 29.1531 29.8069 28.8224 29.8069 28.4042C29.8069 27.8773 29.4182 27.427 28.7051 27.0499C28.0476 26.7086 26.7326 25.995 26.7326 25.995C26.0198 25.504 25.663 24.9768 25.663 24.1083C25.663 23.3896 25.9291 22.8093 26.4616 22.3679C26.9947 21.9248 27.6826 21.704 28.5258 21.704C29.3966 21.704 30.1883 21.9245 30.9013 22.361L30.5396 23.1228C29.9298 22.8779 29.3278 22.7554 28.734 22.7554C28.253 22.7554 27.8816 22.8647 27.6234 23.0841C27.3631 23.3027 27.2026 23.5823 27.2026 23.9253C27.2026 24.4496 27.5994 24.9057 28.3319 25.2903C28.9982 25.6322 30.3461 26.3581 30.3461 26.3581C31.077 26.8482 31.442 27.3705 31.442 28.2321Z" fill="#F8981D"/>
<path d="M47.3482 18.8521C46.4409 18.8303 45.7385 18.9166 45.1489 19.1524C44.9787 19.2166 44.7081 19.2166 44.6844 19.42C44.7763 19.506 44.787 19.6448 44.8668 19.7636C45.0027 19.9778 45.2397 20.2661 45.456 20.4164C45.6936 20.5885 45.9321 20.7588 46.1821 20.9088C46.623 21.1667 47.1227 21.3167 47.5524 21.5737C47.8027 21.7231 48.0515 21.9164 48.3021 22.0773C48.4253 22.1631 48.5042 22.3022 48.6641 22.3558V22.3231C48.584 22.2267 48.5613 22.0874 48.4827 21.9801L48.1422 21.6698C47.8133 21.2522 47.4046 20.8876 46.9637 20.5882C46.6008 20.3518 45.8071 20.0306 45.6599 19.6354L45.6369 19.6136C45.8863 19.5915 46.1821 19.506 46.4191 19.4403C46.8047 19.3443 47.1564 19.3661 47.5521 19.27C47.7341 19.227 47.9147 19.173 48.0973 19.12V19.0233C47.8922 18.8303 47.746 18.5739 47.5302 18.3915C46.9531 17.9202 46.3171 17.4593 45.6599 17.0736C45.3079 16.8587 44.8552 16.7205 44.4805 16.5378C44.3455 16.4733 44.1179 16.4414 44.0384 16.3341C43.8351 16.0984 43.7207 15.7881 43.5733 15.509C43.2456 14.9202 42.9273 14.2668 42.6445 13.6441C42.44 13.2265 42.3156 12.8095 42.0661 12.4232C40.898 10.6019 39.6293 9.49879 37.6795 8.41607C37.2605 8.19063 36.762 8.09455 36.2295 7.97638L35.379 7.93393C35.1975 7.85879 35.0158 7.65486 34.8574 7.55849C34.2105 7.17302 32.545 6.33753 32.0692 7.44061C31.7627 8.13786 32.5225 8.82335 32.7835 9.17699C32.9761 9.4225 33.2259 9.70186 33.3606 9.98064C33.4404 10.1628 33.4628 10.3561 33.5426 10.5485C33.7241 11.0201 33.8937 11.5446 34.1322 11.9846C34.2566 12.2089 34.3922 12.4447 34.5512 12.6477C34.6423 12.7665 34.8006 12.819 34.8352 13.0126C34.6771 13.2259 34.6647 13.548 34.574 13.8159C34.1662 15.0266 34.3255 16.5263 34.9035 17.416C35.0843 17.6839 35.5158 18.2736 36.0929 18.0476C36.6039 17.8548 36.4907 17.2442 36.6376 16.7087C36.6713 16.5794 36.6491 16.4945 36.7171 16.4096V16.4305C36.8752 16.7302 37.0348 17.0191 37.1813 17.3196C37.533 17.8442 38.1453 18.3909 38.6554 18.7543C38.9269 18.9482 39.142 19.2797 39.4822 19.3982V19.3661H39.4597C39.3909 19.27 39.2901 19.227 39.1997 19.1524C38.9952 18.9594 38.7688 18.7236 38.6101 18.5096C38.135 17.9093 37.7144 17.2448 37.3412 16.559C37.1586 16.2263 37.0011 15.8626 36.8539 15.5305C36.7853 15.4023 36.7853 15.209 36.6716 15.1444C36.501 15.3799 36.2525 15.5838 36.1281 15.8724C35.9124 16.3339 35.8899 16.9015 35.8098 17.4917L35.7652 17.5124C35.4042 17.4266 35.2785 17.0736 35.1414 16.7738C34.8019 16.0126 34.7448 14.7908 35.0394 13.9126C35.1183 13.688 35.4597 12.9807 35.3234 12.7668C35.2552 12.5617 35.0282 12.4449 34.9038 12.2835C34.7576 12.0804 34.5973 11.8234 34.4954 11.598C34.2235 10.9983 34.0867 10.3337 33.7939 9.73427C33.657 9.45491 33.4195 9.1658 33.2271 8.90853C33.011 8.61942 32.7735 8.41578 32.6026 8.07304C32.5462 7.95516 32.467 7.76242 32.5577 7.63421C32.5799 7.54817 32.626 7.51605 32.7164 7.49454C32.8633 7.37723 33.2829 7.52637 33.4301 7.5909C33.8503 7.75152 34.2017 7.90152 34.5524 8.12639C34.7111 8.23394 34.8814 8.43758 35.085 8.49121H35.3234C35.6854 8.56579 36.0935 8.51187 36.4343 8.60881C37.0348 8.79122 37.5788 9.05882 38.0667 9.34764C39.5514 10.2376 40.7757 11.5022 41.6022 13.0126C41.7378 13.2586 41.7955 13.4841 41.9193 13.7408C42.1581 14.2662 42.4533 14.802 42.6903 15.3162C42.9285 15.8196 43.1554 16.3336 43.4956 16.7517C43.6652 16.9766 44.3467 17.0945 44.6522 17.2124C44.8783 17.3085 45.2303 17.3939 45.4342 17.5118C45.8198 17.7364 46.204 17.9942 46.5666 18.2412C46.7471 18.3697 47.3145 18.6376 47.3482 18.8521ZM35.7859 9.54096C35.6294 9.53942 35.4734 9.55755 35.3219 9.59488V9.61639H35.3438C35.4351 9.78761 35.5938 9.90636 35.707 10.0558C35.7983 10.2276 35.8775 10.398 35.967 10.5695L35.9889 10.5482C36.1488 10.4413 36.2283 10.2697 36.2283 10.0125C36.1594 9.93676 36.1488 9.86276 36.0914 9.78761C36.0247 9.68035 35.8775 9.627 35.7859 9.54096Z" fill="#5D87A1"/>
<path d="M48.4283 30.689H48.6631V29.6026H48.3109L48.0235 30.344L47.7113 29.6026H47.3721V30.689H47.5939V29.8624H47.6063L47.9334 30.689H48.1024L48.4283 29.8624V30.689ZM46.5364 30.689H46.7849V29.7867H47.1102V29.6023H46.1975V29.7867H46.5358L46.5364 30.689Z" fill="#F8981D"/>
</svg>
