<svg width="420" height="260" viewBox="0 0 420 260" fill="none" xmlns="http://www.w3.org/2000/svg">
<rect width="420" height="260" rx="10" fill="#181C14"/>
<g clip-path="url(#clip0_350_198)">
<path d="M404 10H16C12.6863 10 10 12.6863 10 16V244C10 247.314 12.6863 250 16 250H404C407.314 250 410 247.314 410 244V16C410 12.6863 407.314 10 404 10Z" fill="white"/>
<path d="M127.5 79H67C59.8203 79 54 84.8203 54 92C54 99.1797 59.8203 105 67 105H127.5C134.68 105 140.5 99.1797 140.5 92C140.5 84.8203 134.68 79 127.5 79Z" fill="#333333"/>
<path d="M77.018 92.114C77.018 91.162 77.2375 90.308 77.676 89.552C78.124 88.796 78.726 88.208 79.482 87.788C80.2475 87.3585 81.0825 87.144 81.988 87.144C83.024 87.144 83.9435 87.4005 84.746 87.914C85.558 88.418 86.146 89.1365 86.51 90.07H84.592C84.34 89.5565 83.99 89.174 83.542 88.922C83.094 88.67 82.576 88.544 81.988 88.544C81.344 88.544 80.77 88.6885 80.266 88.978C79.762 89.2675 79.3655 89.6825 79.076 90.224C78.796 90.7655 78.656 91.3955 78.656 92.114C78.656 92.8325 78.796 93.4625 79.076 94.004C79.3655 94.5455 79.762 94.9655 80.266 95.264C80.77 95.5535 81.344 95.698 81.988 95.698C82.576 95.698 83.094 95.572 83.542 95.32C83.99 95.068 84.34 94.6855 84.592 94.172H86.51C86.146 95.1055 85.558 95.824 84.746 96.328C83.9435 96.832 83.024 97.084 81.988 97.084C81.0735 97.084 80.238 96.874 79.482 96.454C78.726 96.0245 78.124 95.432 77.676 94.676C77.2375 93.92 77.018 93.066 77.018 92.114ZM89.974 86.64V97H88.378V86.64H89.974ZM92.8815 88.264C92.592 88.264 92.3495 88.166 92.1535 87.97C91.9575 87.774 91.8595 87.5315 91.8595 87.242C91.8595 86.9525 91.9575 86.71 92.1535 86.514C92.3495 86.318 92.592 86.22 92.8815 86.22C93.1615 86.22 93.3995 86.318 93.5955 86.514C93.7915 86.71 93.8895 86.9525 93.8895 87.242C93.8895 87.5315 93.7915 87.774 93.5955 87.97C93.3995 88.166 93.1615 88.264 92.8815 88.264ZM93.6655 89.286V97H92.0695V89.286H93.6655ZM102.831 92.954C102.831 93.2435 102.813 93.5045 102.775 93.738H96.881C96.9275 94.354 97.1565 94.8485 97.567 95.222C97.9775 95.5955 98.4815 95.782 99.079 95.782C99.9375 95.782 100.545 95.4225 100.899 94.704H102.621C102.388 95.4135 101.963 95.9965 101.347 96.454C100.741 96.902 99.9845 97.126 99.079 97.126C98.3415 97.126 97.679 96.9625 97.091 96.636C96.5125 96.3 96.055 95.8335 95.719 95.236C95.3925 94.6295 95.229 93.9295 95.229 93.136C95.229 92.3425 95.3875 91.6475 95.705 91.05C96.0315 90.4435 96.4845 89.9765 97.063 89.65C97.651 89.3235 98.323 89.16 99.079 89.16C99.807 89.16 100.456 89.3185 101.025 89.636C101.595 89.9535 102.038 90.4015 102.355 90.98C102.673 91.5495 102.831 92.2075 102.831 92.954ZM101.165 92.45C101.156 91.862 100.946 91.3905 100.535 91.036C100.125 90.6815 99.6155 90.504 99.009 90.504C98.4585 90.504 97.987 90.6815 97.595 91.036C97.203 91.3815 96.9695 91.8525 96.895 92.45H101.165ZM108.294 89.16C108.9 89.16 109.442 89.286 109.918 89.538C110.403 89.79 110.781 90.1635 111.052 90.658C111.322 91.1525 111.458 91.75 111.458 92.45V97H109.876V92.688C109.876 91.9975 109.703 91.47 109.358 91.106C109.012 90.7325 108.541 90.546 107.944 90.546C107.346 90.546 106.87 90.7325 106.516 91.106C106.17 91.47 105.998 91.9975 105.998 92.688V97H104.402V89.286H105.998V90.168C106.259 89.8505 106.59 89.6035 106.992 89.426C107.402 89.2485 107.836 89.16 108.294 89.16ZM115.356 90.588V94.858C115.356 95.1475 115.421 95.3575 115.552 95.488C115.692 95.6095 115.925 95.67 116.252 95.67H117.232V97H115.972C115.253 97 114.702 96.832 114.32 96.496C113.937 96.16 113.746 95.614 113.746 94.858V90.588H112.836V89.286H113.746V87.368H115.356V89.286H117.232V90.588H115.356Z" fill="#F5F5F5"/>
<path d="M70.269 125.848C70.269 126.873 70.0275 127.84 69.544 128.748C69.0605 129.657 68.2875 130.401 67.224 130.981C66.1605 131.542 64.7975 131.822 63.135 131.822H59.481V140H56.175V119.845H63.135C64.6815 119.845 65.9865 120.116 67.05 120.657C68.1325 121.179 68.935 121.895 69.457 122.803C69.9985 123.712 70.269 124.727 70.269 125.848ZM63.135 129.125C64.3915 129.125 65.3295 128.845 65.948 128.284C66.5665 127.704 66.876 126.892 66.876 125.848C66.876 123.644 65.629 122.542 63.135 122.542H59.481V129.125H63.135ZM88.067 131.619C88.067 132.219 88.0285 132.76 87.951 133.243H75.742C75.8385 134.519 76.3125 135.544 77.163 136.317C78.0135 137.091 79.0575 137.477 80.295 137.477C82.0735 137.477 83.3305 136.733 84.065 135.244H87.632C87.1485 136.714 86.269 137.922 84.993 138.869C83.7365 139.797 82.1705 140.261 80.295 140.261C78.7675 140.261 77.395 139.923 76.177 139.246C74.9785 138.55 74.031 137.584 73.335 136.346C72.6585 135.09 72.32 133.64 72.32 131.996C72.32 130.353 72.6485 128.913 73.306 127.675C73.9825 126.419 74.9205 125.452 76.119 124.775C77.337 124.099 78.729 123.76 80.295 123.76C81.803 123.76 83.1465 124.089 84.326 124.746C85.5055 125.404 86.4235 126.332 87.081 127.53C87.7385 128.71 88.067 130.073 88.067 131.619ZM84.616 130.575C84.5965 129.357 84.1615 128.381 83.311 127.646C82.4605 126.912 81.4065 126.544 80.15 126.544C79.0095 126.544 78.033 126.912 77.221 127.646C76.409 128.362 75.9255 129.338 75.771 130.575H84.616ZM94.6265 126.341C95.11 125.529 95.748 124.901 96.5405 124.456C97.3525 123.992 98.3095 123.76 99.4115 123.76V127.182H98.5705C97.275 127.182 96.289 127.511 95.6125 128.168C94.955 128.826 94.6265 129.966 94.6265 131.59V140H91.3205V124.021H94.6265V126.341ZM105.756 126.37C106.317 125.636 107.08 125.017 108.047 124.514C109.014 124.012 110.106 123.76 111.324 123.76C112.716 123.76 113.982 124.108 115.123 124.804C116.283 125.481 117.192 126.438 117.849 127.675C118.506 128.913 118.835 130.334 118.835 131.938C118.835 133.543 118.506 134.983 117.849 136.259C117.192 137.516 116.283 138.502 115.123 139.217C113.982 139.913 112.716 140.261 111.324 140.261C110.106 140.261 109.023 140.02 108.076 139.536C107.129 139.034 106.355 138.415 105.756 137.68V147.598H102.45V124.021H105.756V126.37ZM115.471 131.938C115.471 130.836 115.239 129.889 114.775 129.096C114.33 128.284 113.731 127.675 112.977 127.269C112.242 126.844 111.45 126.631 110.599 126.631C109.768 126.631 108.975 126.844 108.221 127.269C107.486 127.695 106.887 128.313 106.423 129.125C105.978 129.937 105.756 130.894 105.756 131.996C105.756 133.098 105.978 134.065 106.423 134.896C106.887 135.708 107.486 136.327 108.221 136.752C108.975 137.178 109.768 137.39 110.599 137.39C111.45 137.39 112.242 137.178 112.977 136.752C113.731 136.308 114.33 135.67 114.775 134.838C115.239 134.007 115.471 133.04 115.471 131.938ZM136.575 124.021V140H133.269V138.115C132.747 138.773 132.061 139.295 131.21 139.681C130.379 140.049 129.49 140.232 128.542 140.232C127.286 140.232 126.155 139.971 125.149 139.449C124.163 138.927 123.38 138.154 122.8 137.129C122.24 136.105 121.959 134.867 121.959 133.417V124.021H125.236V132.924C125.236 134.355 125.594 135.457 126.309 136.23C127.025 136.984 128.001 137.361 129.238 137.361C130.476 137.361 131.452 136.984 132.167 136.23C132.902 135.457 133.269 134.355 133.269 132.924V124.021H136.575ZM146.737 140.261C145.481 140.261 144.35 140.039 143.344 139.594C142.358 139.13 141.575 138.512 140.995 137.738C140.415 136.946 140.106 136.066 140.067 135.099H143.489C143.547 135.776 143.866 136.346 144.446 136.81C145.046 137.255 145.79 137.477 146.679 137.477C147.607 137.477 148.323 137.303 148.825 136.955C149.347 136.588 149.608 136.124 149.608 135.563C149.608 134.964 149.318 134.519 148.738 134.229C148.178 133.939 147.279 133.62 146.041 133.272C144.843 132.944 143.866 132.625 143.112 132.315C142.358 132.006 141.701 131.532 141.14 130.894C140.599 130.256 140.328 129.415 140.328 128.371C140.328 127.521 140.58 126.747 141.082 126.051C141.585 125.336 142.3 124.775 143.228 124.369C144.176 123.963 145.258 123.76 146.476 123.76C148.294 123.76 149.753 124.224 150.855 125.152C151.977 126.061 152.576 127.308 152.653 128.893H149.347C149.289 128.178 148.999 127.608 148.477 127.182C147.955 126.757 147.25 126.544 146.36 126.544C145.49 126.544 144.823 126.709 144.359 127.037C143.895 127.366 143.663 127.801 143.663 128.342C143.663 128.768 143.818 129.125 144.127 129.415C144.437 129.705 144.814 129.937 145.258 130.111C145.703 130.266 146.36 130.469 147.23 130.72C148.39 131.03 149.338 131.349 150.072 131.677C150.826 131.987 151.474 132.451 152.015 133.069C152.557 133.688 152.837 134.51 152.856 135.534C152.856 136.443 152.605 137.255 152.102 137.97C151.6 138.686 150.884 139.246 149.956 139.652C149.048 140.058 147.975 140.261 146.737 140.261ZM160.286 126.718V135.563C160.286 136.163 160.421 136.598 160.692 136.868C160.982 137.12 161.465 137.245 162.142 137.245H164.172V140H161.562C160.073 140 158.932 139.652 158.14 138.956C157.347 138.26 156.951 137.129 156.951 135.563V126.718H155.066V124.021H156.951V120.048H160.286V124.021H164.172V126.718H160.286ZM166.117 131.938C166.117 130.334 166.445 128.913 167.103 127.675C167.779 126.438 168.688 125.481 169.829 124.804C170.989 124.108 172.265 123.76 173.657 123.76C174.913 123.76 176.006 124.012 176.934 124.514C177.881 124.998 178.635 125.607 179.196 126.341V124.021H182.531V140H179.196V137.622C178.635 138.376 177.871 139.005 176.905 139.507C175.938 140.01 174.836 140.261 173.599 140.261C172.226 140.261 170.969 139.913 169.829 139.217C168.688 138.502 167.779 137.516 167.103 136.259C166.445 134.983 166.117 133.543 166.117 131.938ZM179.196 131.996C179.196 130.894 178.964 129.937 178.5 129.125C178.055 128.313 177.465 127.695 176.731 127.269C175.996 126.844 175.203 126.631 174.353 126.631C173.502 126.631 172.709 126.844 171.975 127.269C171.24 127.675 170.641 128.284 170.177 129.096C169.732 129.889 169.51 130.836 169.51 131.938C169.51 133.04 169.732 134.007 170.177 134.838C170.641 135.67 171.24 136.308 171.975 136.752C172.729 137.178 173.521 137.39 174.353 137.39C175.203 137.39 175.996 137.178 176.731 136.752C177.465 136.327 178.055 135.708 178.5 134.896C178.964 134.065 179.196 133.098 179.196 131.996ZM193.195 132.025L200.561 140H196.095L190.179 133.127V140H186.873V118.54H190.179V131.01L195.979 124.021H200.561L193.195 132.025ZM201.829 131.938C201.829 130.334 202.157 128.913 202.815 127.675C203.491 126.438 204.4 125.481 205.541 124.804C206.701 124.108 207.977 123.76 209.369 123.76C210.625 123.76 211.718 124.012 212.646 124.514C213.593 124.998 214.347 125.607 214.908 126.341V124.021H218.243V140H214.908V137.622C214.347 138.376 213.583 139.005 212.617 139.507C211.65 140.01 210.548 140.261 209.311 140.261C207.938 140.261 206.681 139.913 205.541 139.217C204.4 138.502 203.491 137.516 202.815 136.259C202.157 134.983 201.829 133.543 201.829 131.938ZM214.908 131.996C214.908 130.894 214.676 129.937 214.212 129.125C213.767 128.313 213.177 127.695 212.443 127.269C211.708 126.844 210.915 126.631 210.065 126.631C209.214 126.631 208.421 126.844 207.687 127.269C206.952 127.675 206.353 128.284 205.889 129.096C205.444 129.889 205.222 130.836 205.222 131.938C205.222 133.04 205.444 134.007 205.889 134.838C206.353 135.67 206.952 136.308 207.687 136.752C208.441 137.178 209.233 137.39 210.065 137.39C210.915 137.39 211.708 137.178 212.443 136.752C213.177 136.327 213.767 135.708 214.212 134.896C214.676 134.065 214.908 133.098 214.908 131.996ZM230.647 123.76C231.904 123.76 233.025 124.021 234.011 124.543C235.016 125.065 235.799 125.839 236.36 126.863C236.921 127.888 237.201 129.125 237.201 130.575V140H233.924V131.068C233.924 129.638 233.566 128.545 232.851 127.791C232.136 127.018 231.159 126.631 229.922 126.631C228.685 126.631 227.699 127.018 226.964 127.791C226.249 128.545 225.891 129.638 225.891 131.068V140H222.585V124.021H225.891V125.848C226.432 125.191 227.119 124.679 227.95 124.311C228.801 123.944 229.7 123.76 230.647 123.76Z" fill="#333333"/>
<path d="M69.68 160.38L66.384 171.5H64.32L61.984 163.084L59.504 171.5L57.456 171.516L54.304 160.38H56.24L58.544 169.436L61.04 160.38H63.088L65.408 169.388L67.728 160.38H69.68ZM79.2645 166.876C79.2645 167.206 79.243 167.505 79.2005 167.772H72.4645C72.5175 168.476 72.779 169.041 73.2485 169.468C73.7175 169.894 74.2935 170.108 74.9765 170.108C75.9575 170.108 76.651 169.697 77.0565 168.876H79.0245C78.7575 169.686 78.2725 170.353 77.5685 170.876C76.875 171.388 76.011 171.644 74.9765 171.644C74.1335 171.644 73.3765 171.457 72.7045 171.084C72.043 170.7 71.5205 170.166 71.1365 169.484C70.763 168.79 70.5765 167.99 70.5765 167.084C70.5765 166.177 70.7575 165.382 71.1205 164.7C71.4935 164.006 72.011 163.473 72.6725 163.1C73.3445 162.726 74.1125 162.54 74.9765 162.54C75.8085 162.54 76.5495 162.721 77.2005 163.084C77.851 163.446 78.3575 163.958 78.7205 164.62C79.083 165.27 79.2645 166.022 79.2645 166.876ZM77.3605 166.3C77.3495 165.628 77.1095 165.089 76.6405 164.684C76.171 164.278 75.5895 164.076 74.8965 164.076C74.267 164.076 73.7285 164.278 73.2805 164.684C72.8325 165.078 72.5655 165.617 72.4805 166.3H77.3605ZM82.8835 163.996C83.1925 163.569 83.614 163.222 84.1475 162.956C84.6915 162.678 85.294 162.54 85.9555 162.54C86.734 162.54 87.438 162.726 88.0675 163.1C88.6965 163.473 89.1925 164.006 89.5555 164.7C89.918 165.382 90.0995 166.166 90.0995 167.052C90.0995 167.937 89.918 168.732 89.5555 169.436C89.1925 170.129 88.6915 170.673 88.0515 171.068C87.422 171.452 86.7235 171.644 85.9555 171.644C85.2725 171.644 84.6645 171.51 84.1315 171.244C83.6085 170.977 83.1925 170.636 82.8835 170.22V171.5H81.0595V159.66H82.8835V163.996ZM88.2435 167.052C88.2435 166.444 88.1155 165.921 87.8595 165.484C87.614 165.036 87.2835 164.7 86.8675 164.476C86.462 164.241 86.0245 164.124 85.5555 164.124C85.0965 164.124 84.6595 164.241 84.2435 164.476C83.838 164.71 83.5075 165.052 83.2515 165.5C83.006 165.948 82.8835 166.476 82.8835 167.084C82.8835 167.692 83.006 168.225 83.2515 168.684C83.5075 169.132 83.838 169.473 84.2435 169.708C84.6595 169.942 85.0965 170.06 85.5555 170.06C86.0245 170.06 86.462 169.942 86.8675 169.708C87.2835 169.462 87.614 169.11 87.8595 168.652C88.1155 168.193 88.2435 167.66 88.2435 167.052ZM102.764 169.228H98.1075L97.3075 171.5H95.4035L99.3875 160.364H101.5L105.484 171.5H103.564L102.764 169.228ZM102.252 167.74L100.444 162.572L98.6195 167.74H102.252ZM109.04 163.98C109.349 163.574 109.771 163.233 110.304 162.956C110.837 162.678 111.44 162.54 112.112 162.54C112.88 162.54 113.579 162.732 114.208 163.116C114.848 163.489 115.349 164.017 115.712 164.7C116.075 165.382 116.256 166.166 116.256 167.052C116.256 167.937 116.075 168.732 115.712 169.436C115.349 170.129 114.848 170.673 114.208 171.068C113.579 171.452 112.88 171.644 112.112 171.644C111.44 171.644 110.843 171.51 110.32 171.244C109.797 170.966 109.371 170.625 109.04 170.22V175.692H107.216V162.684H109.04V163.98ZM114.4 167.052C114.4 166.444 114.272 165.921 114.016 165.484C113.771 165.036 113.44 164.7 113.024 164.476C112.619 164.241 112.181 164.124 111.712 164.124C111.253 164.124 110.816 164.241 110.4 164.476C109.995 164.71 109.664 165.052 109.408 165.5C109.163 165.948 109.04 166.476 109.04 167.084C109.04 167.692 109.163 168.225 109.408 168.684C109.664 169.132 109.995 169.473 110.4 169.708C110.816 169.942 111.253 170.06 111.712 170.06C112.181 170.06 112.619 169.942 113.024 169.708C113.44 169.462 113.771 169.11 114.016 168.652C114.272 168.193 114.4 167.66 114.4 167.052ZM119.884 163.98C120.193 163.574 120.614 163.233 121.148 162.956C121.681 162.678 122.284 162.54 122.956 162.54C123.724 162.54 124.422 162.732 125.052 163.116C125.692 163.489 126.193 164.017 126.556 164.7C126.918 165.382 127.1 166.166 127.1 167.052C127.1 167.937 126.918 168.732 126.556 169.436C126.193 170.129 125.692 170.673 125.052 171.068C124.422 171.452 123.724 171.644 122.956 171.644C122.284 171.644 121.686 171.51 121.164 171.244C120.641 170.966 120.214 170.625 119.884 170.22V175.692H118.06V162.684H119.884V163.98ZM125.244 167.052C125.244 166.444 125.116 165.921 124.86 165.484C124.614 165.036 124.284 164.7 123.868 164.476C123.462 164.241 123.025 164.124 122.556 164.124C122.097 164.124 121.66 164.241 121.244 164.476C120.838 164.71 120.508 165.052 120.252 165.5C120.006 165.948 119.884 166.476 119.884 167.084C119.884 167.692 120.006 168.225 120.252 168.684C120.508 169.132 120.838 169.473 121.244 169.708C121.66 169.942 122.097 170.06 122.556 170.06C123.025 170.06 123.462 169.942 123.868 169.708C124.284 169.462 124.614 169.11 124.86 168.652C125.116 168.193 125.244 167.66 125.244 167.052ZM130.727 159.66V171.5H128.903V159.66H130.727ZM134.05 161.516C133.719 161.516 133.442 161.404 133.218 161.18C132.994 160.956 132.882 160.678 132.882 160.348C132.882 160.017 132.994 159.74 133.218 159.516C133.442 159.292 133.719 159.18 134.05 159.18C134.37 159.18 134.642 159.292 134.866 159.516C135.09 159.74 135.202 160.017 135.202 160.348C135.202 160.678 135.09 160.956 134.866 161.18C134.642 161.404 134.37 161.516 134.05 161.516ZM134.946 162.684V171.5H133.122V162.684H134.946ZM136.733 167.084C136.733 166.177 136.914 165.382 137.277 164.7C137.65 164.006 138.162 163.473 138.813 163.1C139.464 162.726 140.21 162.54 141.053 162.54C142.12 162.54 143 162.796 143.693 163.308C144.397 163.809 144.872 164.529 145.117 165.468H143.149C142.989 165.03 142.733 164.689 142.381 164.444C142.029 164.198 141.586 164.076 141.053 164.076C140.306 164.076 139.709 164.342 139.261 164.876C138.824 165.398 138.605 166.134 138.605 167.084C138.605 168.033 138.824 168.774 139.261 169.308C139.709 169.841 140.306 170.108 141.053 170.108C142.109 170.108 142.808 169.644 143.149 168.716H145.117C144.861 169.612 144.381 170.326 143.677 170.86C142.973 171.382 142.098 171.644 141.053 171.644C140.21 171.644 139.464 171.457 138.813 171.084C138.162 170.7 137.65 170.166 137.277 169.484C136.914 168.79 136.733 167.99 136.733 167.084ZM146.327 167.052C146.327 166.166 146.508 165.382 146.871 164.7C147.244 164.017 147.745 163.489 148.375 163.116C149.015 162.732 149.719 162.54 150.487 162.54C151.18 162.54 151.783 162.678 152.295 162.956C152.817 163.222 153.233 163.558 153.543 163.964V162.684H155.383V171.5H153.543V170.188C153.233 170.604 152.812 170.95 152.279 171.228C151.745 171.505 151.137 171.644 150.455 171.644C149.697 171.644 149.004 171.452 148.375 171.068C147.745 170.673 147.244 170.129 146.871 169.436C146.508 168.732 146.327 167.937 146.327 167.052ZM153.543 167.084C153.543 166.476 153.415 165.948 153.159 165.5C152.913 165.052 152.588 164.71 152.183 164.476C151.777 164.241 151.34 164.124 150.871 164.124C150.401 164.124 149.964 164.241 149.559 164.476C149.153 164.7 148.823 165.036 148.567 165.484C148.321 165.921 148.199 166.444 148.199 167.052C148.199 167.66 148.321 168.193 148.567 168.652C148.823 169.11 149.153 169.462 149.559 169.708C149.975 169.942 150.412 170.06 150.871 170.06C151.34 170.06 151.777 169.942 152.183 169.708C152.588 169.473 152.913 169.132 153.159 168.684C153.415 168.225 153.543 167.692 153.543 167.084ZM159.906 164.172V169.052C159.906 169.382 159.981 169.622 160.13 169.772C160.29 169.91 160.557 169.98 160.93 169.98H162.05V171.5H160.61C159.789 171.5 159.16 171.308 158.722 170.924C158.285 170.54 158.066 169.916 158.066 169.052V164.172H157.026V162.684H158.066V160.492H159.906V162.684H162.05V164.172H159.906ZM164.66 161.516C164.329 161.516 164.052 161.404 163.828 161.18C163.604 160.956 163.492 160.678 163.492 160.348C163.492 160.017 163.604 159.74 163.828 159.516C164.052 159.292 164.329 159.18 164.66 159.18C164.98 159.18 165.252 159.292 165.476 159.516C165.7 159.74 165.812 160.017 165.812 160.348C165.812 160.678 165.7 160.956 165.476 161.18C165.252 161.404 164.98 161.516 164.66 161.516ZM165.556 162.684V171.5H163.732V162.684H165.556ZM171.774 171.644C170.942 171.644 170.19 171.457 169.518 171.084C168.846 170.7 168.318 170.166 167.934 169.484C167.55 168.79 167.358 167.99 167.358 167.084C167.358 166.188 167.556 165.393 167.95 164.7C168.345 164.006 168.884 163.473 169.566 163.1C170.249 162.726 171.012 162.54 171.854 162.54C172.697 162.54 173.46 162.726 174.142 163.1C174.825 163.473 175.364 164.006 175.758 164.7C176.153 165.393 176.35 166.188 176.35 167.084C176.35 167.98 176.148 168.774 175.742 169.468C175.337 170.161 174.782 170.7 174.078 171.084C173.385 171.457 172.617 171.644 171.774 171.644ZM171.774 170.06C172.244 170.06 172.681 169.948 173.086 169.724C173.502 169.5 173.838 169.164 174.094 168.716C174.35 168.268 174.478 167.724 174.478 167.084C174.478 166.444 174.356 165.905 174.11 165.468C173.865 165.02 173.54 164.684 173.134 164.46C172.729 164.236 172.292 164.124 171.822 164.124C171.353 164.124 170.916 164.236 170.51 164.46C170.116 164.684 169.801 165.02 169.566 165.468C169.332 165.905 169.214 166.444 169.214 167.084C169.214 168.033 169.454 168.769 169.934 169.292C170.425 169.804 171.038 170.06 171.774 170.06ZM182.601 162.54C183.295 162.54 183.913 162.684 184.457 162.972C185.012 163.26 185.444 163.686 185.753 164.252C186.063 164.817 186.217 165.5 186.217 166.3V171.5H184.409V166.572C184.409 165.782 184.212 165.18 183.817 164.764C183.423 164.337 182.884 164.124 182.201 164.124C181.519 164.124 180.975 164.337 180.569 164.764C180.175 165.18 179.977 165.782 179.977 166.572V171.5H178.153V162.684H179.977V163.692C180.276 163.329 180.655 163.046 181.113 162.844C181.583 162.641 182.079 162.54 182.601 162.54Z" fill="#909090"/>
<path d="M316 180C343.614 180 366 157.614 366 130C366 102.386 343.614 80 316 80C288.386 80 266 102.386 266 130C266 157.614 288.386 180 316 180Z" fill="#001DA0"/>
<path d="M316 117.273C313.25 113.773 309.01 110.272 298.503 110.015C297.813 109.998 297.25 110.559 297.25 111.249C297.25 116.371 297.25 135.759 297.25 141.493C297.25 142.183 297.813 142.725 298.503 142.748C309.01 143.091 313.25 147.75 316 151.25M316 117.273C318.75 113.773 322.99 110.272 333.497 110.015C334.187 109.998 334.75 110.546 334.75 111.237C334.75 116.961 334.75 135.766 334.75 141.491C334.75 142.181 334.187 142.725 333.497 142.748C322.99 143.091 318.75 147.75 316 151.25M316 117.273V151.25" stroke="#F5F5F5" stroke-width="3.2" stroke-linejoin="round"/>
<path d="M334.088 115H339.75C340.44 115 341 115.559 341 116.25V148.848C341 149.859 339.808 150.531 338.884 150.12C336.896 149.237 333.578 148.158 329.235 148.158C321.882 148.158 316 152.5 316 152.5C316 152.5 310.117 148.158 302.764 148.158C298.421 148.158 295.104 149.237 293.116 150.12C292.191 150.531 291 149.859 291 148.848V116.25C291 115.559 291.559 115 292.25 115H297.912" stroke="#F5F5F5" stroke-width="3.2" stroke-linejoin="round"/>
</g>
<defs>
<clipPath id="clip0_350_198">
<rect width="400" height="240" fill="white" transform="translate(10 10)"/>
</clipPath>
</defs>
</svg>
