<svg width="420" height="260" viewBox="0 0 420 260" fill="none" xmlns="http://www.w3.org/2000/svg">
<rect width="420" height="260" rx="10" fill="#181C14"/>
<g clip-path="url(#clip0_350_196)">
<path d="M404 10H16C12.6863 10 10 12.6863 10 16V244C10 247.314 12.6863 250 16 250H404C407.314 250 410 247.314 410 244V16C410 12.6863 407.314 10 404 10Z" fill="white"/>
<path d="M127.5 79H67C59.8203 79 54 84.8203 54 92C54 99.1797 59.8203 105 67 105H127.5C134.68 105 140.5 99.1797 140.5 92C140.5 84.8203 134.68 79 127.5 79Z" fill="#333333"/>
<path d="M77.018 92.114C77.018 91.162 77.2375 90.308 77.676 89.552C78.124 88.796 78.726 88.208 79.482 87.788C80.2475 87.3585 81.0825 87.144 81.988 87.144C83.024 87.144 83.9435 87.4005 84.746 87.914C85.558 88.418 86.146 89.1365 86.51 90.07H84.592C84.34 89.5565 83.99 89.174 83.542 88.922C83.094 88.67 82.576 88.544 81.988 88.544C81.344 88.544 80.77 88.6885 80.266 88.978C79.762 89.2675 79.3655 89.6825 79.076 90.224C78.796 90.7655 78.656 91.3955 78.656 92.114C78.656 92.8325 78.796 93.4625 79.076 94.004C79.3655 94.5455 79.762 94.9655 80.266 95.264C80.77 95.5535 81.344 95.698 81.988 95.698C82.576 95.698 83.094 95.572 83.542 95.32C83.99 95.068 84.34 94.6855 84.592 94.172H86.51C86.146 95.1055 85.558 95.824 84.746 96.328C83.9435 96.832 83.024 97.084 81.988 97.084C81.0735 97.084 80.238 96.874 79.482 96.454C78.726 96.0245 78.124 95.432 77.676 94.676C77.2375 93.92 77.018 93.066 77.018 92.114ZM89.974 86.64V97H88.378V86.64H89.974ZM92.8815 88.264C92.592 88.264 92.3495 88.166 92.1535 87.97C91.9575 87.774 91.8595 87.5315 91.8595 87.242C91.8595 86.9525 91.9575 86.71 92.1535 86.514C92.3495 86.318 92.592 86.22 92.8815 86.22C93.1615 86.22 93.3995 86.318 93.5955 86.514C93.7915 86.71 93.8895 86.9525 93.8895 87.242C93.8895 87.5315 93.7915 87.774 93.5955 87.97C93.3995 88.166 93.1615 88.264 92.8815 88.264ZM93.6655 89.286V97H92.0695V89.286H93.6655ZM102.831 92.954C102.831 93.2435 102.813 93.5045 102.775 93.738H96.881C96.9275 94.354 97.1565 94.8485 97.567 95.222C97.9775 95.5955 98.4815 95.782 99.079 95.782C99.9375 95.782 100.545 95.4225 100.899 94.704H102.621C102.388 95.4135 101.963 95.9965 101.347 96.454C100.741 96.902 99.9845 97.126 99.079 97.126C98.3415 97.126 97.679 96.9625 97.091 96.636C96.5125 96.3 96.055 95.8335 95.719 95.236C95.3925 94.6295 95.229 93.9295 95.229 93.136C95.229 92.3425 95.3875 91.6475 95.705 91.05C96.0315 90.4435 96.4845 89.9765 97.063 89.65C97.651 89.3235 98.323 89.16 99.079 89.16C99.807 89.16 100.456 89.3185 101.025 89.636C101.595 89.9535 102.038 90.4015 102.355 90.98C102.673 91.5495 102.831 92.2075 102.831 92.954ZM101.165 92.45C101.156 91.862 100.946 91.3905 100.535 91.036C100.125 90.6815 99.6155 90.504 99.009 90.504C98.4585 90.504 97.987 90.6815 97.595 91.036C97.203 91.3815 96.9695 91.8525 96.895 92.45H101.165ZM108.294 89.16C108.9 89.16 109.442 89.286 109.918 89.538C110.403 89.79 110.781 90.1635 111.052 90.658C111.322 91.1525 111.458 91.75 111.458 92.45V97H109.876V92.688C109.876 91.9975 109.703 91.47 109.358 91.106C109.012 90.7325 108.541 90.546 107.944 90.546C107.346 90.546 106.87 90.7325 106.516 91.106C106.17 91.47 105.998 91.9975 105.998 92.688V97H104.402V89.286H105.998V90.168C106.259 89.8505 106.59 89.6035 106.992 89.426C107.402 89.2485 107.836 89.16 108.294 89.16ZM115.356 90.588V94.858C115.356 95.1475 115.421 95.3575 115.552 95.488C115.692 95.6095 115.925 95.67 116.252 95.67H117.232V97H115.972C115.253 97 114.702 96.832 114.32 96.496C113.937 96.16 113.746 95.614 113.746 94.858V90.588H112.836V89.286H113.746V87.368H115.356V89.286H117.232V90.588H115.356Z" fill="#F5F5F5"/>
<path d="M62.816 140.203C61.4625 140.203 60.2445 139.971 59.162 139.507C58.0794 139.024 57.2287 138.347 56.61 137.477C55.9914 136.607 55.682 135.592 55.682 134.432H59.22C59.2974 135.302 59.6357 136.018 60.235 136.578C60.8535 137.139 61.714 137.419 62.816 137.419C63.9565 137.419 64.846 137.149 65.484 136.607C66.122 136.047 66.441 135.331 66.441 134.461C66.441 133.785 66.238 133.234 65.832 132.808C65.4455 132.383 64.9525 132.054 64.353 131.822C63.773 131.59 62.961 131.339 61.917 131.068C60.6025 130.72 59.5294 130.372 58.698 130.024C57.886 129.657 57.19 129.096 56.61 128.342C56.03 127.588 55.74 126.583 55.74 125.326C55.74 124.166 56.03 123.151 56.61 122.281C57.19 121.411 58.002 120.744 59.046 120.28C60.09 119.816 61.2985 119.584 62.671 119.584C64.6235 119.584 66.2185 120.077 67.456 121.063C68.7125 122.03 69.4085 123.364 69.544 125.065H65.89C65.832 124.331 65.484 123.702 64.846 123.18C64.208 122.658 63.367 122.397 62.323 122.397C61.3755 122.397 60.6025 122.639 60.003 123.122C59.4037 123.606 59.104 124.302 59.104 125.21C59.104 125.829 59.2877 126.341 59.655 126.747C60.0415 127.134 60.525 127.443 61.105 127.675C61.685 127.907 62.4775 128.159 63.483 128.429C64.817 128.797 65.8995 129.164 66.731 129.531C67.5815 129.899 68.297 130.469 68.877 131.242C69.4765 131.996 69.776 133.011 69.776 134.287C69.776 135.312 69.4955 136.279 68.935 137.187C68.3935 138.096 67.5915 138.831 66.528 139.391C65.484 139.933 64.2465 140.203 62.816 140.203ZM88.322 131.619C88.322 132.219 88.2835 132.76 88.206 133.243H75.997C76.0935 134.519 76.5675 135.544 77.418 136.317C78.2685 137.091 79.3125 137.477 80.55 137.477C82.3285 137.477 83.5855 136.733 84.32 135.244H87.887C87.4035 136.714 86.524 137.922 85.248 138.869C83.9915 139.797 82.4255 140.261 80.55 140.261C79.0225 140.261 77.65 139.923 76.432 139.246C75.2335 138.55 74.286 137.584 73.59 136.346C72.9135 135.09 72.575 133.64 72.575 131.996C72.575 130.353 72.9035 128.913 73.561 127.675C74.2375 126.419 75.1755 125.452 76.374 124.775C77.592 124.099 78.984 123.76 80.55 123.76C82.058 123.76 83.4015 124.089 84.581 124.746C85.7605 125.404 86.6785 126.332 87.336 127.53C87.9935 128.71 88.322 130.073 88.322 131.619ZM84.871 130.575C84.8515 129.357 84.4165 128.381 83.566 127.646C82.7155 126.912 81.6615 126.544 80.405 126.544C79.2645 126.544 78.288 126.912 77.476 127.646C76.664 128.362 76.1805 129.338 76.026 130.575H84.871ZM90.4735 131.938C90.4735 130.334 90.802 128.913 91.4595 127.675C92.136 126.438 93.0445 125.481 94.1855 124.804C95.3455 124.108 96.631 123.76 98.0425 123.76C99.0865 123.76 100.111 123.992 101.117 124.456C102.141 124.901 102.953 125.5 103.553 126.254V118.54H106.888V140H103.553V137.593C103.011 138.367 102.257 139.005 101.291 139.507C100.343 140.01 99.2505 140.261 98.0135 140.261C96.6215 140.261 95.3455 139.913 94.1855 139.217C93.0445 138.502 92.136 137.516 91.4595 136.259C90.802 134.983 90.4735 133.543 90.4735 131.938ZM103.553 131.996C103.553 130.894 103.321 129.937 102.857 129.125C102.412 128.313 101.822 127.695 101.088 127.269C100.353 126.844 99.56 126.631 98.7095 126.631C97.8585 126.631 97.066 126.844 96.3315 127.269C95.5965 127.675 94.9975 128.284 94.5335 129.096C94.0885 129.889 93.8665 130.836 93.8665 131.938C93.8665 133.04 94.0885 134.007 94.5335 134.838C94.9975 135.67 95.5965 136.308 96.3315 136.752C97.0855 137.178 97.878 137.39 98.7095 137.39C99.56 137.39 100.353 137.178 101.088 136.752C101.822 136.327 102.412 135.708 102.857 134.896C103.321 134.065 103.553 133.098 103.553 131.996ZM125.875 131.619C125.875 132.219 125.836 132.76 125.759 133.243H113.55C113.647 134.519 114.12 135.544 114.971 136.317C115.822 137.091 116.866 137.477 118.103 137.477C119.882 137.477 121.138 136.733 121.873 135.244H125.44C124.957 136.714 124.077 137.922 122.801 138.869C121.544 139.797 119.978 140.261 118.103 140.261C116.576 140.261 115.203 139.923 113.985 139.246C112.786 138.55 111.839 137.584 111.143 136.346C110.466 135.09 110.128 133.64 110.128 131.996C110.128 130.353 110.457 128.913 111.114 127.675C111.791 126.419 112.728 125.452 113.927 124.775C115.145 124.099 116.537 123.76 118.103 123.76C119.611 123.76 120.955 124.089 122.134 124.746C123.313 125.404 124.232 126.332 124.889 127.53C125.546 128.71 125.875 130.073 125.875 131.619ZM122.424 130.575C122.405 129.357 121.97 128.381 121.119 127.646C120.268 126.912 119.215 126.544 117.958 126.544C116.817 126.544 115.841 126.912 115.029 127.646C114.217 128.362 113.734 129.338 113.579 130.575H122.424ZM132.434 126.341C132.918 125.529 133.556 124.901 134.348 124.456C135.16 123.992 136.117 123.76 137.219 123.76V127.182H136.378C135.083 127.182 134.097 127.511 133.42 128.168C132.763 128.826 132.434 129.966 132.434 131.59V140H129.128V124.021H132.434V126.341ZM148.523 123.76C149.741 123.76 150.824 124.021 151.771 124.543C152.738 125.065 153.492 125.839 154.033 126.863C154.594 127.888 154.874 129.125 154.874 130.575V140H151.597V131.068C151.597 129.638 151.24 128.545 150.524 127.791C149.809 127.018 148.833 126.631 147.595 126.631C146.358 126.631 145.371 127.018 144.637 127.791C143.922 128.545 143.564 129.638 143.564 131.068V140H140.258V118.54H143.564V125.877C144.125 125.201 144.831 124.679 145.681 124.311C146.551 123.944 147.499 123.76 148.523 123.76ZM157.989 131.938C157.989 130.334 158.318 128.913 158.975 127.675C159.652 126.438 160.561 125.481 161.701 124.804C162.861 124.108 164.137 123.76 165.529 123.76C166.786 123.76 167.878 124.012 168.806 124.514C169.754 124.998 170.507 125.607 171.068 126.341V124.021H174.403V140H171.068V137.622C170.507 138.376 169.743 139.005 168.777 139.507C167.811 140.01 166.709 140.261 165.471 140.261C164.099 140.261 162.842 139.913 161.701 139.217C160.561 138.502 159.652 137.516 158.975 136.259C158.318 134.983 157.989 133.543 157.989 131.938ZM171.068 131.996C171.068 130.894 170.836 129.937 170.372 129.125C169.927 128.313 169.338 127.695 168.603 127.269C167.869 126.844 167.076 126.631 166.225 126.631C165.375 126.631 164.582 126.844 163.847 127.269C163.113 127.675 162.513 128.284 162.049 129.096C161.604 129.889 161.382 130.836 161.382 131.938C161.382 133.04 161.604 134.007 162.049 134.838C162.513 135.67 163.113 136.308 163.847 136.752C164.601 137.178 165.394 137.39 166.225 137.39C167.076 137.39 167.869 137.178 168.603 136.752C169.338 136.327 169.927 135.708 170.372 134.896C170.836 134.065 171.068 133.098 171.068 131.996ZM186.807 123.76C188.064 123.76 189.186 124.021 190.172 124.543C191.177 125.065 191.96 125.839 192.521 126.863C193.081 127.888 193.362 129.125 193.362 130.575V140H190.085V131.068C190.085 129.638 189.727 128.545 189.012 127.791C188.296 127.018 187.32 126.631 186.083 126.631C184.845 126.631 183.859 127.018 183.125 127.791C182.409 128.545 182.052 129.638 182.052 131.068V140H178.746V124.021H182.052V125.848C182.593 125.191 183.279 124.679 184.111 124.311C184.961 123.944 185.86 123.76 186.807 123.76ZM196.477 131.938C196.477 130.334 196.805 128.913 197.462 127.675C198.139 126.438 199.048 125.481 200.189 124.804C201.349 124.108 202.625 123.76 204.017 123.76C205.273 123.76 206.366 124.012 207.294 124.514C208.241 124.998 208.995 125.607 209.556 126.341V124.021H212.891V140H209.556V137.622C208.995 138.376 208.231 139.005 207.264 139.507C206.298 140.01 205.195 140.261 203.958 140.261C202.585 140.261 201.329 139.913 200.189 139.217C199.048 138.502 198.139 137.516 197.462 136.259C196.805 134.983 196.477 133.543 196.477 131.938ZM209.556 131.996C209.556 130.894 209.324 129.937 208.859 129.125C208.414 128.313 207.825 127.695 207.091 127.269C206.356 126.844 205.563 126.631 204.712 126.631C203.861 126.631 203.069 126.844 202.335 127.269C201.6 127.675 201.001 128.284 200.536 129.096C200.091 129.889 199.87 130.836 199.87 131.938C199.87 133.04 200.091 134.007 200.536 134.838C201.001 135.67 201.6 136.308 202.335 136.752C203.089 137.178 203.881 137.39 204.712 137.39C205.563 137.39 206.356 137.178 207.091 136.752C207.825 136.327 208.414 135.708 208.859 134.896C209.324 134.065 209.556 133.098 209.556 131.996Z" fill="#333333"/>
<path d="M66.912 160.38V171.5H65.088V163.884L61.696 171.5H60.432L57.024 163.884V171.5H55.2V160.38H57.168L61.072 169.1L64.96 160.38H66.912ZM73.1335 171.644C72.3015 171.644 71.5495 171.457 70.8775 171.084C70.2055 170.7 69.6775 170.166 69.2935 169.484C68.9095 168.79 68.7175 167.99 68.7175 167.084C68.7175 166.188 68.9145 165.393 69.3095 164.7C69.704 164.006 70.2425 163.473 70.9255 163.1C71.608 162.726 72.3705 162.54 73.2135 162.54C74.056 162.54 74.8185 162.726 75.5015 163.1C76.184 163.473 76.7225 164.006 77.1175 164.7C77.512 165.393 77.7095 166.188 77.7095 167.084C77.7095 167.98 77.5065 168.774 77.1015 169.468C76.696 170.161 76.1415 170.7 75.4375 171.084C74.744 171.457 73.976 171.644 73.1335 171.644ZM73.1335 170.06C73.6025 170.06 74.04 169.948 74.4455 169.724C74.8615 169.5 75.1975 169.164 75.4535 168.716C75.7095 168.268 75.8375 167.724 75.8375 167.084C75.8375 166.444 75.7145 165.905 75.4695 165.468C75.224 165.02 74.8985 164.684 74.4935 164.46C74.088 164.236 73.6505 164.124 73.1815 164.124C72.712 164.124 72.2745 164.236 71.8695 164.46C71.4745 164.684 71.16 165.02 70.9255 165.468C70.6905 165.905 70.5735 166.444 70.5735 167.084C70.5735 168.033 70.8135 168.769 71.2935 169.292C71.784 169.804 72.3975 170.06 73.1335 170.06ZM81.3365 163.996C81.646 163.569 82.067 163.222 82.6005 162.956C83.1445 162.678 83.747 162.54 84.4085 162.54C85.187 162.54 85.891 162.726 86.5205 163.1C87.15 163.473 87.646 164.006 88.0085 164.7C88.371 165.382 88.5525 166.166 88.5525 167.052C88.5525 167.937 88.371 168.732 88.0085 169.436C87.646 170.129 87.1445 170.673 86.5045 171.068C85.875 171.452 85.1765 171.644 84.4085 171.644C83.726 171.644 83.118 171.51 82.5845 171.244C82.062 170.977 81.646 170.636 81.3365 170.22V171.5H79.5125V159.66H81.3365V163.996ZM86.6965 167.052C86.6965 166.444 86.5685 165.921 86.3125 165.484C86.067 165.036 85.7365 164.7 85.3205 164.476C84.915 164.241 84.478 164.124 84.0085 164.124C83.55 164.124 83.1125 164.241 82.6965 164.476C82.291 164.71 81.9605 165.052 81.7045 165.5C81.459 165.948 81.3365 166.476 81.3365 167.084C81.3365 167.692 81.459 168.225 81.7045 168.684C81.9605 169.132 82.291 169.473 82.6965 169.708C83.1125 169.942 83.55 170.06 84.0085 170.06C84.478 170.06 84.915 169.942 85.3205 169.708C85.7365 169.462 86.067 169.11 86.3125 168.652C86.5685 168.193 86.6965 167.66 86.6965 167.052ZM91.2845 161.516C90.9535 161.516 90.6765 161.404 90.4525 161.18C90.2285 160.956 90.1165 160.678 90.1165 160.348C90.1165 160.017 90.2285 159.74 90.4525 159.516C90.6765 159.292 90.9535 159.18 91.2845 159.18C91.6045 159.18 91.8765 159.292 92.1005 159.516C92.3245 159.74 92.4365 160.017 92.4365 160.348C92.4365 160.678 92.3245 160.956 92.1005 161.18C91.8765 161.404 91.6045 161.516 91.2845 161.516ZM92.1805 162.684V171.5H90.3565V162.684H92.1805ZM96.399 159.66V171.5H94.575V159.66H96.399ZM106.874 166.876C106.874 167.206 106.853 167.505 106.81 167.772H100.074C100.127 168.476 100.389 169.041 100.858 169.468C101.327 169.894 101.903 170.108 102.586 170.108C103.567 170.108 104.261 169.697 104.666 168.876H106.634C106.367 169.686 105.882 170.353 105.178 170.876C104.485 171.388 103.621 171.644 102.586 171.644C101.743 171.644 100.986 171.457 100.314 171.084C99.6525 170.7 99.13 170.166 98.746 169.484C98.3725 168.79 98.186 167.99 98.186 167.084C98.186 166.177 98.367 165.382 98.73 164.7C99.103 164.006 99.6205 163.473 100.282 163.1C100.954 162.726 101.722 162.54 102.586 162.54C103.418 162.54 104.159 162.721 104.81 163.084C105.461 163.446 105.967 163.958 106.33 164.62C106.693 165.27 106.874 166.022 106.874 166.876ZM104.97 166.3C104.959 165.628 104.719 165.089 104.25 164.684C103.781 164.278 103.199 164.076 102.506 164.076C101.877 164.076 101.338 164.278 100.89 164.684C100.442 165.078 100.175 165.617 100.09 166.3H104.97ZM119.529 169.228H114.873L114.073 171.5H112.169L116.153 160.364H118.265L122.249 171.5H120.329L119.529 169.228ZM119.017 167.74L117.209 162.572L115.385 167.74H119.017ZM125.806 163.98C126.115 163.574 126.536 163.233 127.07 162.956C127.603 162.678 128.206 162.54 128.878 162.54C129.646 162.54 130.344 162.732 130.974 163.116C131.614 163.489 132.115 164.017 132.478 164.7C132.84 165.382 133.022 166.166 133.022 167.052C133.022 167.937 132.84 168.732 132.478 169.436C132.115 170.129 131.614 170.673 130.974 171.068C130.344 171.452 129.646 171.644 128.878 171.644C128.206 171.644 127.608 171.51 127.086 171.244C126.563 170.966 126.136 170.625 125.806 170.22V175.692H123.982V162.684H125.806V163.98ZM131.166 167.052C131.166 166.444 131.038 165.921 130.781 165.484C130.536 165.036 130.206 164.7 129.79 164.476C129.384 164.241 128.947 164.124 128.478 164.124C128.019 164.124 127.582 164.241 127.166 164.476C126.76 164.71 126.43 165.052 126.174 165.5C125.928 165.948 125.806 166.476 125.806 167.084C125.806 167.692 125.928 168.225 126.174 168.684C126.43 169.132 126.76 169.473 127.166 169.708C127.582 169.942 128.019 170.06 128.478 170.06C128.947 170.06 129.384 169.942 129.79 169.708C130.206 169.462 130.536 169.11 130.781 168.652C131.038 168.193 131.166 167.66 131.166 167.052ZM136.649 163.98C136.959 163.574 137.38 163.233 137.913 162.956C138.447 162.678 139.049 162.54 139.721 162.54C140.489 162.54 141.188 162.732 141.817 163.116C142.457 163.489 142.959 164.017 143.321 164.7C143.684 165.382 143.865 166.166 143.865 167.052C143.865 167.937 143.684 168.732 143.321 169.436C142.959 170.129 142.457 170.673 141.817 171.068C141.188 171.452 140.489 171.644 139.721 171.644C139.049 171.644 138.452 171.51 137.929 171.244C137.407 170.966 136.98 170.625 136.649 170.22V175.692H134.825V162.684H136.649V163.98ZM142.009 167.052C142.009 166.444 141.881 165.921 141.625 165.484C141.38 165.036 141.049 164.7 140.633 164.476C140.228 164.241 139.791 164.124 139.321 164.124C138.863 164.124 138.425 164.241 138.009 164.476C137.604 164.71 137.273 165.052 137.017 165.5C136.772 165.948 136.649 166.476 136.649 167.084C136.649 167.692 136.772 168.225 137.017 168.684C137.273 169.132 137.604 169.473 138.009 169.708C138.425 169.942 138.863 170.06 139.321 170.06C139.791 170.06 140.228 169.942 140.633 169.708C141.049 169.462 141.38 169.11 141.625 168.652C141.881 168.193 142.009 167.66 142.009 167.052ZM147.493 159.66V171.5H145.669V159.66H147.493ZM150.816 161.516C150.485 161.516 150.208 161.404 149.984 161.18C149.76 160.956 149.648 160.678 149.648 160.348C149.648 160.017 149.76 159.74 149.984 159.516C150.208 159.292 150.485 159.18 150.816 159.18C151.136 159.18 151.408 159.292 151.632 159.516C151.856 159.74 151.968 160.017 151.968 160.348C151.968 160.678 151.856 160.956 151.632 161.18C151.408 161.404 151.136 161.516 150.816 161.516ZM151.712 162.684V171.5H149.888V162.684H151.712ZM153.499 167.084C153.499 166.177 153.68 165.382 154.043 164.7C154.416 164.006 154.928 163.473 155.579 163.1C156.229 162.726 156.976 162.54 157.819 162.54C158.885 162.54 159.765 162.796 160.459 163.308C161.163 163.809 161.637 164.529 161.883 165.468H159.915C159.755 165.03 159.499 164.689 159.147 164.444C158.795 164.198 158.352 164.076 157.819 164.076C157.072 164.076 156.475 164.342 156.027 164.876C155.589 165.398 155.371 166.134 155.371 167.084C155.371 168.033 155.589 168.774 156.027 169.308C156.475 169.841 157.072 170.108 157.819 170.108C158.875 170.108 159.573 169.644 159.915 168.716H161.883C161.627 169.612 161.147 170.326 160.443 170.86C159.739 171.382 158.864 171.644 157.819 171.644C156.976 171.644 156.229 171.457 155.579 171.084C154.928 170.7 154.416 170.166 154.043 169.484C153.68 168.79 153.499 167.99 153.499 167.084ZM163.092 167.052C163.092 166.166 163.274 165.382 163.636 164.7C164.01 164.017 164.511 163.489 165.14 163.116C165.78 162.732 166.484 162.54 167.252 162.54C167.946 162.54 168.548 162.678 169.06 162.956C169.583 163.222 169.999 163.558 170.308 163.964V162.684H172.148V171.5H170.308V170.188C169.999 170.604 169.578 170.95 169.044 171.228C168.511 171.505 167.903 171.644 167.22 171.644C166.463 171.644 165.77 171.452 165.14 171.068C164.511 170.673 164.01 170.129 163.636 169.436C163.274 168.732 163.092 167.937 163.092 167.052ZM170.308 167.084C170.308 166.476 170.18 165.948 169.924 165.5C169.679 165.052 169.354 164.71 168.948 164.476C168.543 164.241 168.106 164.124 167.636 164.124C167.167 164.124 166.73 164.241 166.324 164.476C165.919 164.7 165.588 165.036 165.332 165.484C165.087 165.921 164.964 166.444 164.964 167.052C164.964 167.66 165.087 168.193 165.332 168.652C165.588 169.11 165.919 169.462 166.324 169.708C166.74 169.942 167.178 170.06 167.636 170.06C168.106 170.06 168.543 169.942 168.948 169.708C169.354 169.473 169.679 169.132 169.924 168.684C170.18 168.225 170.308 167.692 170.308 167.084ZM176.672 164.172V169.052C176.672 169.382 176.747 169.622 176.896 169.772C177.056 169.91 177.323 169.98 177.696 169.98H178.816V171.5H177.376C176.555 171.5 175.925 171.308 175.488 170.924C175.051 170.54 174.832 169.916 174.832 169.052V164.172H173.792V162.684H174.832V160.492H176.672V162.684H178.816V164.172H176.672ZM181.425 161.516C181.094 161.516 180.817 161.404 180.593 161.18C180.369 160.956 180.257 160.678 180.257 160.348C180.257 160.017 180.369 159.74 180.593 159.516C180.817 159.292 181.094 159.18 181.425 159.18C181.745 159.18 182.017 159.292 182.241 159.516C182.465 159.74 182.577 160.017 182.577 160.348C182.577 160.678 182.465 160.956 182.241 161.18C182.017 161.404 181.745 161.516 181.425 161.516ZM182.321 162.684V171.5H180.497V162.684H182.321ZM188.54 171.644C187.708 171.644 186.956 171.457 186.284 171.084C185.612 170.7 185.084 170.166 184.7 169.484C184.316 168.79 184.124 167.99 184.124 167.084C184.124 166.188 184.321 165.393 184.716 164.7C185.111 164.006 185.649 163.473 186.332 163.1C187.015 162.726 187.777 162.54 188.62 162.54C189.463 162.54 190.225 162.726 190.908 163.1C191.591 163.473 192.129 164.006 192.524 164.7C192.919 165.393 193.116 166.188 193.116 167.084C193.116 167.98 192.913 168.774 192.508 169.468C192.103 170.161 191.548 170.7 190.844 171.084C190.151 171.457 189.383 171.644 188.54 171.644ZM188.54 170.06C189.009 170.06 189.447 169.948 189.852 169.724C190.268 169.5 190.604 169.164 190.86 168.716C191.116 168.268 191.244 167.724 191.244 167.084C191.244 166.444 191.121 165.905 190.876 165.468C190.631 165.02 190.305 164.684 189.9 164.46C189.495 164.236 189.057 164.124 188.588 164.124C188.119 164.124 187.681 164.236 187.276 164.46C186.881 164.684 186.567 165.02 186.332 165.468C186.097 165.905 185.98 166.444 185.98 167.084C185.98 168.033 186.22 168.769 186.7 169.292C187.191 169.804 187.804 170.06 188.54 170.06ZM199.367 162.54C200.06 162.54 200.679 162.684 201.223 162.972C201.778 163.26 202.21 163.686 202.519 164.252C202.828 164.817 202.983 165.5 202.983 166.3V171.5H201.175V166.572C201.175 165.782 200.978 165.18 200.583 164.764C200.188 164.337 199.65 164.124 198.967 164.124C198.284 164.124 197.74 164.337 197.335 164.764C196.94 165.18 196.743 165.782 196.743 166.572V171.5H194.919V162.684H196.743V163.692C197.042 163.329 197.42 163.046 197.879 162.844C198.348 162.641 198.844 162.54 199.367 162.54ZM213.098 160.38C214.282 160.38 215.317 160.609 216.202 161.068C217.098 161.516 217.786 162.166 218.266 163.02C218.757 163.862 219.002 164.849 219.002 165.98C219.002 167.11 218.757 168.092 218.266 168.924C217.786 169.756 217.098 170.396 216.202 170.844C215.317 171.281 214.282 171.5 213.098 171.5H209.466V160.38H213.098ZM213.098 170.012C214.399 170.012 215.397 169.66 216.09 168.956C216.783 168.252 217.13 167.26 217.13 165.98C217.13 164.689 216.783 163.681 216.09 162.956C215.397 162.23 214.399 161.868 213.098 161.868H211.29V170.012H213.098ZM228.89 166.876C228.89 167.206 228.868 167.505 228.826 167.772H222.09C222.143 168.476 222.404 169.041 222.874 169.468C223.343 169.894 223.919 170.108 224.602 170.108C225.583 170.108 226.276 169.697 226.682 168.876H228.65C228.383 169.686 227.898 170.353 227.194 170.876C226.5 171.388 225.636 171.644 224.602 171.644C223.759 171.644 223.002 171.457 222.33 171.084C221.668 170.7 221.146 170.166 220.762 169.484C220.388 168.79 220.202 167.99 220.202 167.084C220.202 166.177 220.383 165.382 220.746 164.7C221.119 164.006 221.636 163.473 222.298 163.1C222.97 162.726 223.738 162.54 224.602 162.54C225.434 162.54 226.175 162.721 226.826 163.084C227.476 163.446 227.983 163.958 228.346 164.62C228.708 165.27 228.89 166.022 228.89 166.876ZM226.986 166.3C226.975 165.628 226.735 165.089 226.266 164.684C225.796 164.278 225.215 164.076 224.522 164.076C223.892 164.076 223.354 164.278 222.906 164.684C222.458 165.078 222.191 165.617 222.106 166.3H226.986ZM233.885 171.644C233.191 171.644 232.567 171.521 232.013 171.276C231.469 171.02 231.037 170.678 230.717 170.252C230.397 169.814 230.226 169.329 230.205 168.796H232.093C232.125 169.169 232.301 169.484 232.621 169.74C232.951 169.985 233.362 170.108 233.853 170.108C234.365 170.108 234.759 170.012 235.037 169.82C235.325 169.617 235.469 169.361 235.469 169.052C235.469 168.721 235.309 168.476 234.989 168.316C234.679 168.156 234.183 167.98 233.501 167.788C232.839 167.606 232.301 167.43 231.885 167.26C231.469 167.089 231.106 166.828 230.797 166.476C230.498 166.124 230.349 165.66 230.349 165.084C230.349 164.614 230.487 164.188 230.765 163.804C231.042 163.409 231.437 163.1 231.949 162.876C232.471 162.652 233.069 162.54 233.741 162.54C234.743 162.54 235.549 162.796 236.157 163.308C236.775 163.809 237.106 164.497 237.149 165.372H235.325C235.293 164.977 235.133 164.662 234.845 164.428C234.557 164.193 234.167 164.076 233.677 164.076C233.197 164.076 232.829 164.166 232.573 164.348C232.317 164.529 232.189 164.769 232.189 165.068C232.189 165.302 232.274 165.5 232.445 165.66C232.615 165.82 232.823 165.948 233.069 166.044C233.314 166.129 233.677 166.241 234.157 166.38C234.797 166.55 235.319 166.726 235.725 166.908C236.141 167.078 236.498 167.334 236.797 167.676C237.095 168.017 237.25 168.47 237.261 169.036C237.261 169.537 237.122 169.985 236.845 170.38C236.567 170.774 236.173 171.084 235.661 171.308C235.159 171.532 234.567 171.644 233.885 171.644ZM240.16 161.516C239.829 161.516 239.552 161.404 239.328 161.18C239.104 160.956 238.992 160.678 238.992 160.348C238.992 160.017 239.104 159.74 239.328 159.516C239.552 159.292 239.829 159.18 240.16 159.18C240.48 159.18 240.752 159.292 240.976 159.516C241.2 159.74 241.312 160.017 241.312 160.348C241.312 160.678 241.2 160.956 240.976 161.18C240.752 161.404 240.48 161.516 240.16 161.516ZM241.056 162.684V171.5H239.232V162.684H241.056ZM247.002 162.54C247.685 162.54 248.288 162.678 248.81 162.956C249.344 163.222 249.76 163.558 250.058 163.964V162.684H251.898V171.644C251.898 172.454 251.728 173.174 251.386 173.804C251.045 174.444 250.549 174.945 249.898 175.308C249.258 175.67 248.49 175.852 247.594 175.852C246.4 175.852 245.408 175.569 244.618 175.004C243.829 174.449 243.381 173.692 243.274 172.732H245.082C245.221 173.19 245.514 173.558 245.962 173.836C246.421 174.124 246.965 174.268 247.594 174.268C248.33 174.268 248.922 174.044 249.37 173.596C249.829 173.148 250.058 172.497 250.058 171.644V170.172C249.749 170.588 249.328 170.94 248.794 171.228C248.272 171.505 247.674 171.644 247.002 171.644C246.234 171.644 245.53 171.452 244.89 171.068C244.261 170.673 243.76 170.129 243.386 169.436C243.024 168.732 242.842 167.937 242.842 167.052C242.842 166.166 243.024 165.382 243.386 164.7C243.76 164.017 244.261 163.489 244.89 163.116C245.53 162.732 246.234 162.54 247.002 162.54ZM250.058 167.084C250.058 166.476 249.93 165.948 249.674 165.5C249.429 165.052 249.104 164.71 248.698 164.476C248.293 164.241 247.856 164.124 247.386 164.124C246.917 164.124 246.48 164.241 246.074 164.476C245.669 164.7 245.338 165.036 245.082 165.484C244.837 165.921 244.714 166.444 244.714 167.052C244.714 167.66 244.837 168.193 245.082 168.652C245.338 169.11 245.669 169.462 246.074 169.708C246.49 169.942 246.928 170.06 247.386 170.06C247.856 170.06 248.293 169.942 248.698 169.708C249.104 169.473 249.429 169.132 249.674 168.684C249.93 168.225 250.058 167.692 250.058 167.084ZM258.742 162.54C259.435 162.54 260.054 162.684 260.598 162.972C261.153 163.26 261.585 163.686 261.894 164.252C262.203 164.817 262.358 165.5 262.358 166.3V171.5H260.55V166.572C260.55 165.782 260.353 165.18 259.958 164.764C259.563 164.337 259.025 164.124 258.342 164.124C257.659 164.124 257.115 164.337 256.71 164.764C256.315 165.18 256.118 165.782 256.118 166.572V171.5H254.294V162.684H256.118V163.692C256.417 163.329 256.795 163.046 257.254 162.844C257.723 162.641 258.219 162.54 258.742 162.54Z" fill="#909090"/>
<path d="M316 180C343.614 180 366 157.614 366 130C366 102.386 343.614 80 316 80C288.386 80 266 102.386 266 130C266 157.614 288.386 180 316 180Z" fill="#292B34"/>
<mask id="mask0_350_196" style="mask-type:luminance" maskUnits="userSpaceOnUse" x="291" y="105" width="50" height="50">
<path d="M341 105H291V155H341V105Z" fill="white"/>
</mask>
<g mask="url(#mask0_350_196)">
<path d="M299.869 110.899C310.179 101.886 325.747 103.478 334.76 113.788C343.773 124.098 342.976 139.401 332.666 148.415C322.356 157.428 306.497 156.686 297.483 146.376C288.47 136.066 289.559 119.913 299.869 110.899Z" fill="#FF8EC8"/>
<path d="M301.518 113.724C311.275 105.194 325.817 106.48 334.118 115.975C342.418 125.47 341.48 139.743 331.722 148.274C321.965 156.804 307.139 156.312 298.838 146.818C290.537 137.323 291.76 122.254 301.518 113.724Z" fill="#FFADD7"/>
<path d="M314.831 118.826C313.081 122.465 308.676 123.84 305.036 122.09C301.396 120.34 299.837 116.098 301.587 112.458C303.337 108.818 307.723 107.18 311.363 108.93C315.003 110.68 316.581 115.186 314.831 118.826Z" fill="#DF9DBF"/>
<path opacity="0.06" d="M303.509 114.544C305.259 110.905 309.645 109.266 313.285 111.016C313.688 111.21 314.066 111.438 314.417 111.694C313.7 110.531 312.664 109.555 311.364 108.93C307.724 107.18 303.338 108.818 301.588 112.458C300.044 115.668 301.075 119.346 303.837 121.371C302.618 119.373 302.406 116.839 303.509 114.544Z" fill="#040000"/>
<path d="M312.204 126.333C312.09 125.773 312.469 125.242 313.029 125.127C313.588 125.013 314.127 125.358 314.241 125.918C314.355 126.478 314.001 127.037 313.441 127.152C312.882 127.266 312.318 126.893 312.204 126.333Z" fill="#DF9DBF"/>
<path opacity="0.5" d="M326.465 114.475C326.351 113.916 326.73 113.384 327.289 113.27C327.849 113.155 328.388 113.5 328.502 114.06C328.616 114.62 328.262 115.18 327.702 115.294C327.143 115.408 326.579 115.035 326.465 114.475Z" fill="white"/>
<path d="M318.613 143.915C319.462 143.173 320.743 143.304 321.485 144.152C322.227 145.001 322.161 146.261 321.313 147.003C320.464 147.745 319.158 147.684 318.416 146.835C317.674 145.986 317.764 144.657 318.613 143.915Z" fill="#DF9DBF"/>
<path opacity="0.5" d="M296.696 126.587C296.582 126.027 296.961 125.496 297.52 125.381C298.08 125.267 298.619 125.612 298.733 126.172C298.847 126.731 298.493 127.291 297.933 127.406C297.374 127.52 296.811 127.147 296.696 126.587Z" fill="white"/>
<path d="M336.797 132.519C336.433 136.098 333.159 138.583 329.579 138.219C326 137.855 323.41 134.774 323.773 131.195C324.137 127.616 327.316 124.915 330.895 125.279C334.474 125.642 337.161 128.939 336.797 132.519Z" fill="#DF9DBF"/>
<path d="M307.918 137.347C309.347 139.82 308.394 142.942 305.92 144.371C303.447 145.8 300.347 145.019 298.918 142.546C297.489 140.072 298.281 136.857 300.754 135.428C303.227 133.999 306.489 134.873 307.918 137.347Z" fill="#DF9DBF"/>
<path opacity="0.06" d="M302.018 136.681C303.821 135.64 306.042 135.823 307.668 136.957C306.135 134.785 303.093 134.076 300.754 135.427C298.281 136.856 297.489 140.072 298.918 142.545C299.313 143.228 299.835 143.781 300.436 144.195C300.346 144.068 300.261 143.937 300.182 143.8C298.753 141.326 299.545 138.11 302.018 136.681Z" fill="#040000"/>
<path opacity="0.06" d="M325.151 132.557C325.515 128.978 328.694 126.277 332.273 126.641C333.466 126.762 334.56 127.209 335.474 127.884C334.399 126.465 332.77 125.469 330.895 125.279C327.316 124.915 324.137 127.616 323.773 131.195C323.533 133.563 324.586 135.713 326.362 137.002C325.452 135.776 324.982 134.22 325.151 132.557Z" fill="#040000"/>
<path opacity="0.1" d="M315.885 142.285C305.596 142.285 296.507 137.2 291.009 129.428C290.745 139.166 296.434 148.406 306.042 152.548C318.618 157.968 333.352 152.697 338.773 140.122C340.264 136.663 340.888 133.017 340.754 129.436C335.255 137.204 326.17 142.285 315.885 142.285Z" fill="#040000"/>
</g>
</g>
<defs>
<clipPath id="clip0_350_196">
<rect width="400" height="240" fill="white" transform="translate(10 10)"/>
</clipPath>
</defs>
</svg>
