<svg width="420" height="260" viewBox="0 0 420 260" fill="none" xmlns="http://www.w3.org/2000/svg">
<rect width="420" height="260" rx="10" fill="#181C14"/>
<g clip-path="url(#clip0_350_195)">
<path d="M404 10H16C12.6863 10 10 12.6863 10 16V244C10 247.314 12.6863 250 16 250H404C407.314 250 410 247.314 410 244V16C410 12.6863 407.314 10 404 10Z" fill="white"/>
<path d="M127.5 79H67C59.8203 79 54 84.8203 54 92C54 99.1797 59.8203 105 67 105H127.5C134.68 105 140.5 99.1797 140.5 92C140.5 84.8203 134.68 79 127.5 79Z" fill="#333333"/>
<path d="M77.018 92.114C77.018 91.162 77.2375 90.308 77.676 89.552C78.124 88.796 78.726 88.208 79.482 87.788C80.2475 87.3585 81.0825 87.144 81.988 87.144C83.024 87.144 83.9435 87.4005 84.746 87.914C85.558 88.418 86.146 89.1365 86.51 90.07H84.592C84.34 89.5565 83.99 89.174 83.542 88.922C83.094 88.67 82.576 88.544 81.988 88.544C81.344 88.544 80.77 88.6885 80.266 88.978C79.762 89.2675 79.3655 89.6825 79.076 90.224C78.796 90.7655 78.656 91.3955 78.656 92.114C78.656 92.8325 78.796 93.4625 79.076 94.004C79.3655 94.5455 79.762 94.9655 80.266 95.264C80.77 95.5535 81.344 95.698 81.988 95.698C82.576 95.698 83.094 95.572 83.542 95.32C83.99 95.068 84.34 94.6855 84.592 94.172H86.51C86.146 95.1055 85.558 95.824 84.746 96.328C83.9435 96.832 83.024 97.084 81.988 97.084C81.0735 97.084 80.238 96.874 79.482 96.454C78.726 96.0245 78.124 95.432 77.676 94.676C77.2375 93.92 77.018 93.066 77.018 92.114ZM89.974 86.64V97H88.378V86.64H89.974ZM92.8815 88.264C92.592 88.264 92.3495 88.166 92.1535 87.97C91.9575 87.774 91.8595 87.5315 91.8595 87.242C91.8595 86.9525 91.9575 86.71 92.1535 86.514C92.3495 86.318 92.592 86.22 92.8815 86.22C93.1615 86.22 93.3995 86.318 93.5955 86.514C93.7915 86.71 93.8895 86.9525 93.8895 87.242C93.8895 87.5315 93.7915 87.774 93.5955 87.97C93.3995 88.166 93.1615 88.264 92.8815 88.264ZM93.6655 89.286V97H92.0695V89.286H93.6655ZM102.831 92.954C102.831 93.2435 102.813 93.5045 102.775 93.738H96.881C96.9275 94.354 97.1565 94.8485 97.567 95.222C97.9775 95.5955 98.4815 95.782 99.079 95.782C99.9375 95.782 100.545 95.4225 100.899 94.704H102.621C102.388 95.4135 101.963 95.9965 101.347 96.454C100.741 96.902 99.9845 97.126 99.079 97.126C98.3415 97.126 97.679 96.9625 97.091 96.636C96.5125 96.3 96.055 95.8335 95.719 95.236C95.3925 94.6295 95.229 93.9295 95.229 93.136C95.229 92.3425 95.3875 91.6475 95.705 91.05C96.0315 90.4435 96.4845 89.9765 97.063 89.65C97.651 89.3235 98.323 89.16 99.079 89.16C99.807 89.16 100.456 89.3185 101.025 89.636C101.595 89.9535 102.038 90.4015 102.355 90.98C102.673 91.5495 102.831 92.2075 102.831 92.954ZM101.165 92.45C101.156 91.862 100.946 91.3905 100.535 91.036C100.125 90.6815 99.6155 90.504 99.009 90.504C98.4585 90.504 97.987 90.6815 97.595 91.036C97.203 91.3815 96.9695 91.8525 96.895 92.45H101.165ZM108.294 89.16C108.9 89.16 109.442 89.286 109.918 89.538C110.403 89.79 110.781 90.1635 111.052 90.658C111.322 91.1525 111.458 91.75 111.458 92.45V97H109.876V92.688C109.876 91.9975 109.703 91.47 109.358 91.106C109.012 90.7325 108.541 90.546 107.944 90.546C107.346 90.546 106.87 90.7325 106.516 91.106C106.17 91.47 105.998 91.9975 105.998 92.688V97H104.402V89.286H105.998V90.168C106.259 89.8505 106.59 89.6035 106.992 89.426C107.402 89.2485 107.836 89.16 108.294 89.16ZM115.356 90.588V94.858C115.356 95.1475 115.421 95.3575 115.552 95.488C115.692 95.6095 115.925 95.67 116.252 95.67H117.232V97H115.972C115.253 97 114.702 96.832 114.32 96.496C113.937 96.16 113.746 95.614 113.746 94.858V90.588H112.836V89.286H113.746V87.368H115.356V89.286H117.232V90.588H115.356Z" fill="#F5F5F5"/>
<path d="M62.816 140.203C61.4625 140.203 60.2445 139.971 59.162 139.507C58.0794 139.023 57.2287 138.347 56.61 137.477C55.9914 136.607 55.682 135.592 55.682 134.432H59.22C59.2974 135.302 59.6357 136.017 60.235 136.578C60.8535 137.138 61.714 137.419 62.816 137.419C63.9565 137.419 64.846 137.148 65.484 136.607C66.122 136.046 66.441 135.331 66.441 134.461C66.441 133.784 66.238 133.233 65.832 132.808C65.4455 132.382 64.9525 132.054 64.353 131.822C63.773 131.59 62.961 131.338 61.917 131.068C60.6025 130.72 59.5294 130.372 58.698 130.024C57.886 129.656 57.19 129.096 56.61 128.342C56.03 127.588 55.74 126.582 55.74 125.326C55.74 124.166 56.03 123.151 56.61 122.281C57.19 121.411 58.002 120.744 59.046 120.28C60.09 119.816 61.2985 119.584 62.671 119.584C64.6235 119.584 66.2185 120.077 67.456 121.063C68.7125 122.029 69.4085 123.363 69.544 125.065H65.89C65.832 124.33 65.484 123.702 64.846 123.18C64.208 122.658 63.367 122.397 62.323 122.397C61.3755 122.397 60.6025 122.638 60.003 123.122C59.4037 123.605 59.104 124.301 59.104 125.21C59.104 125.828 59.2877 126.341 59.655 126.747C60.0415 127.133 60.525 127.443 61.105 127.675C61.685 127.907 62.4775 128.158 63.483 128.429C64.817 128.796 65.8995 129.163 66.731 129.531C67.5815 129.898 68.297 130.468 68.877 131.242C69.4765 131.996 69.776 133.011 69.776 134.287C69.776 135.311 69.4955 136.278 68.935 137.187C68.3935 138.095 67.5915 138.83 66.528 139.391C65.484 139.932 64.2465 140.203 62.816 140.203ZM76.983 119.845V140H73.677V119.845H76.983ZM102.552 119.845V140H99.2455V126.196L93.0975 140H90.8065L84.6295 126.196V140H81.3235V119.845H84.8905L91.9665 135.65L99.0135 119.845H102.552ZM110.203 119.845V140H106.897V119.845H110.203ZM121.184 140.203C119.831 140.203 118.613 139.971 117.53 139.507C116.448 139.023 115.597 138.347 114.978 137.477C114.36 136.607 114.05 135.592 114.05 134.432H117.588C117.666 135.302 118.004 136.017 118.603 136.578C119.222 137.138 120.082 137.419 121.184 137.419C122.325 137.419 123.214 137.148 123.852 136.607C124.49 136.046 124.809 135.331 124.809 134.461C124.809 133.784 124.606 133.233 124.2 132.808C123.814 132.382 123.321 132.054 122.721 131.822C122.141 131.59 121.329 131.338 120.285 131.068C118.971 130.72 117.898 130.372 117.066 130.024C116.254 129.656 115.558 129.096 114.978 128.342C114.398 127.588 114.108 126.582 114.108 125.326C114.108 124.166 114.398 123.151 114.978 122.281C115.558 121.411 116.37 120.744 117.414 120.28C118.458 119.816 119.667 119.584 121.039 119.584C122.992 119.584 124.587 120.077 125.824 121.063C127.081 122.029 127.777 123.363 127.912 125.065H124.258C124.2 124.33 123.852 123.702 123.214 123.18C122.576 122.658 121.735 122.397 120.691 122.397C119.744 122.397 118.971 122.638 118.371 123.122C117.772 123.605 117.472 124.301 117.472 125.21C117.472 125.828 117.656 126.341 118.023 126.747C118.41 127.133 118.893 127.443 119.473 127.675C120.053 127.907 120.846 128.158 121.851 128.429C123.185 128.796 124.268 129.163 125.099 129.531C125.95 129.898 126.665 130.468 127.245 131.242C127.845 131.996 128.144 133.011 128.144 134.287C128.144 135.311 127.864 136.278 127.303 137.187C126.762 138.095 125.96 138.83 124.896 139.391C123.852 139.932 122.615 140.203 121.184 140.203Z" fill="#333333"/>
<path d="M69.68 160.38L66.384 171.5H64.32L61.984 163.084L59.504 171.5L57.456 171.516L54.304 160.38H56.24L58.544 169.436L61.04 160.38H63.088L65.408 169.388L67.728 160.38H69.68ZM79.2645 166.876C79.2645 167.206 79.243 167.505 79.2005 167.772H72.4645C72.5175 168.476 72.779 169.041 73.2485 169.468C73.7175 169.894 74.2935 170.108 74.9765 170.108C75.9575 170.108 76.651 169.697 77.0565 168.876H79.0245C78.7575 169.686 78.2725 170.353 77.5685 170.876C76.875 171.388 76.011 171.644 74.9765 171.644C74.1335 171.644 73.3765 171.457 72.7045 171.084C72.043 170.7 71.5205 170.166 71.1365 169.484C70.763 168.79 70.5765 167.99 70.5765 167.084C70.5765 166.177 70.7575 165.382 71.1205 164.7C71.4935 164.006 72.011 163.473 72.6725 163.1C73.3445 162.726 74.1125 162.54 74.9765 162.54C75.8085 162.54 76.5495 162.721 77.2005 163.084C77.851 163.446 78.3575 163.958 78.7205 164.62C79.083 165.27 79.2645 166.022 79.2645 166.876ZM77.3605 166.3C77.3495 165.628 77.1095 165.089 76.6405 164.684C76.171 164.278 75.5895 164.076 74.8965 164.076C74.267 164.076 73.7285 164.278 73.2805 164.684C72.8325 165.078 72.5655 165.617 72.4805 166.3H77.3605ZM82.8835 163.996C83.1925 163.569 83.614 163.222 84.1475 162.956C84.6915 162.678 85.294 162.54 85.9555 162.54C86.734 162.54 87.438 162.726 88.0675 163.1C88.6965 163.473 89.1925 164.006 89.5555 164.7C89.918 165.382 90.0995 166.166 90.0995 167.052C90.0995 167.937 89.918 168.732 89.5555 169.436C89.1925 170.129 88.6915 170.673 88.0515 171.068C87.422 171.452 86.7235 171.644 85.9555 171.644C85.2725 171.644 84.6645 171.51 84.1315 171.244C83.6085 170.977 83.1925 170.636 82.8835 170.22V171.5H81.0595V159.66H82.8835V163.996ZM88.2435 167.052C88.2435 166.444 88.1155 165.921 87.8595 165.484C87.614 165.036 87.2835 164.7 86.8675 164.476C86.462 164.241 86.0245 164.124 85.5555 164.124C85.0965 164.124 84.6595 164.241 84.2435 164.476C83.838 164.71 83.5075 165.052 83.2515 165.5C83.006 165.948 82.8835 166.476 82.8835 167.084C82.8835 167.692 83.006 168.225 83.2515 168.684C83.5075 169.132 83.838 169.473 84.2435 169.708C84.6595 169.942 85.0965 170.06 85.5555 170.06C86.0245 170.06 86.462 169.942 86.8675 169.708C87.2835 169.462 87.614 169.11 87.8595 168.652C88.1155 168.193 88.2435 167.66 88.2435 167.052ZM102.764 169.228H98.1075L97.3075 171.5H95.4035L99.3875 160.364H101.5L105.484 171.5H103.564L102.764 169.228ZM102.252 167.74L100.444 162.572L98.6195 167.74H102.252ZM109.04 163.98C109.349 163.574 109.771 163.233 110.304 162.956C110.837 162.678 111.44 162.54 112.112 162.54C112.88 162.54 113.579 162.732 114.208 163.116C114.848 163.489 115.349 164.017 115.712 164.7C116.075 165.382 116.256 166.166 116.256 167.052C116.256 167.937 116.075 168.732 115.712 169.436C115.349 170.129 114.848 170.673 114.208 171.068C113.579 171.452 112.88 171.644 112.112 171.644C111.44 171.644 110.843 171.51 110.32 171.244C109.797 170.966 109.371 170.625 109.04 170.22V175.692H107.216V162.684H109.04V163.98ZM114.4 167.052C114.4 166.444 114.272 165.921 114.016 165.484C113.771 165.036 113.44 164.7 113.024 164.476C112.619 164.241 112.181 164.124 111.712 164.124C111.253 164.124 110.816 164.241 110.4 164.476C109.995 164.71 109.664 165.052 109.408 165.5C109.163 165.948 109.04 166.476 109.04 167.084C109.04 167.692 109.163 168.225 109.408 168.684C109.664 169.132 109.995 169.473 110.4 169.708C110.816 169.942 111.253 170.06 111.712 170.06C112.181 170.06 112.619 169.942 113.024 169.708C113.44 169.462 113.771 169.11 114.016 168.652C114.272 168.193 114.4 167.66 114.4 167.052ZM119.884 163.98C120.193 163.574 120.614 163.233 121.148 162.956C121.681 162.678 122.284 162.54 122.956 162.54C123.724 162.54 124.422 162.732 125.052 163.116C125.692 163.489 126.193 164.017 126.556 164.7C126.918 165.382 127.1 166.166 127.1 167.052C127.1 167.937 126.918 168.732 126.556 169.436C126.193 170.129 125.692 170.673 125.052 171.068C124.422 171.452 123.724 171.644 122.956 171.644C122.284 171.644 121.686 171.51 121.164 171.244C120.641 170.966 120.214 170.625 119.884 170.22V175.692H118.06V162.684H119.884V163.98ZM125.244 167.052C125.244 166.444 125.116 165.921 124.86 165.484C124.614 165.036 124.284 164.7 123.868 164.476C123.462 164.241 123.025 164.124 122.556 164.124C122.097 164.124 121.66 164.241 121.244 164.476C120.838 164.71 120.508 165.052 120.252 165.5C120.006 165.948 119.884 166.476 119.884 167.084C119.884 167.692 120.006 168.225 120.252 168.684C120.508 169.132 120.838 169.473 121.244 169.708C121.66 169.942 122.097 170.06 122.556 170.06C123.025 170.06 123.462 169.942 123.868 169.708C124.284 169.462 124.614 169.11 124.86 168.652C125.116 168.193 125.244 167.66 125.244 167.052ZM130.727 159.66V171.5H128.903V159.66H130.727ZM134.05 161.516C133.719 161.516 133.442 161.404 133.218 161.18C132.994 160.956 132.882 160.678 132.882 160.348C132.882 160.017 132.994 159.74 133.218 159.516C133.442 159.292 133.719 159.18 134.05 159.18C134.37 159.18 134.642 159.292 134.866 159.516C135.09 159.74 135.202 160.017 135.202 160.348C135.202 160.678 135.09 160.956 134.866 161.18C134.642 161.404 134.37 161.516 134.05 161.516ZM134.946 162.684V171.5H133.122V162.684H134.946ZM136.733 167.084C136.733 166.177 136.914 165.382 137.277 164.7C137.65 164.006 138.162 163.473 138.813 163.1C139.464 162.726 140.21 162.54 141.053 162.54C142.12 162.54 143 162.796 143.693 163.308C144.397 163.809 144.872 164.529 145.117 165.468H143.149C142.989 165.03 142.733 164.689 142.381 164.444C142.029 164.198 141.586 164.076 141.053 164.076C140.306 164.076 139.709 164.342 139.261 164.876C138.824 165.398 138.605 166.134 138.605 167.084C138.605 168.033 138.824 168.774 139.261 169.308C139.709 169.841 140.306 170.108 141.053 170.108C142.109 170.108 142.808 169.644 143.149 168.716H145.117C144.861 169.612 144.381 170.326 143.677 170.86C142.973 171.382 142.098 171.644 141.053 171.644C140.21 171.644 139.464 171.457 138.813 171.084C138.162 170.7 137.65 170.166 137.277 169.484C136.914 168.79 136.733 167.99 136.733 167.084ZM146.327 167.052C146.327 166.166 146.508 165.382 146.871 164.7C147.244 164.017 147.745 163.489 148.375 163.116C149.015 162.732 149.719 162.54 150.487 162.54C151.18 162.54 151.783 162.678 152.295 162.956C152.817 163.222 153.233 163.558 153.543 163.964V162.684H155.383V171.5H153.543V170.188C153.233 170.604 152.812 170.95 152.279 171.228C151.745 171.505 151.137 171.644 150.455 171.644C149.697 171.644 149.004 171.452 148.375 171.068C147.745 170.673 147.244 170.129 146.871 169.436C146.508 168.732 146.327 167.937 146.327 167.052ZM153.543 167.084C153.543 166.476 153.415 165.948 153.159 165.5C152.913 165.052 152.588 164.71 152.183 164.476C151.777 164.241 151.34 164.124 150.871 164.124C150.401 164.124 149.964 164.241 149.559 164.476C149.153 164.7 148.823 165.036 148.567 165.484C148.321 165.921 148.199 166.444 148.199 167.052C148.199 167.66 148.321 168.193 148.567 168.652C148.823 169.11 149.153 169.462 149.559 169.708C149.975 169.942 150.412 170.06 150.871 170.06C151.34 170.06 151.777 169.942 152.183 169.708C152.588 169.473 152.913 169.132 153.159 168.684C153.415 168.225 153.543 167.692 153.543 167.084ZM159.906 164.172V169.052C159.906 169.382 159.981 169.622 160.13 169.772C160.29 169.91 160.557 169.98 160.93 169.98H162.05V171.5H160.61C159.789 171.5 159.16 171.308 158.722 170.924C158.285 170.54 158.066 169.916 158.066 169.052V164.172H157.026V162.684H158.066V160.492H159.906V162.684H162.05V164.172H159.906ZM164.66 161.516C164.329 161.516 164.052 161.404 163.828 161.18C163.604 160.956 163.492 160.678 163.492 160.348C163.492 160.017 163.604 159.74 163.828 159.516C164.052 159.292 164.329 159.18 164.66 159.18C164.98 159.18 165.252 159.292 165.476 159.516C165.7 159.74 165.812 160.017 165.812 160.348C165.812 160.678 165.7 160.956 165.476 161.18C165.252 161.404 164.98 161.516 164.66 161.516ZM165.556 162.684V171.5H163.732V162.684H165.556ZM171.774 171.644C170.942 171.644 170.19 171.457 169.518 171.084C168.846 170.7 168.318 170.166 167.934 169.484C167.55 168.79 167.358 167.99 167.358 167.084C167.358 166.188 167.556 165.393 167.95 164.7C168.345 164.006 168.884 163.473 169.566 163.1C170.249 162.726 171.012 162.54 171.854 162.54C172.697 162.54 173.46 162.726 174.142 163.1C174.825 163.473 175.364 164.006 175.758 164.7C176.153 165.393 176.35 166.188 176.35 167.084C176.35 167.98 176.148 168.774 175.742 169.468C175.337 170.161 174.782 170.7 174.078 171.084C173.385 171.457 172.617 171.644 171.774 171.644ZM171.774 170.06C172.244 170.06 172.681 169.948 173.086 169.724C173.502 169.5 173.838 169.164 174.094 168.716C174.35 168.268 174.478 167.724 174.478 167.084C174.478 166.444 174.356 165.905 174.11 165.468C173.865 165.02 173.54 164.684 173.134 164.46C172.729 164.236 172.292 164.124 171.822 164.124C171.353 164.124 170.916 164.236 170.51 164.46C170.116 164.684 169.801 165.02 169.566 165.468C169.332 165.905 169.214 166.444 169.214 167.084C169.214 168.033 169.454 168.769 169.934 169.292C170.425 169.804 171.038 170.06 171.774 170.06ZM182.601 162.54C183.295 162.54 183.913 162.684 184.457 162.972C185.012 163.26 185.444 163.686 185.753 164.252C186.063 164.817 186.217 165.5 186.217 166.3V171.5H184.409V166.572C184.409 165.782 184.212 165.18 183.817 164.764C183.423 164.337 182.884 164.124 182.201 164.124C181.519 164.124 180.975 164.337 180.569 164.764C180.175 165.18 179.977 165.782 179.977 166.572V171.5H178.153V162.684H179.977V163.692C180.276 163.329 180.655 163.046 181.113 162.844C181.583 162.641 182.079 162.54 182.601 162.54ZM196.332 160.38C197.516 160.38 198.551 160.609 199.436 161.068C200.332 161.516 201.02 162.166 201.5 163.02C201.991 163.862 202.236 164.849 202.236 165.98C202.236 167.11 201.991 168.092 201.5 168.924C201.02 169.756 200.332 170.396 199.436 170.844C198.551 171.281 197.516 171.5 196.332 171.5H192.7V160.38H196.332ZM196.332 170.012C197.634 170.012 198.631 169.66 199.324 168.956C200.018 168.252 200.364 167.26 200.364 165.98C200.364 164.689 200.018 163.681 199.324 162.956C198.631 162.23 197.634 161.868 196.332 161.868H194.524V170.012H196.332ZM212.124 166.876C212.124 167.206 212.103 167.505 212.06 167.772H205.324C205.377 168.476 205.639 169.041 206.108 169.468C206.577 169.894 207.153 170.108 207.836 170.108C208.817 170.108 209.511 169.697 209.916 168.876H211.884C211.617 169.686 211.132 170.353 210.428 170.876C209.735 171.388 208.871 171.644 207.836 171.644C206.993 171.644 206.236 171.457 205.564 171.084C204.903 170.7 204.38 170.166 203.996 169.484C203.623 168.79 203.436 167.99 203.436 167.084C203.436 166.177 203.617 165.382 203.98 164.7C204.353 164.006 204.871 163.473 205.532 163.1C206.204 162.726 206.972 162.54 207.836 162.54C208.668 162.54 209.409 162.721 210.06 163.084C210.711 163.446 211.217 163.958 211.58 164.62C211.943 165.27 212.124 166.022 212.124 166.876ZM210.22 166.3C210.209 165.628 209.969 165.089 209.5 164.684C209.031 164.278 208.449 164.076 207.756 164.076C207.127 164.076 206.588 164.278 206.14 164.684C205.692 165.078 205.425 165.617 205.34 166.3H210.22ZM217.119 171.644C216.426 171.644 215.802 171.521 215.247 171.276C214.703 171.02 214.271 170.678 213.951 170.252C213.631 169.814 213.46 169.329 213.439 168.796H215.327C215.359 169.169 215.535 169.484 215.855 169.74C216.186 169.985 216.596 170.108 217.087 170.108C217.599 170.108 217.994 170.012 218.271 169.82C218.559 169.617 218.703 169.361 218.703 169.052C218.703 168.721 218.543 168.476 218.223 168.316C217.914 168.156 217.418 167.98 216.735 167.788C216.074 167.606 215.535 167.43 215.119 167.26C214.703 167.089 214.34 166.828 214.031 166.476C213.732 166.124 213.583 165.66 213.583 165.084C213.583 164.614 213.722 164.188 213.999 163.804C214.276 163.409 214.671 163.1 215.183 162.876C215.706 162.652 216.303 162.54 216.975 162.54C217.978 162.54 218.783 162.796 219.391 163.308C220.01 163.809 220.34 164.497 220.383 165.372H218.559C218.527 164.977 218.367 164.662 218.079 164.428C217.791 164.193 217.402 164.076 216.911 164.076C216.431 164.076 216.063 164.166 215.807 164.348C215.551 164.529 215.423 164.769 215.423 165.068C215.423 165.302 215.508 165.5 215.679 165.66C215.85 165.82 216.058 165.948 216.303 166.044C216.548 166.129 216.911 166.241 217.391 166.38C218.031 166.55 218.554 166.726 218.959 166.908C219.375 167.078 219.732 167.334 220.031 167.676C220.33 168.017 220.484 168.47 220.495 169.036C220.495 169.537 220.356 169.985 220.079 170.38C219.802 170.774 219.407 171.084 218.895 171.308C218.394 171.532 217.802 171.644 217.119 171.644ZM223.394 161.516C223.063 161.516 222.786 161.404 222.562 161.18C222.338 160.956 222.226 160.678 222.226 160.348C222.226 160.017 222.338 159.74 222.562 159.516C222.786 159.292 223.063 159.18 223.394 159.18C223.714 159.18 223.986 159.292 224.21 159.516C224.434 159.74 224.546 160.017 224.546 160.348C224.546 160.678 224.434 160.956 224.21 161.18C223.986 161.404 223.714 161.516 223.394 161.516ZM224.29 162.684V171.5H222.466V162.684H224.29ZM230.237 162.54C230.919 162.54 231.522 162.678 232.045 162.956C232.578 163.222 232.994 163.558 233.293 163.964V162.684H235.133V171.644C235.133 172.454 234.962 173.174 234.621 173.804C234.279 174.444 233.783 174.945 233.133 175.308C232.493 175.67 231.725 175.852 230.829 175.852C229.634 175.852 228.642 175.569 227.853 175.004C227.063 174.449 226.615 173.692 226.509 172.732H228.317C228.455 173.19 228.749 173.558 229.197 173.836C229.655 174.124 230.199 174.268 230.829 174.268C231.565 174.268 232.157 174.044 232.605 173.596C233.063 173.148 233.293 172.497 233.293 171.644V170.172C232.983 170.588 232.562 170.94 232.029 171.228C231.506 171.505 230.909 171.644 230.237 171.644C229.469 171.644 228.765 171.452 228.125 171.068C227.495 170.673 226.994 170.129 226.621 169.436C226.258 168.732 226.077 167.937 226.077 167.052C226.077 166.166 226.258 165.382 226.621 164.7C226.994 164.017 227.495 163.489 228.125 163.116C228.765 162.732 229.469 162.54 230.237 162.54ZM233.293 167.084C233.293 166.476 233.165 165.948 232.909 165.5C232.663 165.052 232.338 164.71 231.933 164.476C231.527 164.241 231.09 164.124 230.621 164.124C230.151 164.124 229.714 164.241 229.309 164.476C228.903 164.7 228.573 165.036 228.317 165.484C228.071 165.921 227.949 166.444 227.949 167.052C227.949 167.66 228.071 168.193 228.317 168.652C228.573 169.11 228.903 169.462 229.309 169.708C229.725 169.942 230.162 170.06 230.621 170.06C231.09 170.06 231.527 169.942 231.933 169.708C232.338 169.473 232.663 169.132 232.909 168.684C233.165 168.225 233.293 167.692 233.293 167.084ZM241.976 162.54C242.67 162.54 243.288 162.684 243.832 162.972C244.387 163.26 244.819 163.686 245.128 164.252C245.438 164.817 245.592 165.5 245.592 166.3V171.5H243.784V166.572C243.784 165.782 243.587 165.18 243.192 164.764C242.798 164.337 242.259 164.124 241.576 164.124C240.894 164.124 240.35 164.337 239.944 164.764C239.55 165.18 239.352 165.782 239.352 166.572V171.5H237.528V162.684H239.352V163.692C239.651 163.329 240.03 163.046 240.488 162.844C240.958 162.641 241.454 162.54 241.976 162.54Z" fill="#909090"/>
<path d="M316 180C343.614 180 366 157.614 366 130C366 102.386 343.614 80 316 80C288.386 80 266 102.386 266 130C266 157.614 288.386 180 316 180Z" fill="#183B4E"/>
<path d="M316.077 125.202L311.534 129.746L316.078 134.288L316.077 130.178V125.202Z" fill="#DF6C21"/>
<path d="M316.079 125.202L320.621 129.746L316.077 134.288L316.079 130.178V125.202Z" fill="#FFC7A2"/>
<path fill-rule="evenodd" clip-rule="evenodd" d="M330.675 129.725L330.5 129.875L321.075 139.325L318.425 136.7L325.425 129.725L311.15 115.45V110.2L311.325 110.375L330.675 129.725Z" fill="#DF6C21"/>
<path fill-rule="evenodd" clip-rule="evenodd" d="M311.15 115.45L296.9 129.725L313.775 146.625L311.15 149.25L311 149.075L291.625 129.725L311.15 110.2V115.45Z" fill="#DF6C21"/>
<path fill-rule="evenodd" clip-rule="evenodd" d="M320.85 144V149.25L320.7 149.075L301.325 129.75L310.925 120.125L313.575 122.775L306.575 129.75L320.85 144Z" fill="#FFC7A2"/>
<path d="M320.85 144L335.1 129.75L318.225 112.85L320.85 110.2L321 110.375L340.375 129.75L340.2 129.9L320.85 149.25V144Z" fill="#FFC7A2"/>
</g>
<defs>
<clipPath id="clip0_350_195">
<rect width="400" height="240" fill="white" transform="translate(10 10)"/>
</clipPath>
</defs>
</svg>
