<svg width="15" height="11" viewBox="0 0 15 11" fill="none" xmlns="http://www.w3.org/2000/svg">
  <path d="M14.5869 5.91968C14.6662 5.71914 14.687 5.49847 14.6465 5.28558C14.606 5.0727 14.5062 4.87717 14.3596 4.72373L10.1688 0.33496C10.0722 0.230167 9.95658 0.146581 9.82876 0.0890777C9.70094 0.0315749 9.56346 0.00130739 9.42435 4.14268e-05C9.28524 -0.00122453 9.14728 0.0265361 9.01852 0.081704C8.88976 0.136872 8.77279 0.218342 8.67442 0.32136C8.57605 0.424379 8.49826 0.546883 8.44558 0.681724C8.3929 0.816565 8.36639 0.961043 8.3676 1.10673C8.36881 1.25241 8.39771 1.39639 8.45262 1.53025C8.50753 1.66411 8.58734 1.78518 8.68741 1.88639L11.0908 4.40335H1.04769C0.769822 4.40335 0.503339 4.51895 0.30686 4.72471C0.110381 4.93048 0 5.20955 0 5.50055C0 5.79154 0.110381 6.07062 0.30686 6.27638C0.503339 6.48214 0.769822 6.59774 1.04769 6.59774H11.0908L8.68845 9.11361C8.58839 9.21482 8.50857 9.33589 8.45367 9.46975C8.39876 9.60361 8.36985 9.74759 8.36865 9.89327C8.36744 10.039 8.39395 10.1834 8.44662 10.3183C8.4993 10.4531 8.5771 10.5756 8.67547 10.6786C8.77384 10.7817 8.89081 10.8631 9.01957 10.9183C9.14833 10.9735 9.28629 11.0012 9.4254 11C9.56451 10.9987 9.70198 10.9684 9.82981 10.9109C9.95763 10.8534 10.0732 10.7698 10.1699 10.665L14.3606 6.27626C14.4577 6.17412 14.5346 6.05295 14.5869 5.91968Z" fill="url(#paint0_linear_arrow_gradient)"/>
  <defs>
    <linearGradient id="paint0_linear_arrow_gradient" x1="0" y1="5.5" x2="15" y2="5.5" gradientUnits="userSpaceOnUse">
      <stop stop-color="#22d3ee" />
      <stop offset="1" stop-color="#3b82f6" />
    </linearGradient>
  </defs>
</svg>