<svg width="100" height="100" viewBox="0 0 100 100" fill="none" xmlns="http://www.w3.org/2000/svg">
<circle cx="50" cy="50" r="50" fill="#1A3636"/>
<g clip-path="url(#clip0_320_123)">
<path d="M71.3309 47.625C71.3309 48.5025 72.0434 49.213 72.9189 49.213C73.7964 49.213 74.5091 48.5025 74.5091 47.625C74.5091 46.7485 73.7964 46.0369 72.9189 46.0369C72.0434 46.0369 71.3309 46.7485 71.3309 47.625Z" fill="#40E4F1"/>
<path d="M66.8864 67.1215C66.1839 67.1215 65.6158 67.6905 65.6158 68.3929C65.6158 69.0944 66.1839 69.6623 66.8864 69.6623C67.5888 69.6623 68.1568 69.0943 68.1568 68.3929C68.1568 67.6905 67.5888 67.1215 66.8864 67.1215Z" fill="#40E4F1"/>
<path d="M64.8545 71.6769C63.4149 71.6769 62.2484 72.8436 62.2484 74.2829C62.2484 75.7213 63.415 76.8879 64.8545 76.8879C66.2939 76.8879 67.4605 75.7213 67.4605 74.2829C67.4606 72.8436 66.2939 71.6769 64.8545 71.6769Z" fill="#40E4F1"/>
<path d="M36.0841 74.9966C37.1714 74.9966 38.0529 74.1151 38.0529 73.0278C38.0529 71.9405 37.1714 71.0591 36.0841 71.0591C34.9968 71.0591 34.1154 71.9405 34.1154 73.0278C34.1154 74.1151 34.9968 74.9966 36.0841 74.9966Z" fill="#40E4F1"/>
<path d="M31.0654 65.0896C30.5055 65.0896 30.0495 65.5436 30.0495 66.1066C30.0495 66.6665 30.5056 67.1214 31.0654 67.1214C31.6275 67.1214 32.0814 66.6664 32.0814 66.1066C32.0813 65.5436 31.6273 65.0896 31.0654 65.0896Z" fill="#40E4F1"/>
<path d="M26.4295 40.7028C27.1666 40.7028 27.7631 40.1051 27.7631 39.3681C27.7631 38.6321 27.1666 38.0345 26.4295 38.0345C25.6925 38.0345 25.0959 38.6321 25.0959 39.3681C25.0959 40.1051 25.6925 40.7028 26.4295 40.7028Z" fill="#40E4F1"/>
<path d="M39.4496 34.4788C40.4309 34.4788 41.2269 33.6827 41.2269 32.6993C41.2269 31.719 40.4309 30.923 39.4496 30.923C38.4683 30.923 37.6721 31.7191 37.6721 32.6993C37.6721 33.6826 38.4683 34.4788 39.4496 34.4788Z" fill="#40E4F1"/>
<path d="M72.8252 58.2303C67.2487 56.2514 66.1493 57.0016 63.4251 54.42C62.7736 53.8042 62.7879 51.7844 66.4099 52.2608C68.2259 52.5001 69.4577 51.4984 69.4577 50.0692C69.4577 49.1163 68.3094 47.7919 66.5991 48.4495C64.1234 49.4024 62.517 48.3213 62.2177 47.1159C61.8369 45.592 62.2686 43.8544 68.6413 40.6711C76.4513 36.765 71.9721 29.6575 65.8377 36.3517C63.1196 39.316 61.8369 40.5428 60.027 41.4956C58.4023 42.3497 56.454 41.464 57.93 39.4953C58.5021 38.7328 59.4733 38.1445 59.7399 37.2089C60.1207 35.8753 58.9988 34.6364 58.0257 34.6364C57.0526 34.6364 55.835 35.2076 55.4543 36.6368C54.8822 39.257 53.4243 39.1259 52.7362 38.3694C51.4189 36.9259 51.8933 35.2421 52.1193 32.6361C52.3861 29.5751 54.198 22.5061 48.6378 23.0273C45.9566 23.2788 45.1645 25.8064 46.0318 30.3243C47.1109 35.9324 45.4781 39.8466 43.7353 40.6376C41.6402 41.5903 40.5775 41.2289 36.1147 38.1619C33.7428 36.5299 31.1244 37.9623 30.5891 39.8761C30.1167 41.5618 31.4483 43.5989 33.4476 44.2584C36.528 45.2754 37.8942 45.5115 39.3234 46.2893C40.72 47.0518 40.8951 48.9005 39.5005 50.573C38.1038 52.2466 34.496 50.8622 29.1617 50.4813C19.9408 49.8238 22.0134 60.0239 30.6847 57.024C35.6382 55.3087 37.7332 55.6894 38.5924 56.738C39.7774 58.1845 38.9629 60.14 36.6541 61.5327C29.2879 65.9793 37.5459 71.5028 40.5937 65.343C41.8682 62.7695 43.3341 61.9786 44.7839 62.5486C45.9668 63.0149 47.4815 67.1428 45.7693 72.7111C44.2443 77.6648 44.3482 83 47.9293 83C51.2765 83 51.7998 78.015 51.2298 72.585C51.0179 70.5531 51.1747 67.4045 52.7546 66.6145C54.0252 65.9793 56.0102 65.2718 57.3581 68.0743C58.5979 70.6467 61.2651 70.2649 62.3136 68.8368C63.0791 67.7913 63.468 65.4723 60.4202 64.2701C56.788 62.8346 58.1216 58.9287 60.8844 59.3103C63.9343 59.7308 66.0252 60.8537 69.6493 63.9473C74.7065 68.2617 81.1993 61.2019 72.8252 58.2303Z" fill="#40E4F1"/>
</g>
<defs>
<clipPath id="clip0_320_123">
<rect width="60" height="60" fill="white" transform="translate(20 23)"/>
</clipPath>
</defs>
</svg>
