<svg width="420" height="260" viewBox="0 0 420 260" fill="none" xmlns="http://www.w3.org/2000/svg">
<rect width="420" height="260" rx="10" fill="#181C14"/>
<g clip-path="url(#clip0_350_201)">
<path d="M404 10H16C12.6863 10 10 12.6863 10 16V244C10 247.314 12.6863 250 16 250H404C407.314 250 410 247.314 410 244V16C410 12.6863 407.314 10 404 10Z" fill="white"/>
<path d="M127.5 79H67C59.8203 79 54 84.8203 54 92C54 99.1797 59.8203 105 67 105H127.5C134.68 105 140.5 99.1797 140.5 92C140.5 84.8203 134.68 79 127.5 79Z" fill="#333333"/>
<path d="M77.0179 92.114C77.0179 91.162 77.2374 90.308 77.6759 89.552C78.1239 88.796 78.7259 88.208 79.4819 87.788C80.2474 87.3585 81.0824 87.144 81.9879 87.144C83.0239 87.144 83.9434 87.4005 84.7459 87.914C85.5579 88.418 86.1459 89.1365 86.5099 90.07H84.5919C84.3399 89.5565 83.9899 89.174 83.5419 88.922C83.0939 88.67 82.5759 88.544 81.9879 88.544C81.3439 88.544 80.7699 88.6885 80.2659 88.978C79.7619 89.2675 79.3654 89.6825 79.0759 90.224C78.7959 90.7655 78.6559 91.3955 78.6559 92.114C78.6559 92.8325 78.7959 93.4625 79.0759 94.004C79.3654 94.5455 79.7619 94.9655 80.2659 95.264C80.7699 95.5535 81.3439 95.698 81.9879 95.698C82.5759 95.698 83.0939 95.572 83.5419 95.32C83.9899 95.068 84.3399 94.6855 84.5919 94.172H86.5099C86.1459 95.1055 85.5579 95.824 84.7459 96.328C83.9434 96.832 83.0239 97.084 81.9879 97.084C81.0734 97.084 80.2379 96.874 79.4819 96.454C78.7259 96.0245 78.1239 95.432 77.6759 94.676C77.2374 93.92 77.0179 93.066 77.0179 92.114ZM89.9739 86.64V97H88.3779V86.64H89.9739ZM92.8814 88.264C92.5919 88.264 92.3495 88.166 92.1535 87.97C91.9574 87.774 91.8594 87.5315 91.8594 87.242C91.8594 86.9525 91.9574 86.71 92.1535 86.514C92.3495 86.318 92.5919 86.22 92.8814 86.22C93.1614 86.22 93.3994 86.318 93.5954 86.514C93.7914 86.71 93.8895 86.9525 93.8895 87.242C93.8895 87.5315 93.7914 87.774 93.5954 87.97C93.3994 88.166 93.1614 88.264 92.8814 88.264ZM93.6654 89.286V97H92.0695V89.286H93.6654ZM102.831 92.954C102.831 93.2435 102.812 93.5045 102.775 93.738H96.8809C96.9274 94.354 97.1564 94.8485 97.5669 95.222C97.9774 95.5955 98.4814 95.782 99.0789 95.782C99.9374 95.782 100.544 95.4225 100.899 94.704H102.621C102.387 95.4135 101.963 95.9965 101.347 96.454C100.74 96.902 99.9844 97.126 99.0789 97.126C98.3414 97.126 97.6789 96.9625 97.091 96.636C96.5124 96.3 96.0549 95.8335 95.7189 95.236C95.3924 94.6295 95.2289 93.9295 95.2289 93.136C95.2289 92.3425 95.3874 91.6475 95.7049 91.05C96.0314 90.4435 96.4844 89.9765 97.063 89.65C97.6509 89.3235 98.3229 89.16 99.0789 89.16C99.8069 89.16 100.455 89.3185 101.025 89.636C101.594 89.9535 102.037 90.4015 102.355 90.98C102.672 91.5495 102.831 92.2075 102.831 92.954ZM101.165 92.45C101.155 91.862 100.945 91.3905 100.535 91.036C100.124 90.6815 99.6154 90.504 99.0089 90.504C98.4584 90.504 97.9869 90.6815 97.5949 91.036C97.2029 91.3815 96.9694 91.8525 96.8949 92.45H101.165ZM108.293 89.16C108.9 89.16 109.441 89.286 109.917 89.538C110.403 89.79 110.781 90.1635 111.051 90.658C111.322 91.1525 111.457 91.75 111.457 92.45V97H109.875V92.688C109.875 91.9975 109.703 91.47 109.357 91.106C109.012 90.7325 108.541 90.546 107.943 90.546C107.346 90.546 106.87 90.7325 106.515 91.106C106.17 91.47 105.997 91.9975 105.997 92.688V97H104.401V89.286H105.997V90.168C106.259 89.8505 106.59 89.6035 106.991 89.426C107.402 89.2485 107.836 89.16 108.293 89.16ZM115.355 90.588V94.858C115.355 95.1475 115.42 95.3575 115.551 95.488C115.691 95.6095 115.924 95.67 116.251 95.67H117.231V97H115.971C115.252 97 114.702 96.832 114.319 96.496C113.936 96.16 113.745 95.614 113.745 94.858V90.588H112.835V89.286H113.745V87.368H115.355V89.286H117.231V90.588H115.355Z" fill="#F5F5F5"/>
<path d="M62.758 119.845C64.904 119.845 66.7795 120.26 68.384 121.092C70.008 121.904 71.255 123.083 72.125 124.63C73.0145 126.157 73.459 127.945 73.459 129.995C73.459 132.044 73.0145 133.823 72.125 135.331C71.255 136.839 70.008 137.999 68.384 138.811C66.7795 139.603 64.904 140 62.758 140H56.175V119.845H62.758ZM62.758 137.303C65.1165 137.303 66.9245 136.665 68.181 135.389C69.4375 134.113 70.0661 132.315 70.0661 129.995C70.0661 127.655 69.4375 125.828 68.181 124.514C66.9245 123.199 65.1165 122.542 62.758 122.542H59.481V137.303H62.758ZM78.4176 121.904C77.8181 121.904 77.3155 121.701 76.9095 121.295C76.5035 120.889 76.3005 120.386 76.3005 119.787C76.3005 119.187 76.5035 118.685 76.9095 118.279C77.3155 117.873 77.8181 117.67 78.4176 117.67C78.9976 117.67 79.4905 117.873 79.8965 118.279C80.3025 118.685 80.5056 119.187 80.5056 119.787C80.5056 120.386 80.3025 120.889 79.8965 121.295C79.4905 121.701 78.9976 121.904 78.4176 121.904ZM80.0415 124.021V140H76.7355V124.021H80.0415ZM83.28 131.938C83.28 130.333 83.6085 128.912 84.266 127.675C84.9425 126.437 85.8515 125.48 86.992 124.804C88.152 124.108 89.4281 123.76 90.82 123.76C92.0765 123.76 93.169 124.011 94.097 124.514C95.0445 124.997 95.7985 125.606 96.3591 126.341V124.021H99.694V140H96.3591V137.622C95.7985 138.376 95.0345 139.004 94.0681 139.507C93.1016 140.009 91.9995 140.261 90.7621 140.261C89.3895 140.261 88.1325 139.913 86.992 139.217C85.8515 138.501 84.9425 137.515 84.266 136.259C83.6085 134.983 83.28 133.542 83.28 131.938ZM96.3591 131.996C96.3591 130.894 96.1271 129.937 95.6631 129.125C95.2186 128.313 94.6285 127.694 93.894 127.269C93.1595 126.843 92.3665 126.631 91.516 126.631C90.6656 126.631 89.8726 126.843 89.1381 127.269C88.4035 127.675 87.804 128.284 87.34 129.096C86.8955 129.888 86.673 130.836 86.673 131.938C86.673 133.04 86.8955 134.006 87.34 134.838C87.804 135.669 88.4035 136.307 89.1381 136.752C89.8921 137.177 90.6845 137.39 91.516 137.39C92.3665 137.39 93.1595 137.177 93.894 136.752C94.6285 136.326 95.2186 135.708 95.6631 134.896C96.1271 134.064 96.3591 133.098 96.3591 131.996ZM110.475 123.76C111.712 123.76 112.804 124.011 113.752 124.514C114.718 124.997 115.472 125.606 116.014 126.341V124.021H119.349V140.261C119.349 141.73 119.039 143.035 118.421 144.176C117.802 145.336 116.903 146.244 115.724 146.902C114.564 147.559 113.172 147.888 111.548 147.888C109.382 147.888 107.584 147.375 106.154 146.351C104.723 145.345 103.911 143.973 103.718 142.233H106.995C107.246 143.064 107.778 143.731 108.59 144.234C109.421 144.756 110.407 145.017 111.548 145.017C112.882 145.017 113.955 144.611 114.767 143.799C115.598 142.987 116.014 141.807 116.014 140.261V137.593C115.453 138.347 114.689 138.985 113.723 139.507C112.775 140.009 111.693 140.261 110.475 140.261C109.083 140.261 107.807 139.913 106.647 139.217C105.506 138.501 104.597 137.515 103.921 136.259C103.263 134.983 102.935 133.542 102.935 131.938C102.935 130.333 103.263 128.912 103.921 127.675C104.597 126.437 105.506 125.48 106.647 124.804C107.807 124.108 109.083 123.76 110.475 123.76ZM116.014 131.996C116.014 130.894 115.782 129.937 115.318 129.125C114.873 128.313 114.283 127.694 113.549 127.269C112.814 126.843 112.021 126.631 111.171 126.631C110.32 126.631 109.527 126.843 108.793 127.269C108.058 127.675 107.459 128.284 106.995 129.096C106.55 129.888 106.328 130.836 106.328 131.938C106.328 133.04 106.55 134.006 106.995 134.838C107.459 135.669 108.058 136.307 108.793 136.752C109.547 137.177 110.339 137.39 111.171 137.39C112.021 137.39 112.814 137.177 113.549 136.752C114.283 136.326 114.873 135.708 115.318 134.896C115.782 134.064 116.014 133.098 116.014 131.996ZM126.997 126.341C127.48 125.529 128.118 124.9 128.911 124.456C129.723 123.992 130.68 123.76 131.782 123.76V127.182H130.941C129.646 127.182 128.66 127.51 127.983 128.168C127.326 128.825 126.997 129.966 126.997 131.59V140H123.691V124.021H126.997V126.341ZM133.719 131.938C133.719 130.333 134.047 128.912 134.705 127.675C135.381 126.437 136.29 125.48 137.431 124.804C138.591 124.108 139.867 123.76 141.259 123.76C142.515 123.76 143.608 124.011 144.536 124.514C145.483 124.997 146.237 125.606 146.798 126.341V124.021H150.133V140H146.798V137.622C146.237 138.376 145.473 139.004 144.507 139.507C143.54 140.009 142.438 140.261 141.201 140.261C139.828 140.261 138.571 139.913 137.431 139.217C136.29 138.501 135.381 137.515 134.705 136.259C134.047 134.983 133.719 133.542 133.719 131.938ZM146.798 131.996C146.798 130.894 146.566 129.937 146.102 129.125C145.657 128.313 145.067 127.694 144.333 127.269C143.598 126.843 142.805 126.631 141.955 126.631C141.104 126.631 140.311 126.843 139.577 127.269C138.842 127.675 138.243 128.284 137.779 129.096C137.334 129.888 137.112 130.836 137.112 131.938C137.112 133.04 137.334 134.006 137.779 134.838C138.243 135.669 138.842 136.307 139.577 136.752C140.331 137.177 141.123 137.39 141.955 137.39C142.805 137.39 143.598 137.177 144.333 136.752C145.067 136.326 145.657 135.708 146.102 134.896C146.566 134.064 146.798 133.098 146.798 131.996ZM173.818 123.76C175.075 123.76 176.196 124.021 177.182 124.543C178.187 125.065 178.97 125.838 179.531 126.863C180.111 127.887 180.401 129.125 180.401 130.575V140H177.124V131.068C177.124 129.637 176.766 128.545 176.051 127.791C175.336 127.017 174.359 126.631 173.122 126.631C171.885 126.631 170.899 127.017 170.164 127.791C169.449 128.545 169.091 129.637 169.091 131.068V140H165.814V131.068C165.814 129.637 165.456 128.545 164.741 127.791C164.026 127.017 163.049 126.631 161.812 126.631C160.575 126.631 159.589 127.017 158.854 127.791C158.139 128.545 157.781 129.637 157.781 131.068V140H154.475V124.021H157.781V125.848C158.322 125.19 159.009 124.678 159.84 124.311C160.671 123.943 161.561 123.76 162.508 123.76C163.784 123.76 164.925 124.03 165.93 124.572C166.935 125.113 167.709 125.896 168.25 126.921C168.733 125.954 169.487 125.19 170.512 124.63C171.537 124.05 172.639 123.76 173.818 123.76Z" fill="#333333"/>
<path d="M57.008 160.38V167.468C57.008 168.31 57.2266 168.945 57.664 169.372C58.112 169.798 58.7306 170.012 59.52 170.012C60.32 170.012 60.9385 169.798 61.376 169.372C61.824 168.945 62.048 168.31 62.048 167.468V160.38H63.872V167.436C63.872 168.342 63.6745 169.11 63.28 169.74C62.8855 170.369 62.3575 170.838 61.696 171.148C61.0345 171.457 60.304 171.612 59.504 171.612C58.704 171.612 57.9733 171.457 57.312 171.148C56.6613 170.838 56.144 170.369 55.76 169.74C55.376 169.11 55.184 168.342 55.184 167.436V160.38H57.008ZM77.959 160.38V171.5H76.135V163.884L72.743 171.5H71.479L68.071 163.884V171.5H66.247V160.38H68.215L72.119 169.1L76.007 160.38H77.959ZM82.1805 170.028H85.9405V171.5H80.3565V160.38H82.1805V170.028ZM95.254 160.38C96.438 160.38 97.4725 160.609 98.358 161.068C99.254 161.516 99.942 162.166 100.422 163.02C100.912 163.862 101.158 164.849 101.158 165.98C101.158 167.11 100.912 168.092 100.422 168.924C99.942 169.756 99.254 170.396 98.358 170.844C97.4725 171.281 96.438 171.5 95.254 171.5H91.622V160.38H95.254ZM95.254 170.012C96.555 170.012 97.5525 169.66 98.246 168.956C98.939 168.252 99.286 167.26 99.286 165.98C99.286 164.689 98.939 163.681 98.246 162.956C97.5525 162.23 96.555 161.868 95.254 161.868H93.446V170.012H95.254ZM103.893 161.516C103.563 161.516 103.285 161.404 103.061 161.18C102.837 160.956 102.725 160.678 102.725 160.348C102.725 160.017 102.837 159.74 103.061 159.516C103.285 159.292 103.563 159.18 103.893 159.18C104.213 159.18 104.485 159.292 104.709 159.516C104.933 159.74 105.045 160.017 105.045 160.348C105.045 160.678 104.933 160.956 104.709 161.18C104.485 161.404 104.213 161.516 103.893 161.516ZM104.789 162.684V171.5H102.965V162.684H104.789ZM106.576 167.052C106.576 166.166 106.757 165.382 107.12 164.7C107.493 164.017 107.995 163.489 108.624 163.116C109.264 162.732 109.968 162.54 110.736 162.54C111.429 162.54 112.032 162.678 112.544 162.956C113.067 163.222 113.483 163.558 113.792 163.964V162.684H115.632V171.5H113.792V170.188C113.483 170.604 113.061 170.95 112.528 171.228C111.995 171.505 111.387 171.644 110.704 171.644C109.947 171.644 109.253 171.452 108.624 171.068C107.995 170.673 107.493 170.129 107.12 169.436C106.757 168.732 106.576 167.937 106.576 167.052ZM113.792 167.084C113.792 166.476 113.664 165.948 113.408 165.5C113.163 165.052 112.837 164.71 112.432 164.476C112.027 164.241 111.589 164.124 111.12 164.124C110.651 164.124 110.213 164.241 109.808 164.476C109.403 164.7 109.072 165.036 108.816 165.484C108.571 165.921 108.448 166.444 108.448 167.052C108.448 167.66 108.571 168.193 108.816 168.652C109.072 169.11 109.403 169.462 109.808 169.708C110.224 169.942 110.661 170.06 111.12 170.06C111.589 170.06 112.027 169.942 112.432 169.708C112.837 169.473 113.163 169.132 113.408 168.684C113.664 168.225 113.792 167.692 113.792 167.084ZM121.58 162.54C122.263 162.54 122.865 162.678 123.388 162.956C123.921 163.222 124.337 163.558 124.636 163.964V162.684H126.476V171.644C126.476 172.454 126.305 173.174 125.964 173.804C125.623 174.444 125.127 174.945 124.476 175.308C123.836 175.67 123.068 175.852 122.172 175.852C120.977 175.852 119.985 175.569 119.196 175.004C118.407 174.449 117.959 173.692 117.852 172.732H119.66C119.799 173.19 120.092 173.558 120.54 173.836C120.999 174.124 121.543 174.268 122.172 174.268C122.908 174.268 123.5 174.044 123.948 173.596C124.407 173.148 124.636 172.497 124.636 171.644V170.172C124.327 170.588 123.905 170.94 123.372 171.228C122.849 171.505 122.252 171.644 121.58 171.644C120.812 171.644 120.108 171.452 119.468 171.068C118.839 170.673 118.337 170.129 117.964 169.436C117.601 168.732 117.42 167.937 117.42 167.052C117.42 166.166 117.601 165.382 117.964 164.7C118.337 164.017 118.839 163.489 119.468 163.116C120.108 162.732 120.812 162.54 121.58 162.54ZM124.636 167.084C124.636 166.476 124.508 165.948 124.252 165.5C124.007 165.052 123.681 164.71 123.276 164.476C122.871 164.241 122.433 164.124 121.964 164.124C121.495 164.124 121.057 164.241 120.652 164.476C120.247 164.7 119.916 165.036 119.66 165.484C119.415 165.921 119.292 166.444 119.292 167.052C119.292 167.66 119.415 168.193 119.66 168.652C119.916 169.11 120.247 169.462 120.652 169.708C121.068 169.942 121.505 170.06 121.964 170.06C122.433 170.06 122.871 169.942 123.276 169.708C123.681 169.473 124.007 169.132 124.252 168.684C124.508 168.225 124.636 167.692 124.636 167.084ZM130.696 163.964C130.962 163.516 131.314 163.169 131.752 162.924C132.2 162.668 132.728 162.54 133.336 162.54V164.428H132.872C132.157 164.428 131.613 164.609 131.24 164.972C130.877 165.334 130.696 165.964 130.696 166.86V171.5H128.872V162.684H130.696V163.964ZM134.404 167.052C134.404 166.166 134.586 165.382 134.948 164.7C135.322 164.017 135.823 163.489 136.452 163.116C137.092 162.732 137.796 162.54 138.564 162.54C139.258 162.54 139.86 162.678 140.372 162.956C140.895 163.222 141.311 163.558 141.62 163.964V162.684H143.46V171.5H141.62V170.188C141.311 170.604 140.89 170.95 140.356 171.228C139.823 171.505 139.215 171.644 138.532 171.644C137.775 171.644 137.082 171.452 136.452 171.068C135.823 170.673 135.322 170.129 134.948 169.436C134.586 168.732 134.404 167.937 134.404 167.052ZM141.62 167.084C141.62 166.476 141.492 165.948 141.236 165.5C140.991 165.052 140.666 164.71 140.26 164.476C139.855 164.241 139.418 164.124 138.948 164.124C138.479 164.124 138.042 164.241 137.636 164.476C137.231 164.7 136.9 165.036 136.644 165.484C136.399 165.921 136.276 166.444 136.276 167.052C136.276 167.66 136.399 168.193 136.644 168.652C136.9 169.11 137.231 169.462 137.636 169.708C138.052 169.942 138.49 170.06 138.948 170.06C139.418 170.06 139.855 169.942 140.26 169.708C140.666 169.473 140.991 169.132 141.236 168.684C141.492 168.225 141.62 167.692 141.62 167.084ZM156.528 162.54C157.221 162.54 157.84 162.684 158.384 162.972C158.939 163.26 159.371 163.686 159.68 164.252C160 164.817 160.16 165.5 160.16 166.3V171.5H158.352V166.572C158.352 165.782 158.155 165.18 157.76 164.764C157.365 164.337 156.827 164.124 156.144 164.124C155.461 164.124 154.917 164.337 154.512 164.764C154.117 165.18 153.92 165.782 153.92 166.572V171.5H152.112V166.572C152.112 165.782 151.915 165.18 151.52 164.764C151.125 164.337 150.587 164.124 149.904 164.124C149.221 164.124 148.677 164.337 148.272 164.764C147.877 165.18 147.68 165.782 147.68 166.572V171.5H145.856V162.684H147.68V163.692C147.979 163.329 148.357 163.046 148.816 162.844C149.275 162.641 149.765 162.54 150.288 162.54C150.992 162.54 151.621 162.689 152.176 162.988C152.731 163.286 153.157 163.718 153.456 164.284C153.723 163.75 154.139 163.329 154.704 163.02C155.269 162.7 155.877 162.54 156.528 162.54ZM170.269 160.38C171.453 160.38 172.488 160.609 173.373 161.068C174.269 161.516 174.957 162.166 175.437 163.02C175.928 163.862 176.173 164.849 176.173 165.98C176.173 167.11 175.928 168.092 175.437 168.924C174.957 169.756 174.269 170.396 173.373 170.844C172.488 171.281 171.453 171.5 170.269 171.5H166.637V160.38H170.269ZM170.269 170.012C171.571 170.012 172.568 169.66 173.261 168.956C173.955 168.252 174.301 167.26 174.301 165.98C174.301 164.689 173.955 163.681 173.261 162.956C172.568 162.23 171.571 161.868 170.269 161.868H168.461V170.012H170.269ZM186.061 166.876C186.061 167.206 186.04 167.505 185.997 167.772H179.261C179.314 168.476 179.576 169.041 180.045 169.468C180.514 169.894 181.09 170.108 181.773 170.108C182.754 170.108 183.448 169.697 183.853 168.876H185.821C185.554 169.686 185.069 170.353 184.365 170.876C183.672 171.388 182.808 171.644 181.773 171.644C180.93 171.644 180.173 171.457 179.501 171.084C178.84 170.7 178.317 170.166 177.933 169.484C177.56 168.79 177.373 167.99 177.373 167.084C177.373 166.177 177.554 165.382 177.917 164.7C178.29 164.006 178.808 163.473 179.469 163.1C180.141 162.726 180.909 162.54 181.773 162.54C182.605 162.54 183.346 162.721 183.997 163.084C184.648 163.446 185.154 163.958 185.517 164.62C185.88 165.27 186.061 166.022 186.061 166.876ZM184.157 166.3C184.146 165.628 183.906 165.089 183.437 164.684C182.968 164.278 182.386 164.076 181.693 164.076C181.064 164.076 180.525 164.278 180.077 164.684C179.629 165.078 179.362 165.617 179.277 166.3H184.157ZM191.056 171.644C190.363 171.644 189.739 171.521 189.184 171.276C188.64 171.02 188.208 170.678 187.888 170.252C187.568 169.814 187.397 169.329 187.376 168.796H189.264C189.296 169.169 189.472 169.484 189.792 169.74C190.123 169.985 190.533 170.108 191.024 170.108C191.536 170.108 191.931 170.012 192.208 169.82C192.496 169.617 192.64 169.361 192.64 169.052C192.64 168.721 192.48 168.476 192.16 168.316C191.851 168.156 191.355 167.98 190.672 167.788C190.011 167.606 189.472 167.43 189.056 167.26C188.64 167.089 188.277 166.828 187.968 166.476C187.669 166.124 187.52 165.66 187.52 165.084C187.52 164.614 187.659 164.188 187.936 163.804C188.213 163.409 188.608 163.1 189.12 162.876C189.643 162.652 190.24 162.54 190.912 162.54C191.915 162.54 192.72 162.796 193.328 163.308C193.947 163.809 194.277 164.497 194.32 165.372H192.496C192.464 164.977 192.304 164.662 192.016 164.428C191.728 164.193 191.339 164.076 190.848 164.076C190.368 164.076 190 164.166 189.744 164.348C189.488 164.529 189.36 164.769 189.36 165.068C189.36 165.302 189.445 165.5 189.616 165.66C189.787 165.82 189.995 165.948 190.24 166.044C190.485 166.129 190.848 166.241 191.328 166.38C191.968 166.55 192.491 166.726 192.896 166.908C193.312 167.078 193.669 167.334 193.968 167.676C194.267 168.017 194.421 168.47 194.432 169.036C194.432 169.537 194.293 169.985 194.016 170.38C193.739 170.774 193.344 171.084 192.832 171.308C192.331 171.532 191.739 171.644 191.056 171.644ZM197.331 161.516C197 161.516 196.723 161.404 196.499 161.18C196.275 160.956 196.163 160.678 196.163 160.348C196.163 160.017 196.275 159.74 196.499 159.516C196.723 159.292 197 159.18 197.331 159.18C197.651 159.18 197.923 159.292 198.147 159.516C198.371 159.74 198.483 160.017 198.483 160.348C198.483 160.678 198.371 160.956 198.147 161.18C197.923 161.404 197.651 161.516 197.331 161.516ZM198.227 162.684V171.5H196.403V162.684H198.227ZM204.174 162.54C204.856 162.54 205.459 162.678 205.982 162.956C206.515 163.222 206.931 163.558 207.23 163.964V162.684H209.07V171.644C209.07 172.454 208.899 173.174 208.558 173.804C208.216 174.444 207.72 174.945 207.07 175.308C206.43 175.67 205.662 175.852 204.766 175.852C203.571 175.852 202.579 175.569 201.79 175.004C201 174.449 200.552 173.692 200.446 172.732H202.254C202.392 173.19 202.686 173.558 203.134 173.836C203.592 174.124 204.136 174.268 204.766 174.268C205.502 174.268 206.094 174.044 206.542 173.596C207 173.148 207.23 172.497 207.23 171.644V170.172C206.92 170.588 206.499 170.94 205.966 171.228C205.443 171.505 204.846 171.644 204.174 171.644C203.406 171.644 202.702 171.452 202.062 171.068C201.432 170.673 200.931 170.129 200.558 169.436C200.195 168.732 200.014 167.937 200.014 167.052C200.014 166.166 200.195 165.382 200.558 164.7C200.931 164.017 201.432 163.489 202.062 163.116C202.702 162.732 203.406 162.54 204.174 162.54ZM207.23 167.084C207.23 166.476 207.102 165.948 206.846 165.5C206.6 165.052 206.275 164.71 205.87 164.476C205.464 164.241 205.027 164.124 204.558 164.124C204.088 164.124 203.651 164.241 203.246 164.476C202.84 164.7 202.51 165.036 202.254 165.484C202.008 165.921 201.886 166.444 201.886 167.052C201.886 167.66 202.008 168.193 202.254 168.652C202.51 169.11 202.84 169.462 203.246 169.708C203.662 169.942 204.099 170.06 204.558 170.06C205.027 170.06 205.464 169.942 205.87 169.708C206.275 169.473 206.6 169.132 206.846 168.684C207.102 168.225 207.23 167.692 207.23 167.084ZM215.913 162.54C216.607 162.54 217.225 162.684 217.769 162.972C218.324 163.26 218.756 163.686 219.065 164.252C219.375 164.817 219.529 165.5 219.529 166.3V171.5H217.721V166.572C217.721 165.782 217.524 165.18 217.129 164.764C216.735 164.337 216.196 164.124 215.513 164.124C214.831 164.124 214.287 164.337 213.881 164.764C213.487 165.18 213.289 165.782 213.289 166.572V171.5H211.465V162.684H213.289V163.692C213.588 163.329 213.967 163.046 214.425 162.844C214.895 162.641 215.391 162.54 215.913 162.54Z" fill="#909090"/>
<path d="M316 180C343.614 180 366 157.614 366 130C366 102.386 343.614 80 316 80C288.386 80 266 102.386 266 130C266 157.614 288.386 180 316 180Z" fill="#D26900"/>
<path d="M306 118.75H326M305.263 124.273L316.707 140.758M297.5 125H302C303.4 125 304.1 125 304.635 124.728C305.106 124.488 305.488 124.106 305.728 123.635C306 123.1 306 122.4 306 121V116.5C306 115.1 306 114.4 305.728 113.865C305.488 113.394 305.106 113.012 304.635 112.772C304.1 112.5 303.4 112.5 302 112.5H297.5C296.1 112.5 295.4 112.5 294.865 112.772C294.394 113.012 294.012 113.394 293.772 113.865C293.5 114.4 293.5 115.1 293.5 116.5V121C293.5 122.4 293.5 123.1 293.772 123.635C294.012 124.106 294.394 124.488 294.865 124.728C295.4 125 296.1 125 297.5 125ZM320 152.5H324.5C325.9 152.5 326.601 152.5 327.135 152.227C327.606 151.988 327.988 151.605 328.228 151.135C328.5 150.6 328.5 149.9 328.5 148.5V144C328.5 142.6 328.5 141.9 328.228 141.365C327.988 140.895 327.606 140.513 327.135 140.273C326.601 140 325.9 140 324.5 140H320C318.6 140 317.899 140 317.365 140.273C316.894 140.513 316.512 140.895 316.272 141.365C316 141.9 316 142.6 316 144V148.5C316 149.9 316 150.6 316.272 151.135C316.512 151.605 316.894 151.988 317.365 152.227C317.899 152.5 318.6 152.5 320 152.5ZM330 125H334.5C335.9 125 336.601 125 337.135 124.728C337.606 124.488 337.988 124.106 338.228 123.635C338.5 123.1 338.5 122.4 338.5 121V116.5C338.5 115.1 338.5 114.4 338.228 113.865C337.988 113.394 337.606 113.012 337.135 112.772C336.601 112.5 335.9 112.5 334.5 112.5H330C328.6 112.5 327.899 112.5 327.365 112.772C326.894 113.012 326.512 113.394 326.272 113.865C326 114.4 326 115.1 326 116.5V121C326 122.4 326 123.1 326.272 123.635C326.512 124.106 326.894 124.488 327.365 124.728C327.899 125 328.6 125 330 125Z" stroke="#F5F5F5" stroke-width="4" stroke-linecap="round" stroke-linejoin="round"/>
</g>
<defs>
<clipPath id="clip0_350_201">
<rect width="400" height="240" fill="white" transform="translate(10 10)"/>
</clipPath>
</defs>
</svg>
