<svg width="50" height="50" viewBox="0 0 50 50" fill="none" xmlns="http://www.w3.org/2000/svg">
<path d="M16.6667 13.5416H33.3333M16.0521 18.1441L25.5888 31.882M9.58333 18.7499H13.3333C14.5001 18.7499 15.0835 18.7499 15.5291 18.5229C15.9211 18.3231 16.2399 18.0044 16.4396 17.6124C16.6667 17.1668 16.6667 16.5834 16.6667 15.4166V11.6666C16.6667 10.4998 16.6667 9.91642 16.4396 9.47077C16.2399 9.07877 15.9211 8.76006 15.5291 8.56031C15.0835 8.33325 14.5001 8.33325 13.3333 8.33325H9.58333C8.41656 8.33325 7.83317 8.33325 7.38752 8.56031C6.99552 8.76006 6.67681 9.07877 6.47706 9.47077C6.25 9.91642 6.25 10.4998 6.25 11.6666V15.4166C6.25 16.5834 6.25 17.1668 6.47706 17.6124C6.67681 18.0044 6.99552 18.3231 7.38752 18.5229C7.83317 18.7499 8.41656 18.7499 9.58333 18.7499ZM28.3333 41.6666H32.0833C33.2502 41.6666 33.8335 41.6666 34.2792 41.4395C34.6712 41.2397 34.9898 40.9212 35.1896 40.5291C35.4167 40.0835 35.4167 39.5001 35.4167 38.3333V34.5833C35.4167 33.4164 35.4167 32.833 35.1896 32.3874C34.9898 31.9953 34.6712 31.6768 34.2792 31.477C33.8335 31.2499 33.2502 31.2499 32.0833 31.2499H28.3333C27.1665 31.2499 26.5831 31.2499 26.1375 31.477C25.7454 31.6768 25.4269 31.9953 25.2271 32.3874C25 32.833 25 33.4164 25 34.5833V38.3333C25 39.5001 25 40.0835 25.2271 40.5291C25.4269 40.9212 25.7454 41.2397 26.1375 41.4395C26.5831 41.6666 27.1665 41.6666 28.3333 41.6666ZM36.6667 18.7499H40.4167C41.5835 18.7499 42.1669 18.7499 42.6125 18.5229C43.0046 18.3231 43.3231 18.0044 43.5229 17.6124C43.75 17.1668 43.75 16.5834 43.75 15.4166V11.6666C43.75 10.4998 43.75 9.91642 43.5229 9.47077C43.3231 9.07877 43.0046 8.76006 42.6125 8.56031C42.1669 8.33325 41.5835 8.33325 40.4167 8.33325H36.6667C35.4998 8.33325 34.9165 8.33325 34.4708 8.56031C34.0787 8.76006 33.7602 9.07877 33.5604 9.47077C33.3333 9.91642 33.3333 10.4998 33.3333 11.6666V15.4166C33.3333 16.5834 33.3333 17.1668 33.5604 17.6124C33.7602 18.0044 34.0787 18.3231 34.4708 18.5229C34.9165 18.7499 35.4998 18.7499 36.6667 18.7499Z" stroke="#EE513B" stroke-width="3" stroke-linecap="round" stroke-linejoin="round"/>
</svg>
