<svg width="200" height="200" viewBox="0 0 200 200" fill="none" xmlns="http://www.w3.org/2000/svg">
<circle cx="100" cy="100" r="100" fill="#D26900"/>
<path d="M80 77.5H120M78.5251 88.546L101.413 121.517M63 90H72C74.8003 90 76.2004 90 77.2699 89.4551C78.2107 88.9757 78.9756 88.2107 79.455 87.2699C80 86.2004 80 84.8003 80 82V73C80 70.1997 80 68.7996 79.455 67.7301C78.9756 66.7893 78.2107 66.0244 77.2699 65.545C76.2004 65 74.8003 65 72 65H63C60.1997 65 58.7996 65 57.7301 65.545C56.7893 66.0244 56.0243 66.7893 55.5449 67.7301C55 68.7996 55 70.1997 55 73V82C55 84.8003 55 86.2004 55.5449 87.2699C56.0243 88.2107 56.7893 88.9757 57.7301 89.4551C58.7996 90 60.1997 90 63 90ZM108 145H117C119.8 145 121.201 145 122.27 144.455C123.211 143.976 123.976 143.211 124.455 142.27C125 141.201 125 139.8 125 137V128C125 125.2 125 123.799 124.455 122.73C123.976 121.789 123.211 121.025 122.27 120.545C121.201 120 119.8 120 117 120H108C105.2 120 103.799 120 102.73 120.545C101.789 121.025 101.025 121.789 100.545 122.73C100 123.799 100 125.2 100 128V137C100 139.8 100 141.201 100.545 142.27C101.025 143.211 101.789 143.976 102.73 144.455C103.799 145 105.2 145 108 145ZM128 90H137C139.8 90 141.201 90 142.27 89.4551C143.211 88.9757 143.976 88.2107 144.455 87.2699C145 86.2004 145 84.8003 145 82V73C145 70.1997 145 68.7996 144.455 67.7301C143.976 66.7893 143.211 66.0244 142.27 65.545C141.201 65 139.8 65 137 65H128C125.2 65 123.799 65 122.73 65.545C121.789 66.0244 121.024 66.7893 120.545 67.7301C120 68.7996 120 70.1997 120 73V82C120 84.8003 120 86.2004 120.545 87.2699C121.024 88.2107 121.789 88.9757 122.73 89.4551C123.799 90 125.2 90 128 90Z" stroke="#F5F5F5" stroke-width="7" stroke-linecap="round" stroke-linejoin="round"/>
</svg>
