<svg width="61" height="61" viewBox="0 0 61 61" fill="none" xmlns="http://www.w3.org/2000/svg">
<g clip-path="url(#clip0_198_40)">
<path d="M35.3578 28.8873C35.5348 29.4029 35.6259 29.9488 35.6249 30.4977C35.6249 30.6493 35.618 30.8019 35.6052 30.9555C35.4887 35.7879 33.5419 40.3381 30.1234 43.7557C26.5836 47.2965 21.8737 49.2473 16.8605 49.2493C16.3439 49.2493 15.8243 49.2277 15.3097 49.1867C16.0836 51.6581 17.4613 53.9259 19.3104 55.776C22.3532 58.8198 26.4036 60.4967 30.7164 60.4967C35.0281 60.4958 39.099 58.7992 42.1799 55.7183C44.394 53.5042 45.8987 50.713 46.5268 47.6437C46.5561 47.5028 46.5788 47.3874 46.6011 47.2749C46.7734 46.3082 46.8614 45.324 46.8614 44.3516C46.8614 40.0388 45.1718 35.9766 42.1064 32.9115C40.2281 31.0329 37.9075 29.6504 35.3578 28.8873Z" fill="#40E4F1"/>
<path d="M26.0769 32.1041C25.8997 31.5905 25.8078 31.0456 25.8078 30.4956C25.8087 30.3441 25.8166 30.1963 25.8264 30.0495L25.8294 30.0016C25.9517 25.188 27.8987 20.6492 31.3113 17.2367C34.851 13.6979 39.562 11.747 44.5742 11.7431C45.0937 11.744 45.6132 11.7645 46.1269 11.8076C45.3521 9.33627 43.9784 7.07033 42.1332 5.22404C39.0843 2.17565 35.0299 0.496704 30.7182 0.496704C26.4065 0.496704 22.3531 2.17647 19.3025 5.22709C17.0629 7.46654 15.5445 10.2735 14.9096 13.3476C14.8871 13.466 14.8637 13.5863 14.8412 13.7116L14.7805 14.0579C14.6435 14.9111 14.5749 15.7798 14.5741 16.6408C14.5741 20.9535 16.252 25.0069 19.3026 28.0556C21.1947 29.9487 23.5232 31.3381 26.0769 32.1041Z" fill="#40E4F1"/>
<path d="M55.9927 19.084C53.7552 16.8464 50.9433 15.326 47.8624 14.6881C47.7508 14.6636 47.6374 14.6412 47.523 14.6236C46.5475 14.4465 45.5584 14.3565 44.5713 14.3535C40.2596 14.3525 36.2052 16.0324 33.1555 19.081C31.2643 20.9722 29.875 23.3018 29.1099 25.8572C29.6217 25.6812 30.1647 25.5882 30.7135 25.5872C30.8681 25.5872 31.0149 25.5961 31.1616 25.6049C36.0134 25.7242 40.5472 27.6634 43.951 31.0671C47.5094 34.6255 49.469 39.3432 49.469 44.3536C49.469 44.872 49.4456 45.3916 49.4055 45.9042C51.8758 45.1303 54.1428 43.7568 55.987 41.9123C59.0374 38.8609 60.7173 34.8074 60.7173 30.4957C60.7173 26.184 59.0403 22.1296 55.9927 19.084Z" fill="#40E4F1"/>
<path d="M28.2791 41.9124C30.1684 40.0222 31.5566 37.6937 32.3246 35.1352C31.8101 35.3132 31.2632 35.4052 30.7133 35.4043C30.5802 35.4043 30.4453 35.3964 30.3151 35.3847C25.478 35.2938 20.9021 33.3448 17.4582 29.9C13.9154 26.3573 11.9646 21.6483 11.9655 16.6409C11.9655 16.1263 11.986 15.6047 12.0292 15.0872C9.56166 15.8602 7.29479 17.2328 5.44862 19.081C2.39811 22.1316 0.717285 26.1859 0.717285 30.4976C0.717285 34.8104 2.38932 38.855 5.42131 41.8889C7.66862 44.1352 10.4883 45.6635 13.5731 46.3042L13.9596 46.3825C14.8969 46.5528 15.8753 46.6399 16.8605 46.6399C21.1752 46.64 25.2306 44.96 28.2791 41.9124Z" fill="#40E4F1"/>
</g>
<defs>
<clipPath id="clip0_198_40">
<rect width="60" height="60" fill="white" transform="translate(0.717285 0.496704)"/>
</clipPath>
</defs>
</svg>
