<svg width="50" height="50" viewBox="0 0 50 50" fill="none" xmlns="http://www.w3.org/2000/svg">
<path d="M1.04529 27.5236C-0.348429 26.1298 -0.348429 23.8702 1.04529 22.4764L22.4764 1.04529C23.8702 -0.348429 26.1298 -0.348429 27.5236 1.04529L48.9547 22.4764C50.3484 23.8702 50.3484 26.1298 48.9547 27.5236L27.5236 48.9547C26.1298 50.3484 23.8702 50.3484 22.4764 48.9547L1.04529 27.5236Z" fill="#EE513B"/>
<path d="M18.1229 5.4668L15.9528 7.63705L21.5579 13.2422C21.3312 13.7287 21.2045 14.2712 21.2045 14.8434C21.2045 16.4677 22.2251 17.8536 23.6599 18.3948V32.1066C22.2251 32.6479 21.2045 34.0337 21.2045 35.658C21.2045 37.7537 22.9035 39.4527 24.9992 39.4527C27.0949 39.4527 28.7938 37.7537 28.7938 35.658C28.7938 34.1855 27.9551 32.9087 26.7292 32.2798V18.4136L32.0872 23.7716C31.8715 24.2482 31.7515 24.7773 31.7515 25.3345C31.7515 27.4302 33.4504 29.1291 35.5462 29.1291C37.6419 29.1291 39.3408 27.4302 39.3408 25.3345C39.3408 23.2387 37.6419 21.5398 35.5462 21.5398C35.1388 21.5398 34.7467 21.6039 34.3788 21.7227L28.6244 15.9682C28.7345 15.6128 28.7938 15.235 28.7938 14.8434C28.7938 12.7476 27.0949 11.0487 24.9992 11.0487C24.6076 11.0487 24.2299 11.108 23.8744 11.2182L18.1229 5.4668Z" fill="white"/>
</svg>
