<svg width="40" height="40" viewBox="0 0 40 40" fill="none" xmlns="http://www.w3.org/2000/svg">
<circle cx="20" cy="20" r="20" fill="#515151"/>
<path d="M20.0059 11.8011C22.6793 11.8011 22.9959 11.8129 24.0473 11.8597C25.0244 11.9027 25.5521 12.0668 25.9038 12.2036C26.369 12.3833 26.7051 12.6021 27.053 12.9498C27.4047 13.3014 27.6197 13.6335 27.7995 14.0985C27.9363 14.4501 28.1004 14.9814 28.1434 15.9543C28.1903 17.0092 28.2021 17.3257 28.2021 19.9941C28.2021 22.6665 28.1903 22.983 28.1434 24.034C28.1004 25.0107 27.9363 25.5382 27.7995 25.8898C27.6197 26.3548 27.4008 26.6908 27.053 27.0385C26.7012 27.3901 26.369 27.605 25.9038 27.7847C25.5521 27.9215 25.0205 28.0856 24.0473 28.1285C22.992 28.1754 22.6754 28.1871 20.0059 28.1871C17.3324 28.1871 17.0158 28.1754 15.9644 28.1285C14.9873 28.0856 14.4596 27.9215 14.1079 27.7847C13.6428 27.605 13.3066 27.3862 12.9588 27.0385C12.607 26.6869 12.392 26.3548 12.2122 25.8898C12.0754 25.5382 11.9113 25.0068 11.8683 24.034C11.8214 22.9791 11.8097 22.6626 11.8097 19.9941C11.8097 17.3217 11.8214 17.0053 11.8683 15.9543C11.9113 14.9775 12.0754 14.4501 12.2122 14.0985C12.392 13.6335 12.6109 13.2975 12.9588 12.9498C13.3105 12.5982 13.6428 12.3833 14.1079 12.2036C14.4596 12.0668 14.9912 11.9027 15.9644 11.8597C17.0158 11.8129 17.3324 11.8011 20.0059 11.8011ZM20.0059 10C17.2894 10 16.9494 10.0117 15.8824 10.0586C14.8192 10.1055 14.0883 10.2774 13.4551 10.5235C12.7946 10.7814 12.2357 11.1213 11.6807 11.68C11.1218 12.2348 10.7817 12.7935 10.5237 13.4499C10.2775 14.0867 10.1055 14.8134 10.0586 15.8761C10.0117 16.9467 10 17.2866 10 20.002C10 22.7173 10.0117 23.0572 10.0586 24.1239C10.1055 25.1866 10.2775 25.9172 10.5237 26.5501C10.7817 27.2104 11.1218 27.7691 11.6807 28.3239C12.2357 28.8787 12.7946 29.2225 13.4512 29.4765C14.0883 29.7226 14.8153 29.8945 15.8784 29.9414C16.9455 29.9883 17.2855 30 20.002 30C22.7184 30 23.0584 29.9883 24.1255 29.9414C25.1886 29.8945 25.9195 29.7226 26.5527 29.4765C27.2093 29.2225 27.7682 28.8787 28.3232 28.3239C28.8783 27.7691 29.2222 27.2104 29.4763 26.554C29.7225 25.9172 29.8945 25.1905 29.9414 24.1278C29.9883 23.0611 30 22.7212 30 20.0059C30 17.2905 29.9883 16.9506 29.9414 15.884C29.8945 14.8213 29.7225 14.0906 29.4763 13.4577C29.23 12.7935 28.89 12.2348 28.3311 11.68C27.776 11.1252 27.2171 10.7814 26.5605 10.5274C25.9234 10.2813 25.1964 10.1094 24.1333 10.0625C23.0623 10.0117 22.7223 10 20.0059 10Z" fill="#40E4F1"/>
<path d="M20.0059 14.8642C17.1683 14.8642 14.8661 17.1655 14.8661 20.002C14.8661 22.8384 17.1683 25.1397 20.0059 25.1397C22.8435 25.1397 25.1456 22.8384 25.1456 20.002C25.1456 17.1655 22.8435 14.8642 20.0059 14.8642ZM20.0059 23.3346C18.1649 23.3346 16.6719 21.8422 16.6719 20.002C16.6719 18.1618 18.1649 16.6693 20.0059 16.6693C21.8468 16.6693 23.3398 18.1618 23.3398 20.002C23.3398 21.8422 21.8468 23.3346 20.0059 23.3346Z" fill="#40E4F1"/>
<path d="M26.5488 14.661C26.5488 15.3252 26.0094 15.8605 25.3488 15.8605C24.6844 15.8605 24.1489 15.3213 24.1489 14.661C24.1489 13.9968 24.6883 13.4616 25.3488 13.4616C26.0094 13.4616 26.5488 14.0007 26.5488 14.661Z" fill="#40E4F1"/>
</svg>
