<svg width="50" height="50" viewBox="0 0 50 50" fill="none" xmlns="http://www.w3.org/2000/svg">
<path d="M50 0H0V50H50V0Z" fill="#F1DC50"/>
<path d="M25 22.917C25 32.8112 25 38.3667 25 39.5837C25 41.4091 23.9107 43.7503 20.8333 43.7503C15.8638 43.7503 15.625 39.5837 15.625 39.5837M43.3124 28.1587C42.0623 26.0531 40.405 25.0003 38.3407 25.0003C35.1174 25.0003 33.3333 27.0837 33.3333 29.167C33.3333 31.2503 34.375 33.3337 38.5592 34.3753C41.2218 35.0382 43.75 36.4587 43.75 39.5837C43.75 42.7087 41.0095 43.7503 38.5417 43.7503C35.3878 43.7503 33.3045 42.3614 32.2917 39.5837" stroke="#333333" stroke-width="4"/>
</svg>
