<svg width="200" height="200" viewBox="0 0 200 200" fill="none" xmlns="http://www.w3.org/2000/svg">
<circle cx="100" cy="100" r="100" fill="#EEA900"/>
<path d="M57.3223 142.677C64.6446 150 76.4297 150 100 150C123.57 150 135.355 150 142.677 142.677C150 135.355 150 123.57 150 100C150 76.4297 150 64.6446 142.677 57.3223C135.355 50 123.57 50 100 50C76.4297 50 64.6446 50 57.3223 57.3223C50 64.6446 50 76.4297 50 100C50 123.57 50 135.355 57.3223 142.677Z" stroke="#F5F5F5" stroke-width="6.5"/>
<path d="M130 82.4999H110M130 112.5H110M130 127.5H110M90 82.5H80M80 82.5H70M80 82.5V72.4999M80 82.5V92.5M87.5 112.5L80 120M80 120L72.5001 127.5M80 120L72.5 112.5M80 120L87.5 127.5" stroke="#F5F5F5" stroke-width="6.5" stroke-linecap="round"/>
</svg>
