<svg width="200" height="200" viewBox="0 0 200 200" fill="none" xmlns="http://www.w3.org/2000/svg">
<circle cx="100" cy="100" r="100" fill="#003366"/>
<path d="M138.697 91.4377C139.437 91.9711 140.122 92.5353 140.806 93.1389C141.017 93.3162 141.227 93.4936 141.445 93.6763C143.686 95.7154 145.293 98.4282 146.6 101.146C147.735 103.426 149.143 104.687 151.21 106.139C151.77 106.544 152.329 106.951 152.887 107.358C153.133 107.532 153.379 107.706 153.632 107.885C153.808 108.024 153.985 108.163 154.167 108.306C154.167 108.425 154.167 108.544 154.167 108.667C153.88 108.659 153.593 108.652 153.297 108.644C142.983 108.212 142.983 108.212 133.945 112.639C131.777 114.752 130.514 117.228 129.225 119.921C128.256 121.923 127.135 123.623 125.639 125.278C125.456 125.49 125.273 125.701 125.085 125.92C118.969 132.546 109.512 135.613 100.722 136.111C100.282 136.137 99.8407 136.162 99.3866 136.189C93.5765 136.34 87.5851 135.583 81.922 134.306C81.5419 134.222 81.5419 134.222 81.1541 134.137C80.4649 133.967 80.4649 133.967 79.4168 133.583C79.2977 133.226 79.1785 132.868 79.0557 132.5C80.7241 132.023 82.3924 131.547 84.1113 131.056C73.4135 128.643 61.677 128.786 51.8327 134.186C50.8197 134.702 49.8075 135.054 48.7224 135.389C48.7224 135.627 48.7224 135.866 48.7224 136.111C47.6732 136.848 47.133 137.194 45.8335 137.194C46.0614 135.758 46.7833 134.771 47.5939 133.583C47.8462 133.211 48.0985 132.839 48.3585 132.455C48.5977 132.112 48.837 131.77 49.0835 131.417C49.3754 130.992 49.3754 130.992 49.6731 130.559C49.836 130.365 49.999 130.172 50.1668 129.972C50.4052 129.972 50.6435 129.972 50.8891 129.972C51.0189 129.667 51.0189 129.667 51.1514 129.356C53.8461 124.504 59.8387 121.309 64.6113 118.778C64.9287 118.607 65.2462 118.436 65.5733 118.26C70.6641 115.73 76.2513 115.004 81.8279 114.333C89.2923 113.433 96.4799 111.655 103.25 108.306C103.597 108.143 103.944 107.981 104.301 107.813C106.699 106.665 108.873 105.332 111.051 103.806C111.917 103.25 111.917 103.25 112.639 103.25C112.639 103.012 112.639 102.773 112.639 102.528C113.157 102.085 113.157 102.085 113.88 101.58C115.908 100.107 117.93 98.5408 119.495 96.5694C123.868 91.1444 132.269 87.6018 138.697 91.4377Z" fill="white"/>
<path d="M64.25 59.1945C65.3333 59.5556 65.3333 59.5556 65.9878 60.5486C66.6436 61.5229 67.0663 62.0155 67.9514 62.7153C68.2791 62.9834 68.6068 63.2515 68.9444 63.5278C68.9444 63.7661 68.9444 64.0045 68.9444 64.25C69.1362 64.3333 69.328 64.4167 69.5256 64.5025C70.6605 65.12 71.6373 65.9098 72.6458 66.7101C74.3632 68.0546 76.0893 69.2813 77.9722 70.3889C77.8158 70.0063 77.6594 69.6236 77.4983 69.2294C77.2951 68.7282 77.092 68.227 76.8889 67.7257C76.7855 67.4734 76.6822 67.2211 76.5757 66.9612C75.8056 65.054 75.8056 65.054 75.8056 64.25C77.0051 64.6499 77.161 64.8685 77.9045 65.8299C82.6244 71.3331 89.5924 74.6895 95.8698 78.0625C101.883 81.307 107.911 85.4054 110.529 92.0288C111.117 94.1714 111.305 96.6134 110.492 98.7164C110.051 99.4462 109.586 100.079 109.028 100.722C108.782 101.007 108.782 101.007 108.531 101.298C108.057 101.806 108.057 101.806 107.222 102.528C106.984 102.528 106.746 102.528 106.5 102.528C106.411 102.796 106.322 103.064 106.231 103.34C105.156 105.696 102.454 107.556 100.185 108.72C97.7056 109.561 95.0861 109.4 92.7101 108.328C87.3889 105.263 83.6916 100.044 80.5 94.9445C80.3563 94.7161 80.2126 94.4878 80.0645 94.2526C64.25 68.8924 64.25 68.8924 64.25 59.1945Z" fill="white"/>
<path d="M64.25 59.1945C65.8358 59.7231 66.012 60.6311 66.7778 62.0833C66.3011 62.2025 65.8244 62.3217 65.3333 62.4445C64.9758 61.372 64.6183 60.2995 64.25 59.1945Z" fill="white"/>
</svg>
