<svg width="800" height="480" viewBox="0 0 800 480" fill="none" xmlns="http://www.w3.org/2000/svg">
<rect width="800" height="480" fill="white"/>
<rect x="88" y="138" width="173" height="52" rx="26" fill="#333333"/>
<path d="M134.036 163.478C134.036 161.574 134.475 159.866 135.352 158.354C136.248 156.842 137.452 155.666 138.964 154.826C140.495 153.967 142.165 153.538 143.976 153.538C146.048 153.538 147.887 154.051 149.492 155.078C151.116 156.086 152.292 157.523 153.02 159.39H149.184C148.68 158.363 147.98 157.598 147.084 157.094C146.188 156.59 145.152 156.338 143.976 156.338C142.688 156.338 141.54 156.627 140.532 157.206C139.524 157.785 138.731 158.615 138.152 159.698C137.592 160.781 137.312 162.041 137.312 163.478C137.312 164.915 137.592 166.175 138.152 167.258C138.731 168.341 139.524 169.181 140.532 169.778C141.54 170.357 142.688 170.646 143.976 170.646C145.152 170.646 146.188 170.394 147.084 169.89C147.98 169.386 148.68 168.621 149.184 167.594H153.02C152.292 169.461 151.116 170.898 149.492 171.906C147.887 172.914 146.048 173.418 143.976 173.418C142.147 173.418 140.476 172.998 138.964 172.158C137.452 171.299 136.248 170.114 135.352 168.602C134.475 167.09 134.036 165.382 134.036 163.478ZM159.948 152.53V173.25H156.756V152.53H159.948ZM165.763 155.778C165.184 155.778 164.699 155.582 164.307 155.19C163.915 154.798 163.719 154.313 163.719 153.734C163.719 153.155 163.915 152.67 164.307 152.278C164.699 151.886 165.184 151.69 165.763 151.69C166.323 151.69 166.799 151.886 167.191 152.278C167.583 152.67 167.779 153.155 167.779 153.734C167.779 154.313 167.583 154.798 167.191 155.19C166.799 155.582 166.323 155.778 165.763 155.778ZM167.331 157.822V173.25H164.139V157.822H167.331ZM185.662 165.158C185.662 165.737 185.625 166.259 185.55 166.726H173.762C173.855 167.958 174.313 168.947 175.134 169.694C175.955 170.441 176.963 170.814 178.158 170.814C179.875 170.814 181.089 170.095 181.798 168.658H185.242C184.775 170.077 183.926 171.243 182.694 172.158C181.481 173.054 179.969 173.502 178.158 173.502C176.683 173.502 175.358 173.175 174.182 172.522C173.025 171.85 172.11 170.917 171.438 169.722C170.785 168.509 170.458 167.109 170.458 165.522C170.458 163.935 170.775 162.545 171.41 161.35C172.063 160.137 172.969 159.203 174.126 158.55C175.302 157.897 176.646 157.57 178.158 157.57C179.614 157.57 180.911 157.887 182.05 158.522C183.189 159.157 184.075 160.053 184.71 161.21C185.345 162.349 185.662 163.665 185.662 165.158ZM182.33 164.15C182.311 162.974 181.891 162.031 181.07 161.322C180.249 160.613 179.231 160.258 178.018 160.258C176.917 160.258 175.974 160.613 175.19 161.322C174.406 162.013 173.939 162.955 173.79 164.15H182.33ZM196.587 157.57C197.8 157.57 198.883 157.822 199.835 158.326C200.806 158.83 201.562 159.577 202.103 160.566C202.644 161.555 202.915 162.75 202.915 164.15V173.25H199.751V164.626C199.751 163.245 199.406 162.19 198.715 161.462C198.024 160.715 197.082 160.342 195.887 160.342C194.692 160.342 193.74 160.715 193.031 161.462C192.34 162.19 191.995 163.245 191.995 164.626V173.25H188.803V157.822H191.995V159.586C192.518 158.951 193.18 158.457 193.983 158.102C194.804 157.747 195.672 157.57 196.587 157.57ZM210.711 160.426V168.966C210.711 169.545 210.841 169.965 211.103 170.226C211.383 170.469 211.849 170.59 212.503 170.59H214.463V173.25H211.943C210.505 173.25 209.404 172.914 208.639 172.242C207.873 171.57 207.491 170.478 207.491 168.966V160.426H205.671V157.822H207.491V153.986H210.711V157.822H214.463V160.426H210.711Z" fill="#F5F5F5"/>
<circle cx="612" cy="240" r="100" fill="#003366"/>
<path d="M650.697 231.438C651.437 231.971 652.122 232.535 652.806 233.139C653.017 233.316 653.227 233.494 653.445 233.676C655.686 235.715 657.293 238.428 658.6 241.146C659.735 243.426 661.143 244.687 663.21 246.139C663.77 246.544 664.329 246.951 664.887 247.358C665.133 247.532 665.379 247.706 665.632 247.885C665.808 248.024 665.985 248.163 666.167 248.306C666.167 248.425 666.167 248.544 666.167 248.667C665.88 248.659 665.593 248.652 665.297 248.644C654.983 248.212 654.983 248.212 645.945 252.639C643.777 254.752 642.514 257.228 641.225 259.921C640.256 261.923 639.135 263.623 637.639 265.278C637.456 265.49 637.273 265.701 637.085 265.92C630.969 272.546 621.512 275.613 612.722 276.111C612.282 276.137 611.841 276.162 611.387 276.189C605.577 276.34 599.585 275.583 593.922 274.306C593.542 274.222 593.542 274.222 593.154 274.137C592.465 273.967 592.465 273.967 591.417 273.583C591.298 273.226 591.178 272.868 591.056 272.5C592.724 272.023 594.392 271.547 596.111 271.056C585.414 268.643 573.677 268.786 563.833 274.186C562.82 274.702 561.807 275.054 560.722 275.389C560.722 275.627 560.722 275.866 560.722 276.111C559.673 276.848 559.133 277.194 557.833 277.194C558.061 275.758 558.783 274.771 559.594 273.583C559.846 273.211 560.099 272.839 560.358 272.455C560.598 272.112 560.837 271.77 561.083 271.417C561.375 270.992 561.375 270.992 561.673 270.559C561.836 270.365 561.999 270.172 562.167 269.972C562.405 269.972 562.643 269.972 562.889 269.972C563.019 269.667 563.019 269.667 563.151 269.356C565.846 264.504 571.839 261.309 576.611 258.778C576.929 258.607 577.246 258.436 577.573 258.26C582.664 255.73 588.251 255.004 593.828 254.333C601.292 253.433 608.48 251.655 615.25 248.306C615.597 248.143 615.944 247.981 616.301 247.813C618.699 246.665 620.873 245.332 623.051 243.806C623.917 243.25 623.917 243.25 624.639 243.25C624.639 243.012 624.639 242.773 624.639 242.528C625.157 242.085 625.157 242.085 625.88 241.58C627.908 240.107 629.93 238.541 631.495 236.569C635.868 231.144 644.269 227.602 650.697 231.438Z" fill="white"/>
<path d="M576.25 199.194C577.333 199.556 577.333 199.556 577.988 200.549C578.644 201.523 579.066 202.016 579.951 202.715C580.279 202.983 580.607 203.252 580.944 203.528C580.944 203.766 580.944 204.004 580.944 204.25C581.136 204.333 581.328 204.417 581.526 204.503C582.66 205.12 583.637 205.91 584.646 206.71C586.363 208.055 588.089 209.281 589.972 210.389C589.816 210.006 589.659 209.624 589.498 209.229C589.295 208.728 589.092 208.227 588.889 207.726C588.786 207.473 588.682 207.221 588.576 206.961C587.806 205.054 587.806 205.054 587.806 204.25C589.005 204.65 589.161 204.869 589.905 205.83C594.624 211.333 601.592 214.689 607.87 218.063C613.883 221.307 619.911 225.405 622.529 232.029C623.117 234.171 623.305 236.613 622.492 238.716C622.051 239.446 621.586 240.079 621.028 240.722C620.782 241.007 620.782 241.007 620.531 241.298C620.057 241.806 620.057 241.806 619.222 242.528C618.984 242.528 618.746 242.528 618.5 242.528C618.411 242.796 618.322 243.064 618.231 243.34C617.156 245.696 614.454 247.556 612.185 248.72C609.706 249.561 607.086 249.4 604.71 248.328C599.389 245.263 595.692 240.044 592.5 234.944C592.356 234.716 592.213 234.488 592.064 234.253C576.25 208.892 576.25 208.892 576.25 199.194Z" fill="white"/>
<path d="M576.25 199.194C577.836 199.723 578.012 200.631 578.778 202.083C578.301 202.203 577.824 202.322 577.333 202.444C576.976 201.372 576.618 200.299 576.25 199.194Z" fill="white"/>
<path d="M114.564 260L98.962 241.962V260H92.35V219.69H98.962V238.076L114.622 219.69H122.916L105.4 239.874L123.206 260H114.564ZM132.417 223.808C131.218 223.808 130.213 223.402 129.401 222.59C128.589 221.778 128.183 220.773 128.183 219.574C128.183 218.375 128.589 217.37 129.401 216.558C130.213 215.746 131.218 215.34 132.417 215.34C133.577 215.34 134.563 215.746 135.375 216.558C136.187 217.37 136.593 218.375 136.593 219.574C136.593 220.773 136.187 221.778 135.375 222.59C134.563 223.402 133.577 223.808 132.417 223.808ZM135.665 228.042V260H129.053V228.042H135.665ZM142.142 243.992C142.142 240.705 142.799 237.825 144.114 235.35C145.467 232.837 147.323 230.903 149.682 229.55C152.041 228.197 154.747 227.52 157.802 227.52C161.669 227.52 164.859 228.448 167.372 230.304C169.924 232.121 171.645 234.731 172.534 238.134H165.4C164.82 236.549 163.892 235.311 162.616 234.422C161.34 233.533 159.735 233.088 157.802 233.088C155.095 233.088 152.93 234.055 151.306 235.988C149.721 237.883 148.928 240.551 148.928 243.992C148.928 247.433 149.721 250.121 151.306 252.054C152.93 253.987 155.095 254.954 157.802 254.954C161.63 254.954 164.163 253.272 165.4 249.908H172.534C171.606 253.156 169.866 255.747 167.314 257.68C164.762 259.575 161.591 260.522 157.802 260.522C154.747 260.522 152.041 259.845 149.682 258.492C147.323 257.1 145.467 255.167 144.114 252.692C142.799 250.179 142.142 247.279 142.142 243.992ZM176.919 243.876C176.919 240.667 177.577 237.825 178.891 235.35C180.245 232.875 182.062 230.961 184.343 229.608C186.663 228.216 189.215 227.52 191.999 227.52C194.513 227.52 196.697 228.023 198.553 229.028C200.448 229.995 201.956 231.213 203.077 232.682V228.042H209.747V260H203.077V255.244C201.956 256.752 200.429 258.009 198.495 259.014C196.562 260.019 194.358 260.522 191.883 260.522C189.138 260.522 186.625 259.826 184.343 258.434C182.062 257.003 180.245 255.031 178.891 252.518C177.577 249.966 176.919 247.085 176.919 243.876ZM203.077 243.992C203.077 241.788 202.613 239.874 201.685 238.25C200.796 236.626 199.617 235.389 198.147 234.538C196.678 233.687 195.093 233.262 193.391 233.262C191.69 233.262 190.105 233.687 188.635 234.538C187.166 235.35 185.967 236.568 185.039 238.192C184.15 239.777 183.705 241.672 183.705 243.876C183.705 246.08 184.15 248.013 185.039 249.676C185.967 251.339 187.166 252.615 188.635 253.504C190.143 254.355 191.729 254.78 193.391 254.78C195.093 254.78 196.678 254.355 198.147 253.504C199.617 252.653 200.796 251.416 201.685 249.792C202.613 248.129 203.077 246.196 203.077 243.992ZM247.374 228.042V260H240.762V256.23C239.718 257.545 238.345 258.589 236.644 259.362C234.981 260.097 233.203 260.464 231.308 260.464C228.795 260.464 226.533 259.942 224.522 258.898C222.55 257.854 220.984 256.307 219.824 254.258C218.703 252.209 218.142 249.734 218.142 246.834V228.042H224.696V245.848C224.696 248.709 225.411 250.913 226.842 252.46C228.273 253.968 230.225 254.722 232.7 254.722C235.175 254.722 237.127 253.968 238.558 252.46C240.027 250.913 240.762 248.709 240.762 245.848V228.042H247.374ZM313.62 219.69V260H307.008V232.392L294.712 260H290.13L277.776 232.392V260H271.164V219.69H278.298L292.45 251.3L306.544 219.69H313.62ZM320.107 243.876C320.107 240.667 320.764 237.825 322.079 235.35C323.432 232.875 325.25 230.961 327.531 229.608C329.851 228.216 332.403 227.52 335.187 227.52C337.7 227.52 339.885 228.023 341.741 229.028C343.636 229.995 345.144 231.213 346.265 232.682V228.042H352.935V260H346.265V255.244C345.144 256.752 343.616 258.009 341.683 259.014C339.75 260.019 337.546 260.522 335.071 260.522C332.326 260.522 329.812 259.826 327.531 258.434C325.25 257.003 323.432 255.031 322.079 252.518C320.764 249.966 320.107 247.085 320.107 243.876ZM346.265 243.992C346.265 241.788 345.801 239.874 344.873 238.25C343.984 236.626 342.804 235.389 341.335 234.538C339.866 233.687 338.28 233.262 336.579 233.262C334.878 233.262 333.292 233.687 331.823 234.538C330.354 235.35 329.155 236.568 328.227 238.192C327.338 239.777 326.893 241.672 326.893 243.876C326.893 246.08 327.338 248.013 328.227 249.676C329.155 251.339 330.354 252.615 331.823 253.504C333.331 254.355 334.916 254.78 336.579 254.78C338.28 254.78 339.866 254.355 341.335 253.504C342.804 252.653 343.984 251.416 344.873 249.792C345.801 248.129 346.265 246.196 346.265 243.992ZM377.744 227.52C380.257 227.52 382.5 228.042 384.472 229.086C386.482 230.13 388.048 231.677 389.17 233.726C390.291 235.775 390.852 238.25 390.852 241.15V260H384.298V242.136C384.298 239.275 383.582 237.09 382.152 235.582C380.721 234.035 378.768 233.262 376.294 233.262C373.819 233.262 371.847 234.035 370.378 235.582C368.947 237.09 368.232 239.275 368.232 242.136V260H361.62V228.042H368.232V231.696C369.314 230.381 370.687 229.357 372.35 228.622C374.051 227.887 375.849 227.52 377.744 227.52ZM402.65 223.808C401.451 223.808 400.446 223.402 399.634 222.59C398.822 221.778 398.416 220.773 398.416 219.574C398.416 218.375 398.822 217.37 399.634 216.558C400.446 215.746 401.451 215.34 402.65 215.34C403.81 215.34 404.796 215.746 405.608 216.558C406.42 217.37 406.826 218.375 406.826 219.574C406.826 220.773 406.42 221.778 405.608 222.59C404.796 223.402 403.81 223.808 402.65 223.808ZM405.898 228.042V260H399.286V228.042H405.898ZM412.375 243.876C412.375 240.667 413.032 237.825 414.347 235.35C415.7 232.875 417.517 230.961 419.799 229.608C422.119 228.216 424.671 227.52 427.455 227.52C429.968 227.52 432.153 228.023 434.009 229.028C435.903 229.995 437.411 231.213 438.533 232.682V228.042H445.203V260H438.533V255.244C437.411 256.752 435.884 258.009 433.951 259.014C432.017 260.019 429.813 260.522 427.339 260.522C424.593 260.522 422.08 259.826 419.799 258.434C417.517 257.003 415.7 255.031 414.347 252.518C413.032 249.966 412.375 247.085 412.375 243.876ZM438.533 243.992C438.533 241.788 438.069 239.874 437.141 238.25C436.251 236.626 435.072 235.389 433.603 234.538C432.133 233.687 430.548 233.262 428.847 233.262C427.145 233.262 425.56 233.687 424.091 234.538C422.621 235.35 421.423 236.568 420.495 238.192C419.605 239.777 419.161 241.672 419.161 243.876C419.161 246.08 419.605 248.013 420.495 249.676C421.423 251.339 422.621 252.615 424.091 253.504C425.599 254.355 427.184 254.78 428.847 254.78C430.548 254.78 432.133 254.355 433.603 253.504C435.072 252.653 436.251 251.416 437.141 249.792C438.069 248.129 438.533 246.196 438.533 243.992Z" fill="#333333"/>
<path d="M113.824 300.76V323H110.176V307.768L103.392 323H100.864L94.048 307.768V323H90.4V300.76H94.336L102.144 318.2L109.92 300.76H113.824ZM126.267 323.288C124.603 323.288 123.099 322.915 121.755 322.168C120.411 321.4 119.355 320.333 118.587 318.968C117.819 317.581 117.435 315.981 117.435 314.168C117.435 312.376 117.829 310.787 118.619 309.4C119.408 308.013 120.485 306.947 121.851 306.2C123.216 305.453 124.741 305.08 126.427 305.08C128.112 305.08 129.637 305.453 131.003 306.2C132.368 306.947 133.445 308.013 134.235 309.4C135.024 310.787 135.419 312.376 135.419 314.168C135.419 315.96 135.013 317.549 134.203 318.936C133.392 320.323 132.283 321.4 130.875 322.168C129.488 322.915 127.952 323.288 126.267 323.288ZM126.267 320.12C127.205 320.12 128.08 319.896 128.891 319.448C129.723 319 130.395 318.328 130.907 317.432C131.419 316.536 131.675 315.448 131.675 314.168C131.675 312.888 131.429 311.811 130.939 310.936C130.448 310.04 129.797 309.368 128.987 308.92C128.176 308.472 127.301 308.248 126.363 308.248C125.424 308.248 124.549 308.472 123.739 308.92C122.949 309.368 122.32 310.04 121.851 310.936C121.381 311.811 121.147 312.888 121.147 314.168C121.147 316.067 121.627 317.539 122.587 318.584C123.568 319.608 124.795 320.12 126.267 320.12ZM142.673 307.992C143.292 307.139 144.134 306.445 145.201 305.912C146.289 305.357 147.494 305.08 148.817 305.08C150.374 305.08 151.782 305.453 153.041 306.2C154.3 306.947 155.292 308.013 156.017 309.4C156.742 310.765 157.105 312.333 157.105 314.104C157.105 315.875 156.742 317.464 156.017 318.872C155.292 320.259 154.289 321.347 153.009 322.136C151.75 322.904 150.353 323.288 148.817 323.288C147.452 323.288 146.236 323.021 145.169 322.488C144.124 321.955 143.292 321.272 142.673 320.44V323H139.025V299.32H142.673V307.992ZM153.393 314.104C153.393 312.888 153.137 311.843 152.625 310.968C152.134 310.072 151.473 309.4 150.641 308.952C149.83 308.483 148.956 308.248 148.017 308.248C147.1 308.248 146.225 308.483 145.393 308.952C144.582 309.421 143.921 310.104 143.409 311C142.918 311.896 142.673 312.952 142.673 314.168C142.673 315.384 142.918 316.451 143.409 317.368C143.921 318.264 144.582 318.947 145.393 319.416C146.225 319.885 147.1 320.12 148.017 320.12C148.956 320.12 149.83 319.885 150.641 319.416C151.473 318.925 152.134 318.221 152.625 317.304C153.137 316.387 153.393 315.32 153.393 314.104ZM162.569 303.032C161.907 303.032 161.353 302.808 160.905 302.36C160.457 301.912 160.233 301.357 160.233 300.696C160.233 300.035 160.457 299.48 160.905 299.032C161.353 298.584 161.907 298.36 162.569 298.36C163.209 298.36 163.753 298.584 164.201 299.032C164.649 299.48 164.873 300.035 164.873 300.696C164.873 301.357 164.649 301.912 164.201 302.36C163.753 302.808 163.209 303.032 162.569 303.032ZM164.361 305.368V323H160.713V305.368H164.361ZM172.798 299.32V323H169.15V299.32H172.798ZM193.748 313.752C193.748 314.413 193.705 315.011 193.62 315.544H180.148C180.254 316.952 180.777 318.083 181.716 318.936C182.654 319.789 183.806 320.216 185.172 320.216C187.134 320.216 188.521 319.395 189.332 317.752H193.267C192.734 319.373 191.764 320.707 190.356 321.752C188.969 322.776 187.241 323.288 185.172 323.288C183.486 323.288 181.972 322.915 180.628 322.168C179.305 321.4 178.26 320.333 177.492 318.968C176.745 317.581 176.372 315.981 176.372 314.168C176.372 312.355 176.734 310.765 177.46 309.4C178.206 308.013 179.241 306.947 180.564 306.2C181.908 305.453 183.444 305.08 185.172 305.08C186.836 305.08 188.318 305.443 189.62 306.168C190.921 306.893 191.934 307.917 192.66 309.24C193.385 310.541 193.748 312.045 193.748 313.752ZM189.94 312.6C189.918 311.256 189.438 310.179 188.5 309.368C187.561 308.557 186.398 308.152 185.012 308.152C183.753 308.152 182.676 308.557 181.78 309.368C180.884 310.157 180.35 311.235 180.18 312.6H189.94ZM219.058 318.456H209.746L208.146 323H204.338L212.306 300.728H216.53L224.498 323H220.658L219.058 318.456ZM218.034 315.48L214.418 305.144L210.77 315.48H218.034ZM231.611 307.96C232.229 307.149 233.072 306.467 234.139 305.912C235.205 305.357 236.411 305.08 237.755 305.08C239.291 305.08 240.688 305.464 241.947 306.232C243.227 306.979 244.229 308.035 244.955 309.4C245.68 310.765 246.043 312.333 246.043 314.104C246.043 315.875 245.68 317.464 244.955 318.872C244.229 320.259 243.227 321.347 241.947 322.136C240.688 322.904 239.291 323.288 237.755 323.288C236.411 323.288 235.216 323.021 234.171 322.488C233.125 321.933 232.272 321.251 231.611 320.44V331.384H227.963V305.368H231.611V307.96ZM242.331 314.104C242.331 312.888 242.075 311.843 241.562 310.968C241.072 310.072 240.411 309.4 239.579 308.952C238.768 308.483 237.893 308.248 236.955 308.248C236.037 308.248 235.163 308.483 234.331 308.952C233.52 309.421 232.859 310.104 232.347 311C231.856 311.896 231.611 312.952 231.611 314.168C231.611 315.384 231.856 316.451 232.347 317.368C232.859 318.264 233.52 318.947 234.331 319.416C235.163 319.885 236.037 320.12 236.955 320.12C237.893 320.12 238.768 319.885 239.579 319.416C240.411 318.925 241.072 318.221 241.562 317.304C242.075 316.387 242.331 315.32 242.331 314.104ZM253.298 307.96C253.917 307.149 254.759 306.467 255.826 305.912C256.893 305.357 258.098 305.08 259.442 305.08C260.978 305.08 262.375 305.464 263.634 306.232C264.914 306.979 265.917 308.035 266.642 309.4C267.367 310.765 267.73 312.333 267.73 314.104C267.73 315.875 267.367 317.464 266.642 318.872C265.917 320.259 264.914 321.347 263.634 322.136C262.375 322.904 260.978 323.288 259.442 323.288C258.098 323.288 256.903 323.021 255.858 322.488C254.813 321.933 253.959 321.251 253.298 320.44V331.384H249.65V305.368H253.298V307.96ZM264.018 314.104C264.018 312.888 263.762 311.843 263.25 310.968C262.759 310.072 262.098 309.4 261.266 308.952C260.455 308.483 259.581 308.248 258.642 308.248C257.725 308.248 256.85 308.483 256.018 308.952C255.207 309.421 254.546 310.104 254.034 311C253.543 311.896 253.298 312.952 253.298 314.168C253.298 315.384 253.543 316.451 254.034 317.368C254.546 318.264 255.207 318.947 256.018 319.416C256.85 319.885 257.725 320.12 258.642 320.12C259.581 320.12 260.455 319.885 261.266 319.416C262.098 318.925 262.759 318.221 263.25 317.304C263.762 316.387 264.018 315.32 264.018 314.104ZM274.986 299.32V323H271.338V299.32H274.986ZM281.631 303.032C280.97 303.032 280.415 302.808 279.967 302.36C279.519 301.912 279.295 301.357 279.295 300.696C279.295 300.035 279.519 299.48 279.967 299.032C280.415 298.584 280.97 298.36 281.631 298.36C282.271 298.36 282.815 298.584 283.263 299.032C283.711 299.48 283.935 300.035 283.935 300.696C283.935 301.357 283.711 301.912 283.263 302.36C282.815 302.808 282.271 303.032 281.631 303.032ZM283.423 305.368V323H279.775V305.368H283.423ZM286.997 314.168C286.997 312.355 287.359 310.765 288.085 309.4C288.831 308.013 289.855 306.947 291.157 306.2C292.458 305.453 293.951 305.08 295.637 305.08C297.77 305.08 299.53 305.592 300.917 306.616C302.325 307.619 303.274 309.059 303.765 310.936H299.829C299.509 310.061 298.997 309.379 298.293 308.888C297.589 308.397 296.703 308.152 295.637 308.152C294.143 308.152 292.949 308.685 292.053 309.752C291.178 310.797 290.741 312.269 290.741 314.168C290.741 316.067 291.178 317.549 292.053 318.616C292.949 319.683 294.143 320.216 295.637 320.216C297.749 320.216 299.146 319.288 299.829 317.432H303.765C303.253 319.224 302.293 320.653 300.885 321.72C299.477 322.765 297.727 323.288 295.637 323.288C293.951 323.288 292.458 322.915 291.157 322.168C289.855 321.4 288.831 320.333 288.085 318.968C287.359 317.581 286.997 315.981 286.997 314.168ZM306.184 314.104C306.184 312.333 306.547 310.765 307.272 309.4C308.019 308.035 309.021 306.979 310.28 306.232C311.56 305.464 312.968 305.08 314.504 305.08C315.891 305.08 317.096 305.357 318.12 305.912C319.165 306.445 319.997 307.117 320.616 307.928V305.368H324.296V323H320.616V320.376C319.997 321.208 319.155 321.901 318.088 322.456C317.021 323.011 315.805 323.288 314.44 323.288C312.925 323.288 311.539 322.904 310.28 322.136C309.021 321.347 308.019 320.259 307.272 318.872C306.547 317.464 306.184 315.875 306.184 314.104ZM320.616 314.168C320.616 312.952 320.36 311.896 319.848 311C319.357 310.104 318.707 309.421 317.896 308.952C317.085 308.483 316.211 308.248 315.272 308.248C314.333 308.248 313.459 308.483 312.648 308.952C311.837 309.4 311.176 310.072 310.664 310.968C310.173 311.843 309.928 312.888 309.928 314.104C309.928 315.32 310.173 316.387 310.664 317.304C311.176 318.221 311.837 318.925 312.648 319.416C313.48 319.885 314.355 320.12 315.272 320.12C316.211 320.12 317.085 319.885 317.896 319.416C318.707 318.947 319.357 318.264 319.848 317.368C320.36 316.451 320.616 315.384 320.616 314.168ZM333.344 308.344V318.104C333.344 318.765 333.493 319.245 333.792 319.544C334.112 319.821 334.645 319.96 335.392 319.96H337.632V323H334.752C333.109 323 331.85 322.616 330.976 321.848C330.101 321.08 329.664 319.832 329.664 318.104V308.344H327.584V305.368H329.664V300.984H333.344V305.368H337.632V308.344H333.344ZM342.85 303.032C342.188 303.032 341.634 302.808 341.186 302.36C340.738 301.912 340.514 301.357 340.514 300.696C340.514 300.035 340.738 299.48 341.186 299.032C341.634 298.584 342.188 298.36 342.85 298.36C343.49 298.36 344.034 298.584 344.482 299.032C344.93 299.48 345.154 300.035 345.154 300.696C345.154 301.357 344.93 301.912 344.482 302.36C344.034 302.808 343.49 303.032 342.85 303.032ZM344.642 305.368V323H340.994V305.368H344.642ZM357.079 323.288C355.415 323.288 353.911 322.915 352.567 322.168C351.223 321.4 350.167 320.333 349.399 318.968C348.631 317.581 348.247 315.981 348.247 314.168C348.247 312.376 348.642 310.787 349.431 309.4C350.221 308.013 351.298 306.947 352.663 306.2C354.029 305.453 355.554 305.08 357.239 305.08C358.925 305.08 360.45 305.453 361.815 306.2C363.181 306.947 364.258 308.013 365.047 309.4C365.837 310.787 366.231 312.376 366.231 314.168C366.231 315.96 365.826 317.549 365.015 318.936C364.205 320.323 363.095 321.4 361.687 322.168C360.301 322.915 358.765 323.288 357.079 323.288ZM357.079 320.12C358.018 320.12 358.893 319.896 359.703 319.448C360.535 319 361.207 318.328 361.719 317.432C362.231 316.536 362.487 315.448 362.487 314.168C362.487 312.888 362.242 311.811 361.751 310.936C361.261 310.04 360.61 309.368 359.799 308.92C358.989 308.472 358.114 308.248 357.175 308.248C356.237 308.248 355.362 308.472 354.551 308.92C353.762 309.368 353.133 310.04 352.663 310.936C352.194 311.811 351.959 312.888 351.959 314.168C351.959 316.067 352.439 317.539 353.399 318.584C354.381 319.608 355.607 320.12 357.079 320.12ZM378.734 305.08C380.12 305.08 381.358 305.368 382.446 305.944C383.555 306.52 384.419 307.373 385.038 308.504C385.656 309.635 385.966 311 385.966 312.6V323H382.35V313.144C382.35 311.565 381.955 310.36 381.166 309.528C380.376 308.675 379.299 308.248 377.934 308.248C376.568 308.248 375.48 308.675 374.67 309.528C373.88 310.36 373.486 311.565 373.486 313.144V323H369.838V305.368H373.486V307.384C374.083 306.659 374.84 306.093 375.758 305.688C376.696 305.283 377.688 305.08 378.734 305.08ZM406.195 300.76C408.563 300.76 410.633 301.219 412.403 302.136C414.195 303.032 415.571 304.333 416.531 306.04C417.513 307.725 418.003 309.699 418.003 311.96C418.003 314.221 417.513 316.184 416.531 317.848C415.571 319.512 414.195 320.792 412.403 321.688C410.633 322.563 408.563 323 406.195 323H398.931V300.76H406.195ZM406.195 320.024C408.798 320.024 410.793 319.32 412.179 317.912C413.566 316.504 414.259 314.52 414.259 311.96C414.259 309.379 413.566 307.363 412.179 305.912C410.793 304.461 408.798 303.736 406.195 303.736H402.579V320.024H406.195ZM437.779 313.752C437.779 314.413 437.736 315.011 437.651 315.544H424.179C424.285 316.952 424.808 318.083 425.747 318.936C426.685 319.789 427.837 320.216 429.203 320.216C431.165 320.216 432.552 319.395 433.363 317.752H437.299C436.765 319.373 435.795 320.707 434.387 321.752C433 322.776 431.272 323.288 429.203 323.288C427.517 323.288 426.003 322.915 424.659 322.168C423.336 321.4 422.291 320.333 421.523 318.968C420.776 317.581 420.403 315.981 420.403 314.168C420.403 312.355 420.765 310.765 421.491 309.4C422.237 308.013 423.272 306.947 424.595 306.2C425.939 305.453 427.475 305.08 429.203 305.08C430.867 305.08 432.349 305.443 433.651 306.168C434.952 306.893 435.965 307.917 436.691 309.24C437.416 310.541 437.779 312.045 437.779 313.752ZM433.971 312.6C433.949 311.256 433.469 310.179 432.531 309.368C431.592 308.557 430.429 308.152 429.043 308.152C427.784 308.152 426.707 308.557 425.811 309.368C424.915 310.157 424.381 311.235 424.211 312.6H433.971ZM447.769 323.288C446.382 323.288 445.134 323.043 444.025 322.552C442.937 322.04 442.073 321.357 441.433 320.504C440.793 319.629 440.451 318.659 440.409 317.592H444.185C444.249 318.339 444.601 318.968 445.241 319.48C445.902 319.971 446.723 320.216 447.705 320.216C448.729 320.216 449.518 320.024 450.073 319.64C450.649 319.235 450.937 318.723 450.937 318.104C450.937 317.443 450.617 316.952 449.977 316.632C449.358 316.312 448.366 315.96 447.001 315.576C445.678 315.213 444.601 314.861 443.769 314.52C442.937 314.179 442.211 313.656 441.593 312.952C440.995 312.248 440.697 311.32 440.697 310.168C440.697 309.229 440.974 308.376 441.529 307.608C442.083 306.819 442.873 306.2 443.897 305.752C444.942 305.304 446.137 305.08 447.481 305.08C449.486 305.08 451.097 305.592 452.313 306.616C453.55 307.619 454.211 308.995 454.297 310.744H450.649C450.585 309.955 450.265 309.325 449.689 308.856C449.113 308.387 448.334 308.152 447.353 308.152C446.393 308.152 445.657 308.333 445.145 308.696C444.633 309.059 444.377 309.539 444.377 310.136C444.377 310.605 444.547 311 444.889 311.32C445.23 311.64 445.646 311.896 446.137 312.088C446.627 312.259 447.353 312.483 448.313 312.76C449.593 313.101 450.638 313.453 451.449 313.816C452.281 314.157 452.995 314.669 453.593 315.352C454.19 316.035 454.499 316.941 454.521 318.072C454.521 319.075 454.243 319.971 453.689 320.76C453.134 321.549 452.345 322.168 451.321 322.616C450.318 323.064 449.134 323.288 447.769 323.288ZM460.319 303.032C459.657 303.032 459.103 302.808 458.655 302.36C458.207 301.912 457.983 301.357 457.983 300.696C457.983 300.035 458.207 299.48 458.655 299.032C459.103 298.584 459.657 298.36 460.319 298.36C460.959 298.36 461.503 298.584 461.951 299.032C462.399 299.48 462.623 300.035 462.623 300.696C462.623 301.357 462.399 301.912 461.951 302.36C461.503 302.808 460.959 303.032 460.319 303.032ZM462.111 305.368V323H458.463V305.368H462.111ZM474.004 305.08C475.369 305.08 476.575 305.357 477.62 305.912C478.687 306.445 479.519 307.117 480.116 307.928V305.368H483.796V323.288C483.796 324.909 483.455 326.349 482.772 327.608C482.089 328.888 481.097 329.891 479.796 330.616C478.516 331.341 476.98 331.704 475.188 331.704C472.799 331.704 470.815 331.139 469.236 330.008C467.657 328.899 466.761 327.384 466.548 325.464H470.164C470.441 326.381 471.028 327.117 471.924 327.672C472.841 328.248 473.929 328.536 475.188 328.536C476.66 328.536 477.844 328.088 478.74 327.192C479.657 326.296 480.116 324.995 480.116 323.288V320.344C479.497 321.176 478.655 321.88 477.588 322.456C476.543 323.011 475.348 323.288 474.004 323.288C472.468 323.288 471.06 322.904 469.78 322.136C468.521 321.347 467.519 320.259 466.772 318.872C466.047 317.464 465.684 315.875 465.684 314.104C465.684 312.333 466.047 310.765 466.772 309.4C467.519 308.035 468.521 306.979 469.78 306.232C471.06 305.464 472.468 305.08 474.004 305.08ZM480.116 314.168C480.116 312.952 479.86 311.896 479.348 311C478.857 310.104 478.207 309.421 477.396 308.952C476.585 308.483 475.711 308.248 474.772 308.248C473.833 308.248 472.959 308.483 472.148 308.952C471.337 309.4 470.676 310.072 470.164 310.968C469.673 311.843 469.428 312.888 469.428 314.104C469.428 315.32 469.673 316.387 470.164 317.304C470.676 318.221 471.337 318.925 472.148 319.416C472.98 319.885 473.855 320.12 474.772 320.12C475.711 320.12 476.585 319.885 477.396 319.416C478.207 318.947 478.857 318.264 479.348 317.368C479.86 316.451 480.116 315.384 480.116 314.168ZM497.484 305.08C498.87 305.08 500.108 305.368 501.196 305.944C502.305 306.52 503.169 307.373 503.788 308.504C504.406 309.635 504.716 311 504.716 312.6V323H501.1V313.144C501.1 311.565 500.705 310.36 499.916 309.528C499.126 308.675 498.049 308.248 496.684 308.248C495.318 308.248 494.23 308.675 493.42 309.528C492.63 310.36 492.236 311.565 492.236 313.144V323H488.588V305.368H492.236V307.384C492.833 306.659 493.59 306.093 494.508 305.688C495.446 305.283 496.438 305.08 497.484 305.08Z" fill="#909090"/>
</svg>
