<svg width="141" height="4" viewBox="0 0 141 4" fill="none" xmlns="http://www.w3.org/2000/svg">
<path d="M23.3252 0.624804C63.4712 0.79962 103.617 0.974436 123.408 1.1956C143.2 1.41676 141.42 1.67898 137.734 1.94517C134.049 2.21136 128.511 2.47358 104.004 2.60867C79.496 2.74375 36.1858 2.74375 15.1599 2.48153C-5.86592 2.21931 -3.29499 1.69488 19.4868 1.2936C42.2685 0.892329 85.1832 0.630108 108.082 0.538727C130.98 0.447345 132.563 0.53475 134.193 0.624804" stroke="#0d777fff" stroke-linecap="round"/>
<path d="M125.203 0.625854C87.6283 1.41251 50.0532 2.19917 29.312 2.69182C5.78763 3.25058 1.56519 3.53939 0.0609932 3.49569C1.12772 3.36458 5.31672 3.01231 10.2069 2.61502C12.1306 2.47994 12.9216 2.47994 13.7366 2.47994" stroke="#0d777fff" stroke-linecap="round"/>
</svg>
