<svg width="12" height="15" viewBox="0 0 12 15" fill="none" xmlns="http://www.w3.org/2000/svg">
  <defs>
    <linearGradient id="location-grad" x1="0%" y1="0%" x2="100%" y2="0%">
      <stop offset="0%" stop-color="#22d3ee" /> <stop offset="100%" stop-color="#2563eb" /> </linearGradient>
  </defs>

  <path d="M6 7.42424C6.88365 7.42424 7.59999 6.73334 7.59999 5.88106C7.59999 5.02879 6.88365 4.33788 6 4.33788C5.11634 4.33788 4.4 5.02879 4.4 5.88106C4.4 6.73334 5.11634 7.42424 6 7.42424Z" 
        fill="url(#location-grad)"/>

  <path d="M6 0C4.40922 0.00163396 2.88408 0.611851 1.75924 1.69676C0.634388 2.78166 0.00170472 4.25264 1.06046e-05 5.78693C-0.00241412 7.0247 0.411029 8.22992 1.17841 9.22205C1.19291 9.24637 1.20894 9.26982 1.22641 9.29226L5.36 14.6872C5.43439 14.7842 5.53133 14.8631 5.64303 14.9174C5.75474 14.9717 5.87809 15 6.00319 15C6.1283 15 6.25165 14.9717 6.36336 14.9174C6.47506 14.8631 6.572 14.7842 6.64639 14.6872L10.7768 9.29226C10.7942 9.27009 10.8103 9.24689 10.8248 9.22282C11.591 8.23002 12.0033 7.02459 12 5.78693C11.9983 4.25264 11.3656 2.78166 10.2408 1.69676C9.11591 0.611851 7.59077 0.00163396 6 0ZM6 8.96742C5.3671 8.96742 4.74841 8.78641 4.22218 8.44728C3.69594 8.10814 3.28579 7.62612 3.04359 7.06216C2.80139 6.4982 2.73802 5.87764 2.86149 5.27894C2.98496 4.68025 3.28973 4.13031 3.73726 3.69867C4.18479 3.26704 4.75497 2.97309 5.37571 2.854C5.99645 2.73492 6.63986 2.79604 7.22458 3.02964C7.8093 3.26323 8.30907 3.65882 8.66069 4.16637C9.01231 4.67392 9.19999 5.27064 9.19999 5.88106C9.19999 6.69962 8.86285 7.48464 8.26273 8.06345C7.66262 8.64225 6.84869 8.96742 6 8.96742Z" 
        fill="url(#location-grad)"/>
</svg>