<svg width="14" height="10" viewBox="0 0 14 10" fill="none" xmlns="http://www.w3.org/2000/svg">
<path d="M6.66667 5.60933L12.85 0.314667C12.6126 0.112943 12.3116 0.0015066 12 0H1.33333C1.02178 0.0015066 0.720764 0.112943 0.483333 0.314667L6.66667 5.60933Z" fill="#40E4F1"/>
<path d="M7.5 6.65133C7.25737 6.83692 6.9608 6.93827 6.65533 6.94C6.37066 6.94058 6.09356 6.84837 5.866 6.67733L0 1.656V8.66667C0 9.02029 0.140476 9.35943 0.390524 9.60948C0.640573 9.85952 0.979711 10 1.33333 10H12C12.3536 10 12.6928 9.85952 12.9428 9.60948C13.1929 9.35943 13.3333 9.02029 13.3333 8.66667V1.656L7.5 6.65133Z" fill="#40E4F1"/>
</svg>
