<svg width="200" height="200" viewBox="0 0 200 200" fill="none" xmlns="http://www.w3.org/2000/svg">
<circle cx="100" cy="100" r="100" fill="#31C48D"/>
<path d="M100.431 118.387C106.772 118.387 111.912 113.247 111.912 106.906C111.912 100.564 106.772 95.424 100.431 95.424C94.0894 95.424 88.949 100.564 88.949 106.906C88.949 113.247 94.0894 118.387 100.431 118.387Z" fill="white"/>
<path fill-rule="evenodd" clip-rule="evenodd" d="M76.083 63.6623L100.873 49L124.507 63.5077L124.657 91.1336L112.924 98.6251C112.924 98.6251 106.023 92.0987 99.7449 92.0974C93.4661 92.0962 87.8289 98.6202 87.8289 98.6202L76.7632 91.1665L76.083 63.6623ZM78.9627 88.6492L99.2776 76.5346L99.0666 52.9199L78.2074 65.3237L78.9627 88.6492ZM80.0984 91.632C81.2329 91.632 87.5459 95.926 87.5459 95.926C87.5459 95.926 93.2482 89.5789 99.9752 89.7856C106.702 89.9923 113.206 96.0942 113.206 96.0942L122.094 90.8587L100.682 79.3783C100.682 79.3783 78.9633 91.632 80.0984 91.632ZM75.0925 150.544L50 136.406L50.7466 108.685L75.2166 94.1207L86.9507 101.157C86.9507 101.157 84.8319 110.087 87.9698 115.525C91.1083 120.963 99.4942 122.892 99.4942 122.892L99.1926 136.202L75.0925 150.544ZM95.2919 135.556L74.6425 124.021L54.2978 136.01L75.4686 147.874L95.2913 135.557L95.2919 135.556ZM97.3071 133.082C96.7392 132.099 97.3021 124.485 97.3021 124.485C97.3021 124.485 89.0373 122.409 85.8529 116.481C82.6691 110.552 84.6178 102.178 84.6178 102.178L75.6392 97.099L76.4032 121.382C76.4032 121.382 97.8744 134.064 97.3071 133.081V133.082ZM149.697 107.725L150 136.525L125.619 149.739L101.619 136.057L100.999 122.769C100.999 122.769 109.397 120.988 112.537 115.551C115.678 110.115 114.17 101.039 114.17 101.039L125.537 94.5625L149.697 107.725ZM126.618 97.7259L126.953 121.377L147.508 133.001L147.197 108.735L126.618 97.7259ZM124.088 97.8394L116.645 102.142C116.645 102.142 117.966 111.185 114.424 116.906C110.881 122.628 103.669 124.28 103.669 124.28L103.76 133.353L123.787 121.171L124.088 97.8394Z" fill="white"/>
</svg>
