<svg width="420" height="260" viewBox="0 0 420 260" fill="none" xmlns="http://www.w3.org/2000/svg">
<rect width="420" height="260" rx="10" fill="#181C14"/>
<g clip-path="url(#clip0_350_202)">
<path d="M404 10H16C12.6863 10 10 12.6863 10 16V244C10 247.314 12.6863 250 16 250H404C407.314 250 410 247.314 410 244V16C410 12.6863 407.314 10 404 10Z" fill="white"/>
<path d="M127.5 79H67C59.8203 79 54 84.8203 54 92C54 99.1797 59.8203 105 67 105H127.5C134.68 105 140.5 99.1797 140.5 92C140.5 84.8203 134.68 79 127.5 79Z" fill="#333333"/>
<path d="M88.336 86.3949V87.6969H85.746V96.1249H84.15V87.6969H81.546V86.3949H88.336ZM89.4205 92.2329C89.4205 91.4584 89.579 90.7724 89.8965 90.1749C90.223 89.5774 90.6615 89.1154 91.2125 88.7889C91.7725 88.4529 92.3885 88.2849 93.0605 88.2849C93.667 88.2849 94.1945 88.4064 94.6425 88.6489C95.0995 88.8824 95.4635 89.1764 95.7345 89.5309V88.4109H97.3445V96.1249H95.7345V94.9769C95.4635 95.3409 95.095 95.6444 94.6285 95.8869C94.1615 96.1294 93.6295 96.2509 93.0325 96.2509C92.3695 96.2509 91.763 96.0829 91.2125 95.7469C90.6615 95.4014 90.223 94.9254 89.8965 94.3189C89.579 93.7029 89.4205 93.0074 89.4205 92.2329ZM95.7345 92.2609C95.7345 91.7289 95.6225 91.2669 95.3985 90.8749C95.1835 90.4829 94.899 90.1844 94.5445 89.9789C94.1895 89.7734 93.807 89.6709 93.3965 89.6709C92.9855 89.6709 92.603 89.7734 92.2485 89.9789C91.8935 90.1749 91.6045 90.4689 91.3805 90.8609C91.1655 91.2434 91.0585 91.7009 91.0585 92.2329C91.0585 92.7649 91.1655 93.2314 91.3805 93.6329C91.6045 94.0344 91.8935 94.3424 92.2485 94.5569C92.6125 94.7624 92.995 94.8649 93.3965 94.8649C93.807 94.8649 94.1895 94.7624 94.5445 94.5569C94.899 94.3514 95.1835 94.0529 95.3985 93.6609C95.6225 93.2594 95.7345 92.7929 95.7345 92.2609ZM102.241 96.2509C101.634 96.2509 101.088 96.1434 100.603 95.9289C100.127 95.7049 99.7485 95.4064 99.4685 95.0329C99.1885 94.6504 99.0395 94.2254 99.0205 93.7589H100.673C100.701 94.0854 100.855 94.3609 101.135 94.5849C101.424 94.7994 101.784 94.9069 102.213 94.9069C102.661 94.9069 103.006 94.8229 103.249 94.6549C103.501 94.4774 103.627 94.2534 103.627 93.9829C103.627 93.6934 103.487 93.4789 103.207 93.3389C102.936 93.1989 102.502 93.0449 101.905 92.8769C101.326 92.7184 100.855 92.5644 100.491 92.4149C100.127 92.2654 99.8095 92.0369 99.5385 91.7289C99.2775 91.4209 99.1465 91.0149 99.1465 90.5109C99.1465 90.1004 99.268 89.7269 99.5105 89.3909C99.7535 89.0454 100.099 88.7749 100.547 88.5789C101.004 88.3829 101.527 88.2849 102.115 88.2849C102.992 88.2849 103.697 88.5089 104.229 88.9569C104.77 89.3954 105.06 89.9974 105.097 90.7629H103.501C103.473 90.4174 103.333 90.1424 103.081 89.9369C102.829 89.7314 102.488 89.6289 102.059 89.6289C101.639 89.6289 101.317 89.7084 101.093 89.8669C100.869 90.0254 100.757 90.2354 100.757 90.4969C100.757 90.7024 100.832 90.8749 100.981 91.0149C101.13 91.1549 101.312 91.2669 101.527 91.3509C101.742 91.4254 102.059 91.5234 102.479 91.6449C103.039 91.7944 103.496 91.9484 103.851 92.1069C104.215 92.2564 104.528 92.4804 104.789 92.7789C105.05 93.0774 105.186 93.4744 105.195 93.9689C105.195 94.4074 105.074 94.7994 104.831 95.1449C104.588 95.4904 104.243 95.7609 103.795 95.9569C103.356 96.1529 102.838 96.2509 102.241 96.2509ZM109.971 92.2749L113.527 96.1249H111.371L108.515 92.8069V96.1249H106.919V85.7649H108.515V91.7849L111.315 88.4109H113.527L109.971 92.2749Z" fill="#F5F5F5"/>
<path d="M63.106 140.261C61.598 140.261 60.235 139.922 59.017 139.246C57.799 138.55 56.842 137.583 56.146 136.346C55.45 135.089 55.1021 133.639 55.1021 131.996C55.1021 130.372 55.4597 128.931 56.175 127.675C56.8904 126.418 57.8667 125.451 59.104 124.775C60.3415 124.098 61.7235 123.76 63.251 123.76C64.7785 123.76 66.1605 124.098 67.398 124.775C68.6355 125.451 69.6115 126.418 70.327 127.675C71.0425 128.931 71.4001 130.372 71.4001 131.996C71.4001 133.62 71.0325 135.06 70.298 136.317C69.5635 137.573 68.5581 138.55 67.2821 139.246C66.0256 139.922 64.6335 140.261 63.106 140.261ZM63.106 137.39C63.9565 137.39 64.7496 137.187 65.4841 136.781C66.2381 136.375 66.8471 135.766 67.3111 134.954C67.7751 134.142 68.007 133.156 68.007 131.996C68.007 130.836 67.7845 129.859 67.34 129.067C66.8955 128.255 66.3055 127.646 65.571 127.24C64.8365 126.834 64.0436 126.631 63.1931 126.631C62.3426 126.631 61.5495 126.834 60.815 127.24C60.0995 127.646 59.5294 128.255 59.104 129.067C58.6787 129.859 58.466 130.836 58.466 131.996C58.466 133.716 58.901 135.05 59.771 135.998C60.6605 136.926 61.772 137.39 63.106 137.39ZM75.1901 119.845H78.7861L75.741 126.747H73.4211L75.1901 119.845ZM95.7855 125.848C95.7855 126.872 95.5441 127.839 95.0606 128.748C94.5775 129.656 93.8041 130.401 92.7406 130.981C91.6776 131.541 90.3145 131.822 88.6515 131.822H84.9975V140H81.6915V119.845H88.6515C90.1985 119.845 91.5035 120.115 92.5665 120.657C93.6495 121.179 94.4516 121.894 94.9736 122.803C95.5151 123.711 95.7855 124.726 95.7855 125.848ZM88.6515 129.125C89.9085 129.125 90.8461 128.844 91.4646 128.284C92.0835 127.704 92.3926 126.892 92.3926 125.848C92.3926 123.644 91.1455 122.542 88.6515 122.542H84.9975V129.125H88.6515ZM105.87 140.261C104.362 140.261 102.999 139.922 101.781 139.246C100.563 138.55 99.6055 137.583 98.9095 136.346C98.2136 135.089 97.8656 133.639 97.8656 131.996C97.8656 130.372 98.2235 128.931 98.9385 127.675C99.654 126.418 100.631 125.451 101.868 124.775C103.105 124.098 104.488 123.76 106.015 123.76C107.542 123.76 108.925 124.098 110.162 124.775C111.399 125.451 112.376 126.418 113.091 127.675C113.806 128.931 114.164 130.372 114.164 131.996C114.164 133.62 113.797 135.06 113.062 136.317C112.327 137.573 111.322 138.55 110.046 139.246C108.789 139.922 107.397 140.261 105.87 140.261ZM105.87 137.39C106.721 137.39 107.513 137.187 108.248 136.781C109.002 136.375 109.611 135.766 110.075 134.954C110.539 134.142 110.771 133.156 110.771 131.996C110.771 130.836 110.549 129.859 110.104 129.067C109.659 128.255 109.07 127.646 108.335 127.24C107.6 126.834 106.808 126.631 105.957 126.631C105.106 126.631 104.314 126.834 103.579 127.24C102.864 127.646 102.293 128.255 101.868 129.067C101.443 129.859 101.23 130.836 101.23 131.996C101.23 133.716 101.665 135.05 102.535 135.998C103.424 136.926 104.536 137.39 105.87 137.39ZM119.114 121.904C118.515 121.904 118.012 121.701 117.606 121.295C117.2 120.889 116.997 120.386 116.997 119.787C116.997 119.187 117.2 118.685 117.606 118.279C118.012 117.873 118.515 117.67 119.114 117.67C119.694 117.67 120.187 117.873 120.593 118.279C120.999 118.685 121.202 119.187 121.202 119.787C121.202 120.386 120.999 120.889 120.593 121.295C120.187 121.701 119.694 121.904 119.114 121.904ZM120.738 124.021V140H117.432V124.021H120.738ZM133.141 123.76C134.397 123.76 135.519 124.021 136.505 124.543C137.51 125.065 138.293 125.838 138.854 126.863C139.414 127.887 139.695 129.125 139.695 130.575V140H136.418V131.068C136.418 129.637 136.06 128.545 135.345 127.791C134.629 127.017 133.653 126.631 132.416 126.631C131.178 126.631 130.192 127.017 129.458 127.791C128.742 128.545 128.385 129.637 128.385 131.068V140H125.079V124.021H128.385V125.848C128.926 125.19 129.612 124.678 130.444 124.311C131.294 123.943 132.193 123.76 133.141 123.76ZM147.769 126.718V135.563C147.769 136.162 147.904 136.597 148.175 136.868C148.465 137.119 148.948 137.245 149.625 137.245H151.655V140H149.045C147.556 140 146.415 139.652 145.623 138.956C144.83 138.26 144.434 137.129 144.434 135.563V126.718H142.549V124.021H144.434V120.048H147.769V124.021H151.655V126.718H147.769Z" fill="#333333"/>
<path d="M69.68 160.38L66.384 171.5H64.32L61.984 163.084L59.504 171.5L57.456 171.516L54.304 160.38H56.24L58.544 169.436L61.04 160.38H63.088L65.408 169.388L67.728 160.38H69.68ZM79.2645 166.876C79.2645 167.206 79.243 167.505 79.2005 167.772H72.4645C72.5175 168.476 72.779 169.041 73.2485 169.468C73.7175 169.894 74.2935 170.108 74.9765 170.108C75.9575 170.108 76.651 169.697 77.0565 168.876H79.0245C78.7575 169.686 78.2725 170.353 77.5685 170.876C76.875 171.388 76.011 171.644 74.9765 171.644C74.1335 171.644 73.3765 171.457 72.7045 171.084C72.043 170.7 71.5205 170.166 71.1365 169.484C70.763 168.79 70.5765 167.99 70.5765 167.084C70.5765 166.177 70.7575 165.382 71.1205 164.7C71.4935 164.006 72.011 163.473 72.6725 163.1C73.3445 162.726 74.1125 162.54 74.9765 162.54C75.8085 162.54 76.5495 162.721 77.2005 163.084C77.851 163.446 78.3575 163.958 78.7205 164.62C79.083 165.27 79.2645 166.022 79.2645 166.876ZM77.3605 166.3C77.3495 165.628 77.1095 165.089 76.6405 164.684C76.171 164.278 75.5895 164.076 74.8965 164.076C74.267 164.076 73.7285 164.278 73.2805 164.684C72.8325 165.078 72.5655 165.617 72.4805 166.3H77.3605ZM82.8835 163.996C83.1925 163.569 83.614 163.222 84.1475 162.956C84.6915 162.678 85.294 162.54 85.9555 162.54C86.734 162.54 87.438 162.726 88.0675 163.1C88.6965 163.473 89.1925 164.006 89.5555 164.7C89.9179 165.382 90.0995 166.166 90.0995 167.052C90.0995 167.937 89.9179 168.732 89.5555 169.436C89.1925 170.129 88.6915 170.673 88.0515 171.068C87.422 171.452 86.7235 171.644 85.9555 171.644C85.2725 171.644 84.6645 171.51 84.1315 171.244C83.6085 170.977 83.1925 170.636 82.8835 170.22V171.5H81.0595V159.66H82.8835V163.996ZM88.2435 167.052C88.2435 166.444 88.1155 165.921 87.8595 165.484C87.614 165.036 87.2835 164.7 86.8675 164.476C86.462 164.241 86.0245 164.124 85.5555 164.124C85.0965 164.124 84.6595 164.241 84.2435 164.476C83.838 164.71 83.5075 165.052 83.2515 165.5C83.006 165.948 82.8835 166.476 82.8835 167.084C82.8835 167.692 83.006 168.225 83.2515 168.684C83.5075 169.132 83.838 169.473 84.2435 169.708C84.6595 169.942 85.0965 170.06 85.5555 170.06C86.0245 170.06 86.462 169.942 86.8675 169.708C87.2835 169.462 87.614 169.11 87.8595 168.652C88.1155 168.193 88.2435 167.66 88.2435 167.052ZM102.763 169.228H98.1075L97.3075 171.5H95.4035L99.3875 160.364H101.499L105.483 171.5H103.563L102.763 169.228ZM102.251 167.74L100.443 162.572L98.6195 167.74H102.251ZM109.039 163.98C109.349 163.574 109.77 163.233 110.303 162.956C110.837 162.678 111.439 162.54 112.111 162.54C112.879 162.54 113.578 162.732 114.207 163.116C114.847 163.489 115.349 164.017 115.711 164.7C116.074 165.382 116.255 166.166 116.255 167.052C116.255 167.937 116.074 168.732 115.711 169.436C115.349 170.129 114.847 170.673 114.207 171.068C113.578 171.452 112.879 171.644 112.111 171.644C111.439 171.644 110.842 171.51 110.319 171.244C109.797 170.966 109.37 170.625 109.039 170.22V175.692H107.215V162.684H109.039V163.98ZM114.399 167.052C114.399 166.444 114.271 165.921 114.015 165.484C113.77 165.036 113.439 164.7 113.023 164.476C112.618 164.241 112.181 164.124 111.711 164.124C111.253 164.124 110.815 164.241 110.399 164.476C109.994 164.71 109.663 165.052 109.407 165.5C109.162 165.948 109.039 166.476 109.039 167.084C109.039 167.692 109.162 168.225 109.407 168.684C109.663 169.132 109.994 169.473 110.399 169.708C110.815 169.942 111.253 170.06 111.711 170.06C112.181 170.06 112.618 169.942 113.023 169.708C113.439 169.462 113.77 169.11 114.015 168.652C114.271 168.193 114.399 167.66 114.399 167.052ZM119.883 163.98C120.192 163.574 120.614 163.233 121.147 162.956C121.68 162.678 122.283 162.54 122.955 162.54C123.723 162.54 124.422 162.732 125.051 163.116C125.691 163.489 126.192 164.017 126.555 164.7C126.918 165.382 127.099 166.166 127.099 167.052C127.099 167.937 126.918 168.732 126.555 169.436C126.192 170.129 125.691 170.673 125.051 171.068C124.422 171.452 123.723 171.644 122.955 171.644C122.283 171.644 121.686 171.51 121.163 171.244C120.64 170.966 120.214 170.625 119.883 170.22V175.692H118.059V162.684H119.883V163.98ZM125.243 167.052C125.243 166.444 125.115 165.921 124.859 165.484C124.614 165.036 124.283 164.7 123.867 164.476C123.462 164.241 123.024 164.124 122.555 164.124C122.096 164.124 121.659 164.241 121.243 164.476C120.838 164.71 120.507 165.052 120.251 165.5C120.006 165.948 119.883 166.476 119.883 167.084C119.883 167.692 120.006 168.225 120.251 168.684C120.507 169.132 120.838 169.473 121.243 169.708C121.659 169.942 122.096 170.06 122.555 170.06C123.024 170.06 123.462 169.942 123.867 169.708C124.283 169.462 124.614 169.11 124.859 168.652C125.115 168.193 125.243 167.66 125.243 167.052ZM130.727 159.66V171.5H128.903V159.66H130.727ZM134.05 161.516C133.719 161.516 133.442 161.404 133.218 161.18C132.994 160.956 132.882 160.678 132.882 160.348C132.882 160.017 132.994 159.74 133.218 159.516C133.442 159.292 133.719 159.18 134.05 159.18C134.37 159.18 134.642 159.292 134.866 159.516C135.09 159.74 135.202 160.017 135.202 160.348C135.202 160.678 135.09 160.956 134.866 161.18C134.642 161.404 134.37 161.516 134.05 161.516ZM134.946 162.684V171.5H133.122V162.684H134.946ZM136.732 167.084C136.732 166.177 136.914 165.382 137.276 164.7C137.65 164.006 138.162 163.473 138.812 163.1C139.463 162.726 140.21 162.54 141.052 162.54C142.119 162.54 142.999 162.796 143.692 163.308C144.396 163.809 144.871 164.529 145.116 165.468H143.148C142.988 165.03 142.732 164.689 142.38 164.444C142.028 164.198 141.586 164.076 141.052 164.076C140.306 164.076 139.708 164.342 139.26 164.876C138.823 165.398 138.604 166.134 138.604 167.084C138.604 168.033 138.823 168.774 139.26 169.308C139.708 169.841 140.306 170.108 141.052 170.108C142.108 170.108 142.807 169.644 143.148 168.716H145.116C144.86 169.612 144.38 170.326 143.676 170.86C142.972 171.382 142.098 171.644 141.052 171.644C140.21 171.644 139.463 171.457 138.812 171.084C138.162 170.7 137.65 170.166 137.276 169.484C136.914 168.79 136.732 167.99 136.732 167.084ZM146.326 167.052C146.326 166.166 146.507 165.382 146.87 164.7C147.243 164.017 147.745 163.489 148.374 163.116C149.014 162.732 149.718 162.54 150.486 162.54C151.179 162.54 151.782 162.678 152.294 162.956C152.817 163.222 153.233 163.558 153.542 163.964V162.684H155.382V171.5H153.542V170.188C153.233 170.604 152.811 170.95 152.278 171.228C151.745 171.505 151.137 171.644 150.454 171.644C149.697 171.644 149.003 171.452 148.374 171.068C147.745 170.673 147.243 170.129 146.87 169.436C146.507 168.732 146.326 167.937 146.326 167.052ZM153.542 167.084C153.542 166.476 153.414 165.948 153.158 165.5C152.913 165.052 152.587 164.71 152.182 164.476C151.777 164.241 151.339 164.124 150.87 164.124C150.401 164.124 149.963 164.241 149.558 164.476C149.153 164.7 148.822 165.036 148.566 165.484C148.321 165.921 148.198 166.444 148.198 167.052C148.198 167.66 148.321 168.193 148.566 168.652C148.822 169.11 149.153 169.462 149.558 169.708C149.974 169.942 150.411 170.06 150.87 170.06C151.339 170.06 151.777 169.942 152.182 169.708C152.587 169.473 152.913 169.132 153.158 168.684C153.414 168.225 153.542 167.692 153.542 167.084ZM159.906 164.172V169.052C159.906 169.382 159.981 169.622 160.13 169.772C160.29 169.91 160.557 169.98 160.93 169.98H162.05V171.5H160.61C159.789 171.5 159.159 171.308 158.722 170.924C158.285 170.54 158.066 169.916 158.066 169.052V164.172H157.026V162.684H158.066V160.492H159.906V162.684H162.05V164.172H159.906ZM164.659 161.516C164.328 161.516 164.051 161.404 163.827 161.18C163.603 160.956 163.491 160.678 163.491 160.348C163.491 160.017 163.603 159.74 163.827 159.516C164.051 159.292 164.328 159.18 164.659 159.18C164.979 159.18 165.251 159.292 165.475 159.516C165.699 159.74 165.811 160.017 165.811 160.348C165.811 160.678 165.699 160.956 165.475 161.18C165.251 161.404 164.979 161.516 164.659 161.516ZM165.555 162.684V171.5H163.731V162.684H165.555ZM171.774 171.644C170.942 171.644 170.19 171.457 169.518 171.084C168.846 170.7 168.318 170.166 167.934 169.484C167.55 168.79 167.358 167.99 167.358 167.084C167.358 166.188 167.555 165.393 167.95 164.7C168.344 164.006 168.883 163.473 169.566 163.1C170.248 162.726 171.011 162.54 171.854 162.54C172.696 162.54 173.459 162.726 174.142 163.1C174.824 163.473 175.363 164.006 175.758 164.7C176.152 165.393 176.35 166.188 176.35 167.084C176.35 167.98 176.147 168.774 175.742 169.468C175.336 170.161 174.782 170.7 174.078 171.084C173.384 171.457 172.616 171.644 171.774 171.644ZM171.774 170.06C172.243 170.06 172.68 169.948 173.086 169.724C173.502 169.5 173.838 169.164 174.094 168.716C174.35 168.268 174.478 167.724 174.478 167.084C174.478 166.444 174.355 165.905 174.11 165.468C173.864 165.02 173.539 164.684 173.134 164.46C172.728 164.236 172.291 164.124 171.822 164.124C171.352 164.124 170.915 164.236 170.51 164.46C170.115 164.684 169.8 165.02 169.566 165.468C169.331 165.905 169.214 166.444 169.214 167.084C169.214 168.033 169.454 168.769 169.934 169.292C170.424 169.804 171.038 170.06 171.774 170.06ZM182.601 162.54C183.294 162.54 183.913 162.684 184.457 162.972C185.012 163.26 185.444 163.686 185.753 164.252C186.062 164.817 186.217 165.5 186.217 166.3V171.5H184.409V166.572C184.409 165.782 184.212 165.18 183.817 164.764C183.422 164.337 182.884 164.124 182.201 164.124C181.518 164.124 180.974 164.337 180.569 164.764C180.174 165.18 179.977 165.782 179.977 166.572V171.5H178.153V162.684H179.977V163.692C180.276 163.329 180.654 163.046 181.113 162.844C181.582 162.641 182.078 162.54 182.601 162.54ZM196.332 160.38C197.516 160.38 198.55 160.609 199.436 161.068C200.332 161.516 201.02 162.166 201.5 163.02C201.99 163.862 202.236 164.849 202.236 165.98C202.236 167.11 201.99 168.092 201.5 168.924C201.02 169.756 200.332 170.396 199.436 170.844C198.55 171.281 197.516 171.5 196.332 171.5H192.7V160.38H196.332ZM196.332 170.012C197.633 170.012 198.63 169.66 199.324 168.956C200.017 168.252 200.364 167.26 200.364 165.98C200.364 164.689 200.017 163.681 199.324 162.956C198.63 162.23 197.633 161.868 196.332 161.868H194.524V170.012H196.332ZM212.124 166.876C212.124 167.206 212.102 167.505 212.06 167.772H205.324C205.377 168.476 205.638 169.041 206.108 169.468C206.577 169.894 207.153 170.108 207.836 170.108C208.817 170.108 209.51 169.697 209.916 168.876H211.883C211.617 169.686 211.132 170.353 210.428 170.876C209.734 171.388 208.87 171.644 207.836 171.644C206.993 171.644 206.236 171.457 205.564 171.084C204.902 170.7 204.38 170.166 203.996 169.484C203.622 168.79 203.436 167.99 203.436 167.084C203.436 166.177 203.617 165.382 203.98 164.7C204.353 164.006 204.87 163.473 205.532 163.1C206.204 162.726 206.972 162.54 207.836 162.54C208.668 162.54 209.409 162.721 210.06 163.084C210.71 163.446 211.217 163.958 211.58 164.62C211.942 165.27 212.124 166.022 212.124 166.876ZM210.22 166.3C210.209 165.628 209.969 165.089 209.5 164.684C209.03 164.278 208.449 164.076 207.756 164.076C207.126 164.076 206.588 164.278 206.14 164.684C205.692 165.078 205.425 165.617 205.34 166.3H210.22ZM217.119 171.644C216.425 171.644 215.801 171.521 215.247 171.276C214.703 171.02 214.271 170.678 213.951 170.252C213.631 169.814 213.46 169.329 213.439 168.796H215.327C215.359 169.169 215.535 169.484 215.855 169.74C216.185 169.985 216.596 170.108 217.087 170.108C217.599 170.108 217.993 170.012 218.271 169.82C218.559 169.617 218.703 169.361 218.703 169.052C218.703 168.721 218.543 168.476 218.223 168.316C217.913 168.156 217.417 167.98 216.735 167.788C216.073 167.606 215.535 167.43 215.119 167.26C214.703 167.089 214.34 166.828 214.031 166.476C213.732 166.124 213.583 165.66 213.583 165.084C213.583 164.614 213.721 164.188 213.999 163.804C214.276 163.409 214.671 163.1 215.183 162.876C215.705 162.652 216.303 162.54 216.975 162.54C217.977 162.54 218.783 162.796 219.391 163.308C220.009 163.809 220.34 164.497 220.383 165.372H218.559C218.527 164.977 218.367 164.662 218.079 164.428C217.791 164.193 217.401 164.076 216.911 164.076C216.431 164.076 216.063 164.166 215.807 164.348C215.551 164.529 215.423 164.769 215.423 165.068C215.423 165.302 215.508 165.5 215.679 165.66C215.849 165.82 216.057 165.948 216.303 166.044C216.548 166.129 216.911 166.241 217.391 166.38C218.031 166.55 218.553 166.726 218.959 166.908C219.375 167.078 219.732 167.334 220.031 167.676C220.329 168.017 220.484 168.47 220.495 169.036C220.495 169.537 220.356 169.985 220.079 170.38C219.801 170.774 219.407 171.084 218.895 171.308C218.393 171.532 217.801 171.644 217.119 171.644ZM223.393 161.516C223.063 161.516 222.785 161.404 222.561 161.18C222.337 160.956 222.225 160.678 222.225 160.348C222.225 160.017 222.337 159.74 222.561 159.516C222.785 159.292 223.063 159.18 223.393 159.18C223.713 159.18 223.985 159.292 224.209 159.516C224.433 159.74 224.545 160.017 224.545 160.348C224.545 160.678 224.433 160.956 224.209 161.18C223.985 161.404 223.713 161.516 223.393 161.516ZM224.289 162.684V171.5H222.465V162.684H224.289ZM230.236 162.54C230.919 162.54 231.521 162.678 232.044 162.956C232.577 163.222 232.993 163.558 233.292 163.964V162.684H235.132V171.644C235.132 172.454 234.961 173.174 234.62 173.804C234.279 174.444 233.783 174.945 233.132 175.308C232.492 175.67 231.724 175.852 230.828 175.852C229.633 175.852 228.641 175.569 227.852 175.004C227.063 174.449 226.615 173.692 226.508 172.732H228.316C228.455 173.19 228.748 173.558 229.196 173.836C229.655 174.124 230.199 174.268 230.828 174.268C231.564 174.268 232.156 174.044 232.604 173.596C233.063 173.148 233.292 172.497 233.292 171.644V170.172C232.983 170.588 232.561 170.94 232.028 171.228C231.505 171.505 230.908 171.644 230.236 171.644C229.468 171.644 228.764 171.452 228.124 171.068C227.495 170.673 226.993 170.129 226.62 169.436C226.257 168.732 226.076 167.937 226.076 167.052C226.076 166.166 226.257 165.382 226.62 164.7C226.993 164.017 227.495 163.489 228.124 163.116C228.764 162.732 229.468 162.54 230.236 162.54ZM233.292 167.084C233.292 166.476 233.164 165.948 232.908 165.5C232.663 165.052 232.337 164.71 231.932 164.476C231.527 164.241 231.089 164.124 230.62 164.124C230.151 164.124 229.713 164.241 229.308 164.476C228.903 164.7 228.572 165.036 228.316 165.484C228.071 165.921 227.948 166.444 227.948 167.052C227.948 167.66 228.071 168.193 228.316 168.652C228.572 169.11 228.903 169.462 229.308 169.708C229.724 169.942 230.161 170.06 230.62 170.06C231.089 170.06 231.527 169.942 231.932 169.708C232.337 169.473 232.663 169.132 232.908 168.684C233.164 168.225 233.292 167.692 233.292 167.084ZM241.976 162.54C242.669 162.54 243.288 162.684 243.832 162.972C244.387 163.26 244.819 163.686 245.128 164.252C245.437 164.817 245.592 165.5 245.592 166.3V171.5H243.784V166.572C243.784 165.782 243.587 165.18 243.192 164.764C242.797 164.337 242.259 164.124 241.576 164.124C240.893 164.124 240.349 164.337 239.944 164.764C239.549 165.18 239.352 165.782 239.352 166.572V171.5H237.528V162.684H239.352V163.692C239.651 163.329 240.029 163.046 240.488 162.844C240.957 162.641 241.453 162.54 241.976 162.54Z" fill="#909090"/>
<path d="M316 180C343.614 180 366 157.614 366 130C366 102.386 343.614 80 316 80C288.386 80 266 102.386 266 130C266 157.614 288.386 180 316 180Z" fill="#31C48D"/>
<path d="M316.216 139.193C319.386 139.193 321.956 136.623 321.956 133.453C321.956 130.282 319.386 127.712 316.216 127.712C313.045 127.712 310.474 130.282 310.474 133.453C310.474 136.623 313.045 139.193 316.216 139.193Z" fill="white"/>
<path fill-rule="evenodd" clip-rule="evenodd" d="M304.042 111.831L316.436 104.5L328.254 111.754L328.328 125.567L322.462 129.312C322.462 129.312 319.011 126.049 315.872 126.049C312.733 126.048 309.914 129.31 309.914 129.31L304.382 125.583L304.042 111.831ZM305.482 124.325L315.639 118.268L315.534 106.46L305.103 112.662L305.482 124.325ZM306.049 125.816C306.617 125.816 309.773 127.963 309.773 127.963C309.773 127.963 312.624 124.789 315.987 124.893C319.351 124.996 322.603 128.047 322.603 128.047L327.047 125.429L316.341 119.689C316.341 119.689 305.482 125.816 306.049 125.816ZM303.546 155.272L291 148.203L291.374 134.342L303.608 127.061L309.475 130.578C309.475 130.578 308.416 135.043 309.985 137.762C311.554 140.481 315.747 141.446 315.747 141.446L315.596 148.101L303.546 155.272ZM313.646 147.778L303.322 142.01L293.149 148.005L303.734 153.937L313.646 147.779L313.646 147.778ZM314.654 146.541C314.37 146.049 314.651 142.242 314.651 142.242C314.651 142.242 310.519 141.204 308.927 138.24C307.335 135.276 308.309 131.089 308.309 131.089L303.819 128.549L304.202 140.691C304.202 140.691 314.937 147.032 314.654 146.54V146.541ZM340.849 133.863L341 148.262L328.81 154.87L316.81 148.029L316.5 141.385C316.5 141.385 320.698 140.494 322.268 137.775C323.839 135.057 323.085 130.52 323.085 130.52L328.768 127.282L340.849 133.863ZM329.309 128.863L329.477 140.689L339.754 146.501L339.599 134.368L329.309 128.863ZM328.044 128.92L324.323 131.071C324.323 131.071 324.983 135.593 323.212 138.453C321.441 141.314 317.835 142.14 317.835 142.14L317.88 146.676L327.893 140.585L328.044 128.92Z" fill="white"/>
</g>
<defs>
<clipPath id="clip0_350_202">
<rect width="400" height="240" fill="white" transform="translate(10 10)"/>
</clipPath>
</defs>
</svg>
