<svg width="100" height="100" viewBox="0 0 100 100" fill="none" xmlns="http://www.w3.org/2000/svg">
<circle cx="50" cy="50" r="50" fill="#1A3636"/>
<path d="M40 36.25H60M39.2625 41.773L50.7065 58.2585M31.5 42.5H36C37.4001 42.5 38.1002 42.5 38.635 42.2275C39.1054 41.9878 39.4878 41.6054 39.7275 41.135C40 40.6002 40 39.9001 40 38.5V34C40 32.5999 40 31.8998 39.7275 31.365C39.4878 30.8946 39.1054 30.5122 38.635 30.2725C38.1002 30 37.4001 30 36 30H31.5C30.0999 30 29.3998 30 28.865 30.2725C28.3946 30.5122 28.0122 30.8946 27.7725 31.365C27.5 31.8998 27.5 32.5999 27.5 34V38.5C27.5 39.9001 27.5 40.6002 27.7725 41.135C28.0122 41.6054 28.3946 41.9878 28.865 42.2275C29.3998 42.5 30.0999 42.5 31.5 42.5ZM54 70H58.5C59.9002 70 60.6003 70 61.135 69.7275C61.6055 69.4878 61.9878 69.1055 62.2275 68.635C62.5 68.1003 62.5 67.4002 62.5 66V61.5C62.5 60.0998 62.5 59.3997 62.2275 58.865C61.9878 58.3945 61.6055 58.0123 61.135 57.7725C60.6003 57.5 59.9002 57.5 58.5 57.5H54C52.5998 57.5 51.8997 57.5 51.365 57.7725C50.8945 58.0123 50.5123 58.3945 50.2725 58.865C50 59.3997 50 60.0998 50 61.5V66C50 67.4002 50 68.1003 50.2725 68.635C50.5123 69.1055 50.8945 69.4878 51.365 69.7275C51.8997 70 52.5998 70 54 70ZM64 42.5H68.5C69.9002 42.5 70.6003 42.5 71.135 42.2275C71.6055 41.9878 71.9878 41.6054 72.2275 41.135C72.5 40.6002 72.5 39.9001 72.5 38.5V34C72.5 32.5999 72.5 31.8998 72.2275 31.365C71.9878 30.8946 71.6055 30.5122 71.135 30.2725C70.6003 30 69.9002 30 68.5 30H64C62.5998 30 61.8997 30 61.365 30.2725C60.8945 30.5122 60.5122 30.8946 60.2725 31.365C60 31.8998 60 32.5999 60 34V38.5C60 39.9001 60 40.6002 60.2725 41.135C60.5122 41.6054 60.8945 41.9878 61.365 42.2275C61.8997 42.5 62.5998 42.5 64 42.5Z" stroke="#40E4F1" stroke-width="4" stroke-linecap="round" stroke-linejoin="round"/>
</svg>
