<svg width="100" height="100" viewBox="0 0 100 100" fill="none" xmlns="http://www.w3.org/2000/svg">
<circle cx="50" cy="50" r="50" fill="#1A3636"/>
<path d="M79.7847 68.94L74.4421 62.2221V33.97C74.4421 32.6034 73.3338 31.495 71.9671 31.495H28.0327C26.6661 31.495 25.5583 32.6034 25.5583 33.97V62.2221L20.2153 68.94C20.0759 69.1152 20 69.332 20 69.557V72.5304C20 73.6216 20.8838 74.5049 21.9745 74.5049H78.0255C79.1162 74.5049 80 73.6216 80 72.5304V69.557C80 69.332 79.9245 69.1152 79.7847 68.94ZM29.0499 34.9872H70.9501V58.7301H29.0499V34.9872ZM55.6392 72.1566H44.3608V69.1709H55.6392V72.1566Z" fill="#40E4F1"/>
</svg>
