<svg width="100" height="100" viewBox="0 0 100 100" fill="none" xmlns="http://www.w3.org/2000/svg">
<circle cx="50" cy="50" r="50" fill="#1A3636"/>
<path d="M66.25 71.75L70 75.5M47.5 58C37.835 58 30 65.835 30 75.5H47.5M67.5 66.75C67.5 70.2017 64.7017 73 61.25 73C57.7983 73 55 70.2017 55 66.75C55 63.2983 57.7983 60.5 61.25 60.5C64.7017 60.5 67.5 63.2983 67.5 66.75ZM57.5 40.5C57.5 46.0229 53.0228 50.5 47.5 50.5C41.9771 50.5 37.5 46.0229 37.5 40.5C37.5 34.9771 41.9771 30.5 47.5 30.5C53.0228 30.5 57.5 34.9771 57.5 40.5Z" stroke="#40E4F1" stroke-width="4" stroke-linecap="round" stroke-linejoin="round"/>
</svg>
