<svg width="200" height="200" viewBox="0 0 200 200" fill="none" xmlns="http://www.w3.org/2000/svg">
<circle cx="100" cy="100" r="100" fill="#001DA0"/>
<path d="M100 74.5455C94.4995 67.5447 86.0203 60.5439 65.006 60.0301C63.6257 59.9964 62.5 61.1176 62.5 62.4983C62.5 72.7407 62.5 111.517 62.5 122.985C62.5 124.366 63.6258 125.45 65.0057 125.495C86.0202 126.182 94.4995 135.499 100 142.5M100 74.5455C105.5 67.5447 113.979 60.5439 134.994 60.0301C136.374 59.9964 137.5 61.0924 137.5 62.4731C137.5 73.9224 137.5 111.532 137.5 122.982C137.5 124.362 136.374 125.45 134.994 125.495C113.98 126.182 105.5 135.499 100 142.5M100 74.5455V142.5" stroke="#F5F5F5" stroke-width="5.5" stroke-linejoin="round"/>
<path d="M136.176 70H147.5C148.88 70 150 71.1193 150 72.5V137.695C150 139.718 147.616 141.062 145.767 140.24C141.792 138.474 135.157 136.316 126.47 136.316C111.764 136.316 100 145 100 145C100 145 88.2353 136.316 73.5294 136.316C64.8422 136.316 58.2078 138.474 54.2324 140.24C52.3834 141.062 50 139.718 50 137.695V72.5C50 71.1193 51.1193 70 52.5 70H63.8235" stroke="#F5F5F5" stroke-width="5.5" stroke-linejoin="round"/>
</svg>
