<svg width="50" height="40" viewBox="0 0 50 40" fill="none" xmlns="http://www.w3.org/2000/svg">
<path d="M29.4649 19.963C29.4649 17.7563 27.4661 15.967 25.0001 15.967C22.5344 15.967 20.5353 17.7563 20.5353 19.963C20.5353 22.1701 22.5344 23.9592 25.0001 23.9592C27.4661 23.9592 29.4649 22.1701 29.4649 19.963Z" fill="#53C1DE"/>
<path fill-rule="evenodd" clip-rule="evenodd" d="M39.5007 12.5442C40.4435 9.11504 41.6287 2.75612 37.4507 0.600244C33.2922 -1.54623 27.8807 2.56681 25.0232 5.03566C22.174 2.59141 16.6105 -1.50405 12.436 0.658675C8.27918 2.81235 9.56107 9.06585 10.5248 12.5165C6.64718 13.5022 0 15.6252 0 19.9629C0 24.2883 6.64027 26.5982 10.495 27.5829C9.52763 31.0526 8.30993 37.2168 12.4721 39.3657C16.6622 41.528 22.2083 37.53 25.0923 35.0341C27.9682 37.5175 33.3277 41.5417 37.487 39.3868C41.6593 37.2251 40.5727 30.9514 39.6088 27.4808C43.3455 26.4938 50 24.2343 50 19.9629C50 15.6669 43.3172 13.5266 39.5007 12.5442ZM39.027 25.6415C38.3942 23.8486 37.54 21.942 36.4952 19.9725C37.4925 18.0494 38.3135 16.1674 38.9287 14.386C41.7265 15.112 47.8642 16.7712 47.8642 19.9629C47.8642 23.1846 41.9743 24.8595 39.027 25.6415ZM36.4167 37.7323C33.3133 39.34 28.7035 35.4917 26.5797 33.6629C27.9887 32.2837 29.3967 30.6803 30.7708 28.8998C33.1882 28.708 35.4717 28.3942 37.5427 27.9657C38.221 30.4206 39.5337 36.1174 36.4167 37.7323ZM13.5394 37.7094C10.4357 36.1077 11.8543 30.6071 12.5659 28.0512C14.6139 28.4568 16.881 28.7485 19.304 28.9243C20.6872 30.6665 22.136 32.2678 23.596 33.6703C21.7922 35.232 16.6575 39.3185 13.5394 37.7094ZM2.13582 19.9629C2.13582 16.7292 8.23678 15.082 11.0984 14.3578C11.7242 16.1792 12.5449 18.0837 13.5354 20.0095C12.5321 21.964 11.6996 23.8986 11.0681 25.7415C8.33948 25.0425 2.13582 23.1986 2.13582 19.9629ZM13.5062 2.31314C16.6225 0.698706 21.4578 4.63051 23.5265 6.4002C22.074 7.79621 20.6385 9.38554 19.2672 11.1177C16.9157 11.3128 14.6646 11.626 12.5951 12.0457C11.8187 9.26263 10.3932 3.92583 13.5062 2.31314ZM32.2988 13.1955C33.8942 13.3757 35.4227 13.6154 36.8578 13.9086C36.427 15.1446 35.89 16.4371 35.2575 17.762C34.3407 16.2051 33.3565 14.6794 32.2988 13.1955ZM25.0238 7.76631C26.009 8.72149 26.9957 9.78815 27.9663 10.9454C25.9975 10.862 24.0255 10.8617 22.0567 10.9442C23.0282 9.79766 24.0233 8.73258 25.0238 7.76631ZM14.7608 17.7606C14.1388 16.4403 13.6066 15.1422 13.172 13.8885C14.5986 13.6028 16.12 13.3692 17.705 13.192C16.6443 14.6726 15.6618 16.1977 14.7608 17.7606ZM17.7505 26.8703C16.1132 26.7068 14.5688 26.4851 13.1426 26.2072C13.5841 24.9315 14.128 23.6054 14.7633 22.2566C15.6767 23.8358 16.6742 25.3757 17.7505 26.8703ZM25.083 32.2946C24.0707 31.3169 23.0608 30.2355 22.0747 29.0725C24.0547 29.142 26.0385 29.1422 28.0183 29.0631C27.0447 30.2474 26.0615 31.3303 25.083 32.2946ZM35.2778 22.188C35.9462 23.5514 36.5095 24.8703 36.957 26.1245C35.5072 26.4206 33.942 26.6591 32.2928 26.8362C33.3583 25.3242 34.3582 23.7748 35.2778 22.188ZM29.5788 27.0678C26.5502 27.2615 23.5027 27.2594 20.473 27.0837C18.7515 24.8331 17.219 22.4662 15.8962 20.0089C17.2127 17.5568 18.734 15.1945 20.4473 12.9474C23.4792 12.7423 26.5297 12.7417 29.5615 12.9486C31.2602 15.1955 32.7792 17.5517 34.1262 19.9817C32.7952 22.4326 31.2658 24.7997 29.5788 27.0678ZM36.3838 2.25631C39.501 3.86544 38.1135 9.5804 37.4325 12.0655C35.3582 11.6371 33.1055 11.3183 30.7472 11.1202C29.3732 9.36929 27.9497 7.7772 26.5207 6.39921C28.6158 4.5914 33.2968 0.662906 36.3838 2.25631Z" fill="#53C1DE"/>
</svg>
