<svg width="180" height="170" viewBox="0 0 180 170" fill="none" xmlns="http://www.w3.org/2000/svg">
<rect width="179.684" height="170" fill="#F1EAD8"/>
<path d="M49.2948 43.7921L48.4945 44.5034L48.4217 50.6592L48.349 56.815H46.1907C43.3048 56.815 43.0381 57.0602 43.0381 59.6353C43.0381 61.5974 43.4746 62.4557 44.4689 62.4557C44.8569 62.4557 44.9296 62.7746 45.0751 66.1835C45.1721 68.2437 45.3662 70.4264 45.5117 71.0395C46.5302 75.3314 49.901 78.9121 53.9751 79.9421L55.2847 80.2855L55.4059 90.5615C55.5514 101.598 55.6484 102.407 57.0065 106.601C59.8681 115.307 67.8708 123.082 76.6253 125.608C81.1601 126.932 81.6694 126.957 105.071 126.957C128.91 126.957 127.843 127.03 128.376 125.461C128.57 124.897 128.643 118.348 128.643 103.437V82.1984L131.99 82.272C135.094 82.3456 135.385 82.2965 135.991 81.8306C136.476 81.4382 136.646 81.0948 136.646 80.4817C136.646 79.6969 135.845 78.9611 117.682 63.216C100.924 48.6481 98.6449 46.7597 97.9416 46.7597C97.2383 46.7597 95.7591 47.9614 85.792 56.5942L74.4427 66.4288L74.2972 68.5625C74.2245 69.7152 74.0304 71.2848 73.8364 72.0205C73.4969 73.5411 72.0904 76.8029 71.4841 77.4651C71.2659 77.7103 71.1446 77.9556 71.1931 78.0292C71.3144 78.1273 73.4242 76.3124 81.8634 68.9549C84.4582 66.6986 96.4138 56.2754 97.1898 55.6377C97.5051 55.3435 97.7234 55.3189 98.2084 55.5396C98.7661 55.8094 102.185 58.6298 107.302 63.0689C108.563 64.1725 112.468 67.5324 115.984 70.5245L122.338 75.9936V98.2869V120.58H118.361H114.359L114.287 114.13C114.19 105.571 114.311 105.743 108.394 105.743C102.476 105.743 102.598 105.571 102.501 114.13L102.428 120.58H93.4067C88.4353 120.58 83.6337 120.458 82.6879 120.335C76.8193 119.477 72.0176 117.049 68.186 113.002C65.2517 109.912 63.5057 106.748 62.3901 102.652C61.8566 100.666 61.8324 100.273 61.8324 90.4634V80.3345L63.4087 79.795C66.3187 78.814 68.6468 76.6558 70.0776 73.6146C71.1204 71.3829 71.4114 69.7152 71.4114 65.7176C71.4114 62.9462 71.4599 62.4557 71.7751 62.4557C71.9934 62.4557 72.4299 62.186 72.7452 61.8426C73.2544 61.3276 73.3514 61.0333 73.3514 59.6844C73.3514 58.4581 73.2302 57.9676 72.8422 57.4526C72.3814 56.8395 72.2359 56.815 70.1746 56.815H68.0163V50.6592V44.5034L67.313 43.7921C66.3187 42.7866 64.9364 42.7866 63.8452 43.7921L63.0449 44.5034V50.6592V56.815H58.2675H53.4901L53.4174 50.5365L53.3446 44.2581L52.6656 43.6695C51.6713 42.8111 50.3133 42.8602 49.2948 43.7921Z" fill="black"/>
<path d="M95.4437 71.4074C92.4609 75.4295 90.1328 78.7894 90.2298 78.9366C90.3268 79.0837 90.3026 79.1328 90.1571 79.0592C89.8418 78.863 84.6764 85.6565 84.8704 85.9998C84.9674 86.147 84.9189 86.2205 84.7734 86.196C84.4339 86.0979 78.7108 93.6026 78.6865 94.1176C78.6865 95.025 79.22 95.0986 85.4525 95.0741C88.7991 95.0496 91.6364 95.1231 91.7819 95.1967C91.9031 95.2703 92.0244 95.5646 92.0244 95.8344C92.0244 96.2022 88.023 112.83 87.5138 114.473C87.4168 114.866 87.9745 115.675 88.3625 115.675C88.9446 115.675 92.3639 111.383 92.1214 110.966C92.0244 110.819 92.0486 110.77 92.1941 110.844C92.3397 110.942 93.0429 110.28 93.7704 109.348C97.2383 104.982 98.5721 103.143 98.4266 102.873C98.3296 102.726 98.3538 102.677 98.5236 102.775C98.7903 102.922 111.182 87.2261 111.352 86.4903C111.595 85.4357 111.304 85.3867 104.222 85.264L97.4808 85.1414L97.408 84.4792C97.3595 84.1114 98.3781 79.6723 99.6634 74.5711C100.949 69.4944 101.967 65.0799 101.919 64.8101C101.87 64.5158 101.628 64.2706 101.337 64.2215C100.949 64.1725 99.8089 65.5459 95.4437 71.4074ZM89.3811 81.1684C89.1386 81.3891 89.1143 81.3646 89.2598 81.0212C89.3326 80.776 89.4781 80.6533 89.5508 80.7269C89.6236 80.8005 89.5508 80.9967 89.3811 81.1684Z" fill="#E55D0D"/>
</svg>
