<svg width="420" height="260" viewBox="0 0 420 260" fill="none" xmlns="http://www.w3.org/2000/svg">
<rect width="420" height="260" rx="10" fill="#181C14"/>
<g clip-path="url(#clip0_350_197)">
<path d="M404 10H16C12.6863 10 10 12.6863 10 16V244C10 247.314 12.6863 250 16 250H404C407.314 250 410 247.314 410 244V16C410 12.6863 407.314 10 404 10Z" fill="white"/>
<path d="M127.5 79H67C59.8203 79 54 84.8203 54 92C54 99.1797 59.8203 105 67 105H127.5C134.68 105 140.5 99.1797 140.5 92C140.5 84.8203 134.68 79 127.5 79Z" fill="#333333"/>
<path d="M77.018 92.114C77.018 91.162 77.2375 90.308 77.676 89.552C78.124 88.796 78.726 88.208 79.482 87.788C80.2475 87.3585 81.0825 87.144 81.988 87.144C83.024 87.144 83.9435 87.4005 84.746 87.914C85.558 88.418 86.146 89.1365 86.51 90.07H84.592C84.34 89.5565 83.99 89.174 83.542 88.922C83.094 88.67 82.576 88.544 81.988 88.544C81.344 88.544 80.77 88.6885 80.266 88.978C79.762 89.2675 79.3655 89.6825 79.076 90.224C78.796 90.7655 78.656 91.3955 78.656 92.114C78.656 92.8325 78.796 93.4625 79.076 94.004C79.3655 94.5455 79.762 94.9655 80.266 95.264C80.77 95.5535 81.344 95.698 81.988 95.698C82.576 95.698 83.094 95.572 83.542 95.32C83.99 95.068 84.34 94.6855 84.592 94.172H86.51C86.146 95.1055 85.558 95.824 84.746 96.328C83.9435 96.832 83.024 97.084 81.988 97.084C81.0735 97.084 80.238 96.874 79.482 96.454C78.726 96.0245 78.124 95.432 77.676 94.676C77.2375 93.92 77.018 93.066 77.018 92.114ZM89.974 86.64V97H88.378V86.64H89.974ZM92.8815 88.264C92.592 88.264 92.3495 88.166 92.1535 87.97C91.9575 87.774 91.8595 87.5315 91.8595 87.242C91.8595 86.9525 91.9575 86.71 92.1535 86.514C92.3495 86.318 92.592 86.22 92.8815 86.22C93.1615 86.22 93.3995 86.318 93.5955 86.514C93.7915 86.71 93.8895 86.9525 93.8895 87.242C93.8895 87.5315 93.7915 87.774 93.5955 87.97C93.3995 88.166 93.1615 88.264 92.8815 88.264ZM93.6655 89.286V97H92.0695V89.286H93.6655ZM102.831 92.954C102.831 93.2435 102.813 93.5045 102.775 93.738H96.881C96.9275 94.354 97.1565 94.8485 97.567 95.222C97.9775 95.5955 98.4815 95.782 99.079 95.782C99.9375 95.782 100.545 95.4225 100.899 94.704H102.621C102.388 95.4135 101.963 95.9965 101.347 96.454C100.741 96.902 99.9845 97.126 99.079 97.126C98.3415 97.126 97.679 96.9625 97.091 96.636C96.5125 96.3 96.055 95.8335 95.719 95.236C95.3925 94.6295 95.229 93.9295 95.229 93.136C95.229 92.3425 95.3875 91.6475 95.705 91.05C96.0315 90.4435 96.4845 89.9765 97.063 89.65C97.651 89.3235 98.323 89.16 99.079 89.16C99.807 89.16 100.456 89.3185 101.025 89.636C101.595 89.9535 102.038 90.4015 102.355 90.98C102.673 91.5495 102.831 92.2075 102.831 92.954ZM101.165 92.45C101.156 91.862 100.946 91.3905 100.535 91.036C100.125 90.6815 99.6155 90.504 99.009 90.504C98.4585 90.504 97.987 90.6815 97.595 91.036C97.203 91.3815 96.9695 91.8525 96.895 92.45H101.165ZM108.294 89.16C108.9 89.16 109.442 89.286 109.918 89.538C110.403 89.79 110.781 90.1635 111.052 90.658C111.322 91.1525 111.458 91.75 111.458 92.45V97H109.876V92.688C109.876 91.9975 109.703 91.47 109.358 91.106C109.012 90.7325 108.541 90.546 107.944 90.546C107.346 90.546 106.87 90.7325 106.516 91.106C106.17 91.47 105.998 91.9975 105.998 92.688V97H104.402V89.286H105.998V90.168C106.259 89.8505 106.59 89.6035 106.992 89.426C107.402 89.2485 107.836 89.16 108.294 89.16ZM115.356 90.588V94.858C115.356 95.1475 115.421 95.3575 115.552 95.488C115.692 95.6095 115.925 95.67 116.252 95.67H117.232V97H115.972C115.253 97 114.702 96.832 114.32 96.496C113.937 96.16 113.746 95.614 113.746 94.858V90.588H112.836V89.286H113.746V87.368H115.356V89.286H117.232V90.588H115.356Z" fill="#F5F5F5"/>
<path d="M66.644 140L62.004 131.938H59.481V140H56.175V119.845H63.135C64.6815 119.845 65.9865 120.115 67.05 120.657C68.1325 121.198 68.935 121.923 69.457 122.832C69.9985 123.74 70.269 124.755 70.269 125.877C70.269 127.191 69.8825 128.39 69.109 129.473C68.355 130.536 67.1855 131.261 65.6 131.648L70.588 140H66.644ZM59.481 129.299H63.135C64.3725 129.299 65.3005 128.989 65.919 128.371C66.557 127.752 66.876 126.921 66.876 125.877C66.876 124.833 66.5665 124.021 65.948 123.441C65.3295 122.841 64.3915 122.542 63.135 122.542H59.481V129.299ZM88.969 124.021V140H85.663V138.115C85.141 138.772 84.455 139.294 83.604 139.681C82.773 140.048 81.8835 140.232 80.936 140.232C79.6795 140.232 78.5485 139.971 77.543 139.449C76.557 138.927 75.774 138.153 75.194 137.129C74.6335 136.104 74.353 134.867 74.353 133.417V124.021H77.63V132.924C77.63 134.354 77.988 135.456 78.703 136.23C79.4185 136.984 80.395 137.361 81.632 137.361C82.8695 137.361 83.846 136.984 84.561 136.23C85.296 135.456 85.663 134.354 85.663 132.924V124.021H88.969ZM112.674 123.76C113.931 123.76 115.052 124.021 116.038 124.543C117.043 125.065 117.826 125.838 118.387 126.863C118.967 127.887 119.257 129.125 119.257 130.575V140H115.98V131.068C115.98 129.637 115.622 128.545 114.907 127.791C114.192 127.017 113.215 126.631 111.978 126.631C110.741 126.631 109.755 127.017 109.02 127.791C108.305 128.545 107.947 129.637 107.947 131.068V140H104.67V131.068C104.67 129.637 104.312 128.545 103.597 127.791C102.882 127.017 101.905 126.631 100.668 126.631C99.431 126.631 98.445 127.017 97.7105 127.791C96.995 128.545 96.6375 129.637 96.6375 131.068V140H93.3315V124.021H96.6375V125.848C97.1785 125.19 97.865 124.678 98.6965 124.311C99.5275 123.943 100.417 123.76 101.364 123.76C102.64 123.76 103.781 124.03 104.786 124.572C105.791 125.113 106.565 125.896 107.106 126.921C107.589 125.954 108.343 125.19 109.368 124.63C110.393 124.05 111.495 123.76 112.674 123.76ZM122.362 131.938C122.362 130.333 122.69 128.912 123.348 127.675C124.024 126.437 124.933 125.48 126.074 124.804C127.234 124.108 128.51 123.76 129.902 123.76C131.158 123.76 132.251 124.011 133.179 124.514C134.126 124.997 134.88 125.606 135.441 126.341V124.021H138.776V140H135.441V137.622C134.88 138.376 134.116 139.004 133.15 139.507C132.183 140.009 131.081 140.261 129.844 140.261C128.471 140.261 127.214 139.913 126.074 139.217C124.933 138.501 124.024 137.515 123.348 136.259C122.69 134.983 122.362 133.542 122.362 131.938ZM135.441 131.996C135.441 130.894 135.209 129.937 134.745 129.125C134.3 128.313 133.71 127.694 132.976 127.269C132.241 126.843 131.448 126.631 130.598 126.631C129.747 126.631 128.954 126.843 128.22 127.269C127.485 127.675 126.886 128.284 126.422 129.096C125.977 129.888 125.755 130.836 125.755 131.938C125.755 133.04 125.977 134.006 126.422 134.838C126.886 135.669 127.485 136.307 128.22 136.752C128.974 137.177 129.766 137.39 130.598 137.39C131.448 137.39 132.241 137.177 132.976 136.752C133.71 136.326 134.3 135.708 134.745 134.896C135.209 134.064 135.441 133.098 135.441 131.996ZM151.383 123.76C152.601 123.76 153.684 124.021 154.631 124.543C155.598 125.065 156.352 125.838 156.893 126.863C157.454 127.887 157.734 129.125 157.734 130.575V140H154.457V131.068C154.457 129.637 154.099 128.545 153.384 127.791C152.669 127.017 151.692 126.631 150.455 126.631C149.218 126.631 148.232 127.017 147.497 127.791C146.782 128.545 146.424 129.637 146.424 131.068V140H143.118V118.54H146.424V125.877C146.985 125.2 147.69 124.678 148.541 124.311C149.411 123.943 150.358 123.76 151.383 123.76ZM172.79 137.332H179.605V140H169.484V119.845H172.79V137.332ZM184.052 121.904C183.453 121.904 182.95 121.701 182.544 121.295C182.138 120.889 181.935 120.386 181.935 119.787C181.935 119.187 182.138 118.685 182.544 118.279C182.95 117.873 183.453 117.67 184.052 117.67C184.632 117.67 185.125 117.873 185.531 118.279C185.937 118.685 186.14 119.187 186.14 119.787C186.14 120.386 185.937 120.889 185.531 121.295C185.125 121.701 184.632 121.904 184.052 121.904ZM185.676 124.021V140H182.37V124.021H185.676ZM195.817 140.261C194.56 140.261 193.429 140.038 192.424 139.594C191.438 139.13 190.655 138.511 190.075 137.738C189.495 136.945 189.185 136.065 189.147 135.099H192.569C192.627 135.775 192.946 136.346 193.526 136.81C194.125 137.254 194.869 137.477 195.759 137.477C196.687 137.477 197.402 137.303 197.905 136.955C198.427 136.587 198.688 136.123 198.688 135.563C198.688 134.963 198.398 134.519 197.818 134.229C197.257 133.939 196.358 133.62 195.121 133.272C193.922 132.943 192.946 132.624 192.192 132.315C191.438 132.005 190.78 131.532 190.22 130.894C189.678 130.256 189.408 129.415 189.408 128.371C189.408 127.52 189.659 126.747 190.162 126.051C190.664 125.335 191.38 124.775 192.308 124.369C193.255 123.963 194.338 123.76 195.556 123.76C197.373 123.76 198.833 124.224 199.935 125.152C201.056 126.06 201.655 127.307 201.733 128.893H198.427C198.369 128.177 198.079 127.607 197.557 127.182C197.035 126.756 196.329 126.544 195.44 126.544C194.57 126.544 193.903 126.708 193.439 127.037C192.975 127.365 192.743 127.8 192.743 128.342C192.743 128.767 192.897 129.125 193.207 129.415C193.516 129.705 193.893 129.937 194.338 130.111C194.782 130.265 195.44 130.468 196.31 130.72C197.47 131.029 198.417 131.348 199.152 131.677C199.906 131.986 200.553 132.45 201.095 133.069C201.636 133.687 201.916 134.509 201.936 135.534C201.936 136.442 201.684 137.254 201.182 137.97C200.679 138.685 199.964 139.246 199.036 139.652C198.127 140.058 197.054 140.261 195.817 140.261ZM209.365 126.718V135.563C209.365 136.162 209.5 136.597 209.771 136.868C210.061 137.119 210.544 137.245 211.221 137.245H213.251V140H210.641C209.152 140 208.011 139.652 207.219 138.956C206.426 138.26 206.03 137.129 206.03 135.563V126.718H204.145V124.021H206.03V120.048H209.365V124.021H213.251V126.718H209.365ZM219.604 126.341C220.087 125.529 220.725 124.9 221.518 124.456C222.33 123.992 223.287 123.76 224.389 123.76V127.182H223.548C222.252 127.182 221.266 127.51 220.59 128.168C219.932 128.825 219.604 129.966 219.604 131.59V140H216.298V124.021H219.604V126.341ZM229.11 121.904C228.51 121.904 228.008 121.701 227.602 121.295C227.196 120.889 226.993 120.386 226.993 119.787C226.993 119.187 227.196 118.685 227.602 118.279C228.008 117.873 228.51 117.67 229.11 117.67C229.69 117.67 230.183 117.873 230.589 118.279C230.995 118.685 231.198 119.187 231.198 119.787C231.198 120.386 230.995 120.889 230.589 121.295C230.183 121.701 229.69 121.904 229.11 121.904ZM230.734 124.021V140H227.428V124.021H230.734ZM241.396 132.025L248.762 140H244.296L238.38 133.127V140H235.074V118.54H238.38V131.01L244.18 124.021H248.762L241.396 132.025Z" fill="#333333"/>
<path d="M66.912 160.38V171.5H65.088V163.884L61.696 171.5H60.432L57.024 163.884V171.5H55.2V160.38H57.168L61.072 169.1L64.96 160.38H66.912ZM73.1335 171.644C72.3015 171.644 71.5495 171.457 70.8775 171.084C70.2055 170.7 69.6775 170.166 69.2935 169.484C68.9095 168.79 68.7175 167.99 68.7175 167.084C68.7175 166.188 68.9145 165.393 69.3095 164.7C69.704 164.006 70.2425 163.473 70.9255 163.1C71.608 162.726 72.3705 162.54 73.2135 162.54C74.056 162.54 74.8185 162.726 75.5015 163.1C76.184 163.473 76.7225 164.006 77.1175 164.7C77.512 165.393 77.7095 166.188 77.7095 167.084C77.7095 167.98 77.5065 168.774 77.1015 169.468C76.696 170.161 76.1415 170.7 75.4375 171.084C74.744 171.457 73.976 171.644 73.1335 171.644ZM73.1335 170.06C73.6025 170.06 74.04 169.948 74.4455 169.724C74.8615 169.5 75.1975 169.164 75.4535 168.716C75.7095 168.268 75.8375 167.724 75.8375 167.084C75.8375 166.444 75.7145 165.905 75.4695 165.468C75.224 165.02 74.8985 164.684 74.4935 164.46C74.088 164.236 73.6505 164.124 73.1815 164.124C72.712 164.124 72.2745 164.236 71.8695 164.46C71.4745 164.684 71.16 165.02 70.9255 165.468C70.6905 165.905 70.5735 166.444 70.5735 167.084C70.5735 168.033 70.8135 168.769 71.2935 169.292C71.784 169.804 72.3975 170.06 73.1335 170.06ZM81.3365 163.996C81.646 163.569 82.067 163.222 82.6005 162.956C83.1445 162.678 83.747 162.54 84.4085 162.54C85.187 162.54 85.891 162.726 86.5205 163.1C87.15 163.473 87.646 164.006 88.0085 164.7C88.371 165.382 88.5525 166.166 88.5525 167.052C88.5525 167.937 88.371 168.732 88.0085 169.436C87.646 170.129 87.1445 170.673 86.5045 171.068C85.875 171.452 85.1765 171.644 84.4085 171.644C83.726 171.644 83.118 171.51 82.5845 171.244C82.062 170.977 81.646 170.636 81.3365 170.22V171.5H79.5125V159.66H81.3365V163.996ZM86.6965 167.052C86.6965 166.444 86.5685 165.921 86.3125 165.484C86.067 165.036 85.7365 164.7 85.3205 164.476C84.915 164.241 84.478 164.124 84.0085 164.124C83.55 164.124 83.1125 164.241 82.6965 164.476C82.291 164.71 81.9605 165.052 81.7045 165.5C81.459 165.948 81.3365 166.476 81.3365 167.084C81.3365 167.692 81.459 168.225 81.7045 168.684C81.9605 169.132 82.291 169.473 82.6965 169.708C83.1125 169.942 83.55 170.06 84.0085 170.06C84.478 170.06 84.915 169.942 85.3205 169.708C85.7365 169.462 86.067 169.11 86.3125 168.652C86.5685 168.193 86.6965 167.66 86.6965 167.052ZM91.2845 161.516C90.9535 161.516 90.6765 161.404 90.4525 161.18C90.2285 160.956 90.1165 160.678 90.1165 160.348C90.1165 160.017 90.2285 159.74 90.4525 159.516C90.6765 159.292 90.9535 159.18 91.2845 159.18C91.6045 159.18 91.8765 159.292 92.1005 159.516C92.3245 159.74 92.4365 160.017 92.4365 160.348C92.4365 160.678 92.3245 160.956 92.1005 161.18C91.8765 161.404 91.6045 161.516 91.2845 161.516ZM92.1805 162.684V171.5H90.3565V162.684H92.1805ZM96.399 159.66V171.5H94.575V159.66H96.399ZM106.874 166.876C106.874 167.206 106.853 167.505 106.81 167.772H100.074C100.127 168.476 100.389 169.041 100.858 169.468C101.327 169.894 101.903 170.108 102.586 170.108C103.567 170.108 104.261 169.697 104.666 168.876H106.634C106.367 169.686 105.882 170.353 105.178 170.876C104.485 171.388 103.621 171.644 102.586 171.644C101.743 171.644 100.986 171.457 100.314 171.084C99.6525 170.7 99.13 170.166 98.746 169.484C98.3725 168.79 98.186 167.99 98.186 167.084C98.186 166.177 98.367 165.382 98.73 164.7C99.103 164.006 99.6205 163.473 100.282 163.1C100.954 162.726 101.722 162.54 102.586 162.54C103.418 162.54 104.159 162.721 104.81 163.084C105.461 163.446 105.967 163.958 106.33 164.62C106.693 165.27 106.874 166.022 106.874 166.876ZM104.97 166.3C104.959 165.628 104.719 165.089 104.25 164.684C103.781 164.278 103.199 164.076 102.506 164.076C101.877 164.076 101.338 164.278 100.89 164.684C100.442 165.078 100.175 165.617 100.09 166.3H104.97ZM119.529 169.228H114.873L114.073 171.5H112.169L116.153 160.364H118.265L122.249 171.5H120.329L119.529 169.228ZM119.017 167.74L117.209 162.572L115.385 167.74H119.017ZM125.806 163.98C126.115 163.574 126.536 163.233 127.07 162.956C127.603 162.678 128.206 162.54 128.878 162.54C129.646 162.54 130.344 162.732 130.974 163.116C131.614 163.489 132.115 164.017 132.478 164.7C132.84 165.382 133.022 166.166 133.022 167.052C133.022 167.937 132.84 168.732 132.478 169.436C132.115 170.129 131.614 170.673 130.974 171.068C130.344 171.452 129.646 171.644 128.878 171.644C128.206 171.644 127.608 171.51 127.086 171.244C126.563 170.966 126.136 170.625 125.806 170.22V175.692H123.982V162.684H125.806V163.98ZM131.166 167.052C131.166 166.444 131.038 165.921 130.781 165.484C130.536 165.036 130.206 164.7 129.79 164.476C129.384 164.241 128.947 164.124 128.478 164.124C128.019 164.124 127.582 164.241 127.166 164.476C126.76 164.71 126.43 165.052 126.174 165.5C125.928 165.948 125.806 166.476 125.806 167.084C125.806 167.692 125.928 168.225 126.174 168.684C126.43 169.132 126.76 169.473 127.166 169.708C127.582 169.942 128.019 170.06 128.478 170.06C128.947 170.06 129.384 169.942 129.79 169.708C130.206 169.462 130.536 169.11 130.781 168.652C131.038 168.193 131.166 167.66 131.166 167.052ZM136.649 163.98C136.959 163.574 137.38 163.233 137.913 162.956C138.447 162.678 139.049 162.54 139.721 162.54C140.489 162.54 141.188 162.732 141.817 163.116C142.457 163.489 142.959 164.017 143.321 164.7C143.684 165.382 143.865 166.166 143.865 167.052C143.865 167.937 143.684 168.732 143.321 169.436C142.959 170.129 142.457 170.673 141.817 171.068C141.188 171.452 140.489 171.644 139.721 171.644C139.049 171.644 138.452 171.51 137.929 171.244C137.407 170.966 136.98 170.625 136.649 170.22V175.692H134.825V162.684H136.649V163.98ZM142.009 167.052C142.009 166.444 141.881 165.921 141.625 165.484C141.38 165.036 141.049 164.7 140.633 164.476C140.228 164.241 139.791 164.124 139.321 164.124C138.863 164.124 138.425 164.241 138.009 164.476C137.604 164.71 137.273 165.052 137.017 165.5C136.772 165.948 136.649 166.476 136.649 167.084C136.649 167.692 136.772 168.225 137.017 168.684C137.273 169.132 137.604 169.473 138.009 169.708C138.425 169.942 138.863 170.06 139.321 170.06C139.791 170.06 140.228 169.942 140.633 169.708C141.049 169.462 141.38 169.11 141.625 168.652C141.881 168.193 142.009 167.66 142.009 167.052ZM147.493 159.66V171.5H145.669V159.66H147.493ZM150.816 161.516C150.485 161.516 150.208 161.404 149.984 161.18C149.76 160.956 149.648 160.678 149.648 160.348C149.648 160.017 149.76 159.74 149.984 159.516C150.208 159.292 150.485 159.18 150.816 159.18C151.136 159.18 151.408 159.292 151.632 159.516C151.856 159.74 151.968 160.017 151.968 160.348C151.968 160.678 151.856 160.956 151.632 161.18C151.408 161.404 151.136 161.516 150.816 161.516ZM151.712 162.684V171.5H149.888V162.684H151.712ZM153.499 167.084C153.499 166.177 153.68 165.382 154.043 164.7C154.416 164.006 154.928 163.473 155.579 163.1C156.229 162.726 156.976 162.54 157.819 162.54C158.885 162.54 159.765 162.796 160.459 163.308C161.163 163.809 161.637 164.529 161.883 165.468H159.915C159.755 165.03 159.499 164.689 159.147 164.444C158.795 164.198 158.352 164.076 157.819 164.076C157.072 164.076 156.475 164.342 156.027 164.876C155.589 165.398 155.371 166.134 155.371 167.084C155.371 168.033 155.589 168.774 156.027 169.308C156.475 169.841 157.072 170.108 157.819 170.108C158.875 170.108 159.573 169.644 159.915 168.716H161.883C161.627 169.612 161.147 170.326 160.443 170.86C159.739 171.382 158.864 171.644 157.819 171.644C156.976 171.644 156.229 171.457 155.579 171.084C154.928 170.7 154.416 170.166 154.043 169.484C153.68 168.79 153.499 167.99 153.499 167.084ZM163.092 167.052C163.092 166.166 163.274 165.382 163.636 164.7C164.01 164.017 164.511 163.489 165.14 163.116C165.78 162.732 166.484 162.54 167.252 162.54C167.946 162.54 168.548 162.678 169.06 162.956C169.583 163.222 169.999 163.558 170.308 163.964V162.684H172.148V171.5H170.308V170.188C169.999 170.604 169.578 170.95 169.044 171.228C168.511 171.505 167.903 171.644 167.22 171.644C166.463 171.644 165.77 171.452 165.14 171.068C164.511 170.673 164.01 170.129 163.636 169.436C163.274 168.732 163.092 167.937 163.092 167.052ZM170.308 167.084C170.308 166.476 170.18 165.948 169.924 165.5C169.679 165.052 169.354 164.71 168.948 164.476C168.543 164.241 168.106 164.124 167.636 164.124C167.167 164.124 166.73 164.241 166.324 164.476C165.919 164.7 165.588 165.036 165.332 165.484C165.087 165.921 164.964 166.444 164.964 167.052C164.964 167.66 165.087 168.193 165.332 168.652C165.588 169.11 165.919 169.462 166.324 169.708C166.74 169.942 167.178 170.06 167.636 170.06C168.106 170.06 168.543 169.942 168.948 169.708C169.354 169.473 169.679 169.132 169.924 168.684C170.18 168.225 170.308 167.692 170.308 167.084ZM176.672 164.172V169.052C176.672 169.382 176.747 169.622 176.896 169.772C177.056 169.91 177.323 169.98 177.696 169.98H178.816V171.5H177.376C176.555 171.5 175.925 171.308 175.488 170.924C175.051 170.54 174.832 169.916 174.832 169.052V164.172H173.792V162.684H174.832V160.492H176.672V162.684H178.816V164.172H176.672ZM181.425 161.516C181.094 161.516 180.817 161.404 180.593 161.18C180.369 160.956 180.257 160.678 180.257 160.348C180.257 160.017 180.369 159.74 180.593 159.516C180.817 159.292 181.094 159.18 181.425 159.18C181.745 159.18 182.017 159.292 182.241 159.516C182.465 159.74 182.577 160.017 182.577 160.348C182.577 160.678 182.465 160.956 182.241 161.18C182.017 161.404 181.745 161.516 181.425 161.516ZM182.321 162.684V171.5H180.497V162.684H182.321ZM188.54 171.644C187.708 171.644 186.956 171.457 186.284 171.084C185.612 170.7 185.084 170.166 184.7 169.484C184.316 168.79 184.124 167.99 184.124 167.084C184.124 166.188 184.321 165.393 184.716 164.7C185.111 164.006 185.649 163.473 186.332 163.1C187.015 162.726 187.777 162.54 188.62 162.54C189.463 162.54 190.225 162.726 190.908 163.1C191.591 163.473 192.129 164.006 192.524 164.7C192.919 165.393 193.116 166.188 193.116 167.084C193.116 167.98 192.913 168.774 192.508 169.468C192.103 170.161 191.548 170.7 190.844 171.084C190.151 171.457 189.383 171.644 188.54 171.644ZM188.54 170.06C189.009 170.06 189.447 169.948 189.852 169.724C190.268 169.5 190.604 169.164 190.86 168.716C191.116 168.268 191.244 167.724 191.244 167.084C191.244 166.444 191.121 165.905 190.876 165.468C190.631 165.02 190.305 164.684 189.9 164.46C189.495 164.236 189.057 164.124 188.588 164.124C188.119 164.124 187.681 164.236 187.276 164.46C186.881 164.684 186.567 165.02 186.332 165.468C186.097 165.905 185.98 166.444 185.98 167.084C185.98 168.033 186.22 168.769 186.7 169.292C187.191 169.804 187.804 170.06 188.54 170.06ZM199.367 162.54C200.06 162.54 200.679 162.684 201.223 162.972C201.778 163.26 202.21 163.686 202.519 164.252C202.828 164.817 202.983 165.5 202.983 166.3V171.5H201.175V166.572C201.175 165.782 200.978 165.18 200.583 164.764C200.188 164.337 199.65 164.124 198.967 164.124C198.284 164.124 197.74 164.337 197.335 164.764C196.94 165.18 196.743 165.782 196.743 166.572V171.5H194.919V162.684H196.743V163.692C197.042 163.329 197.42 163.046 197.879 162.844C198.348 162.641 198.844 162.54 199.367 162.54ZM213.098 160.38C214.282 160.38 215.317 160.609 216.202 161.068C217.098 161.516 217.786 162.166 218.266 163.02C218.757 163.862 219.002 164.849 219.002 165.98C219.002 167.11 218.757 168.092 218.266 168.924C217.786 169.756 217.098 170.396 216.202 170.844C215.317 171.281 214.282 171.5 213.098 171.5H209.466V160.38H213.098ZM213.098 170.012C214.399 170.012 215.397 169.66 216.09 168.956C216.783 168.252 217.13 167.26 217.13 165.98C217.13 164.689 216.783 163.681 216.09 162.956C215.397 162.23 214.399 161.868 213.098 161.868H211.29V170.012H213.098ZM228.89 166.876C228.89 167.206 228.868 167.505 228.826 167.772H222.09C222.143 168.476 222.404 169.041 222.874 169.468C223.343 169.894 223.919 170.108 224.602 170.108C225.583 170.108 226.276 169.697 226.682 168.876H228.65C228.383 169.686 227.898 170.353 227.194 170.876C226.5 171.388 225.636 171.644 224.602 171.644C223.759 171.644 223.002 171.457 222.33 171.084C221.668 170.7 221.146 170.166 220.762 169.484C220.388 168.79 220.202 167.99 220.202 167.084C220.202 166.177 220.383 165.382 220.746 164.7C221.119 164.006 221.636 163.473 222.298 163.1C222.97 162.726 223.738 162.54 224.602 162.54C225.434 162.54 226.175 162.721 226.826 163.084C227.476 163.446 227.983 163.958 228.346 164.62C228.708 165.27 228.89 166.022 228.89 166.876ZM226.986 166.3C226.975 165.628 226.735 165.089 226.266 164.684C225.796 164.278 225.215 164.076 224.522 164.076C223.892 164.076 223.354 164.278 222.906 164.684C222.458 165.078 222.191 165.617 222.106 166.3H226.986ZM233.885 171.644C233.191 171.644 232.567 171.521 232.013 171.276C231.469 171.02 231.037 170.678 230.717 170.252C230.397 169.814 230.226 169.329 230.205 168.796H232.093C232.125 169.169 232.301 169.484 232.621 169.74C232.951 169.985 233.362 170.108 233.853 170.108C234.365 170.108 234.759 170.012 235.037 169.82C235.325 169.617 235.469 169.361 235.469 169.052C235.469 168.721 235.309 168.476 234.989 168.316C234.679 168.156 234.183 167.98 233.501 167.788C232.839 167.606 232.301 167.43 231.885 167.26C231.469 167.089 231.106 166.828 230.797 166.476C230.498 166.124 230.349 165.66 230.349 165.084C230.349 164.614 230.487 164.188 230.765 163.804C231.042 163.409 231.437 163.1 231.949 162.876C232.471 162.652 233.069 162.54 233.741 162.54C234.743 162.54 235.549 162.796 236.157 163.308C236.775 163.809 237.106 164.497 237.149 165.372H235.325C235.293 164.977 235.133 164.662 234.845 164.428C234.557 164.193 234.167 164.076 233.677 164.076C233.197 164.076 232.829 164.166 232.573 164.348C232.317 164.529 232.189 164.769 232.189 165.068C232.189 165.302 232.274 165.5 232.445 165.66C232.615 165.82 232.823 165.948 233.069 166.044C233.314 166.129 233.677 166.241 234.157 166.38C234.797 166.55 235.319 166.726 235.725 166.908C236.141 167.078 236.498 167.334 236.797 167.676C237.095 168.017 237.25 168.47 237.261 169.036C237.261 169.537 237.122 169.985 236.845 170.38C236.567 170.774 236.173 171.084 235.661 171.308C235.159 171.532 234.567 171.644 233.885 171.644ZM240.16 161.516C239.829 161.516 239.552 161.404 239.328 161.18C239.104 160.956 238.992 160.678 238.992 160.348C238.992 160.017 239.104 159.74 239.328 159.516C239.552 159.292 239.829 159.18 240.16 159.18C240.48 159.18 240.752 159.292 240.976 159.516C241.2 159.74 241.312 160.017 241.312 160.348C241.312 160.678 241.2 160.956 240.976 161.18C240.752 161.404 240.48 161.516 240.16 161.516ZM241.056 162.684V171.5H239.232V162.684H241.056ZM247.002 162.54C247.685 162.54 248.288 162.678 248.81 162.956C249.344 163.222 249.76 163.558 250.058 163.964V162.684H251.898V171.644C251.898 172.454 251.728 173.174 251.386 173.804C251.045 174.444 250.549 174.945 249.898 175.308C249.258 175.67 248.49 175.852 247.594 175.852C246.4 175.852 245.408 175.569 244.618 175.004C243.829 174.449 243.381 173.692 243.274 172.732H245.082C245.221 173.19 245.514 173.558 245.962 173.836C246.421 174.124 246.965 174.268 247.594 174.268C248.33 174.268 248.922 174.044 249.37 173.596C249.829 173.148 250.058 172.497 250.058 171.644V170.172C249.749 170.588 249.328 170.94 248.794 171.228C248.272 171.505 247.674 171.644 247.002 171.644C246.234 171.644 245.53 171.452 244.89 171.068C244.261 170.673 243.76 170.129 243.386 169.436C243.024 168.732 242.842 167.937 242.842 167.052C242.842 166.166 243.024 165.382 243.386 164.7C243.76 164.017 244.261 163.489 244.89 163.116C245.53 162.732 246.234 162.54 247.002 162.54ZM250.058 167.084C250.058 166.476 249.93 165.948 249.674 165.5C249.429 165.052 249.104 164.71 248.698 164.476C248.293 164.241 247.856 164.124 247.386 164.124C246.917 164.124 246.48 164.241 246.074 164.476C245.669 164.7 245.338 165.036 245.082 165.484C244.837 165.921 244.714 166.444 244.714 167.052C244.714 167.66 244.837 168.193 245.082 168.652C245.338 169.11 245.669 169.462 246.074 169.708C246.49 169.942 246.928 170.06 247.386 170.06C247.856 170.06 248.293 169.942 248.698 169.708C249.104 169.473 249.429 169.132 249.674 168.684C249.93 168.225 250.058 167.692 250.058 167.084ZM258.742 162.54C259.435 162.54 260.054 162.684 260.598 162.972C261.153 163.26 261.585 163.686 261.894 164.252C262.203 164.817 262.358 165.5 262.358 166.3V171.5H260.55V166.572C260.55 165.782 260.353 165.18 259.958 164.764C259.563 164.337 259.025 164.124 258.342 164.124C257.659 164.124 257.115 164.337 256.71 164.764C256.315 165.18 256.118 165.782 256.118 166.572V171.5H254.294V162.684H256.118V163.692C256.417 163.329 256.795 163.046 257.254 162.844C257.723 162.641 258.219 162.54 258.742 162.54Z" fill="#909090"/>
<path d="M365.842 90.5H276V175.5H365.842V90.5Z" fill="#F1EAD8"/>
<path d="M300.647 112.396L300.247 112.751L300.211 115.829L300.174 118.907H299.095C297.652 118.907 297.519 119.03 297.519 120.317C297.519 121.298 297.737 121.728 298.234 121.728C298.428 121.728 298.465 121.887 298.538 123.592C298.586 124.622 298.683 125.713 298.756 126.02C299.265 128.165 300.95 129.956 302.987 130.471L303.642 130.642L303.703 135.78C303.776 141.299 303.824 141.703 304.503 143.8C305.934 148.153 309.936 152.041 314.312 153.304C316.58 153.966 316.834 153.978 328.535 153.978C340.455 153.978 339.921 154.015 340.188 153.23C340.285 152.948 340.322 149.674 340.322 142.218V131.599L341.995 131.636C343.547 131.673 343.693 131.648 343.996 131.415C344.238 131.219 344.323 131.047 344.323 130.741C344.323 130.348 343.923 129.98 334.841 122.108C326.462 114.824 325.323 113.88 324.971 113.88C324.619 113.88 323.879 114.48 318.896 118.797L313.221 123.714L313.148 124.781C313.112 125.357 313.015 126.142 312.918 126.51C312.748 127.27 312.045 128.901 311.742 129.232C311.633 129.355 311.572 129.478 311.596 129.514C311.657 129.563 312.712 128.656 316.931 124.977C318.229 123.849 324.207 118.637 324.595 118.319C324.753 118.171 324.862 118.159 325.104 118.27C325.383 118.404 327.093 119.815 329.651 122.034C330.282 122.586 332.234 124.266 333.992 125.762L337.169 128.497V139.643V150.79H335.181H333.18L333.143 147.565C333.095 143.285 333.155 143.371 330.197 143.371C327.238 143.371 327.299 143.285 327.25 147.565L327.214 150.79H322.703C320.217 150.79 317.817 150.729 317.344 150.667C314.409 150.238 312.009 149.024 310.093 147.001C308.626 145.456 307.753 143.874 307.195 141.826C306.929 140.833 306.916 140.636 306.916 135.731V130.667L307.704 130.397C309.159 129.907 310.324 128.828 311.039 127.307C311.56 126.191 311.706 125.357 311.706 123.359C311.706 121.973 311.73 121.728 311.888 121.728C311.997 121.728 312.215 121.593 312.372 121.421C312.627 121.164 312.676 121.016 312.676 120.342C312.676 119.729 312.615 119.484 312.421 119.226C312.19 118.919 312.118 118.907 311.087 118.907H310.008V115.829V112.751L309.656 112.396C309.159 111.893 308.468 111.893 307.922 112.396L307.522 112.751V115.829V118.907H305.134H302.745L302.708 115.768L302.672 112.629L302.333 112.335C301.836 111.905 301.156 111.93 300.647 112.396Z" fill="black"/>
<path d="M323.722 126.204C322.23 128.215 321.066 129.895 321.115 129.969C321.163 130.042 321.151 130.067 321.078 130.03C320.921 129.932 318.338 133.328 318.435 133.5C318.483 133.574 318.46 133.611 318.387 133.598C318.217 133.549 315.356 137.302 315.344 137.559C315.344 138.012 315.61 138.05 318.726 138.037C320.4 138.025 321.818 138.061 321.891 138.098C321.951 138.135 322.012 138.283 322.012 138.417C322.012 138.601 320.011 146.915 319.757 147.736C319.708 147.933 319.987 148.337 320.181 148.337C320.472 148.337 322.182 146.192 322.06 145.983C322.012 145.91 322.024 145.885 322.097 145.922C322.17 145.971 322.522 145.64 322.885 145.174C324.619 142.991 325.286 142.071 325.214 141.936C325.165 141.863 325.177 141.838 325.262 141.887C325.395 141.961 331.591 134.113 331.676 133.745C331.797 133.218 331.652 133.194 328.111 133.132L324.741 133.071L324.704 132.74C324.68 132.556 325.189 130.336 325.832 127.786C326.475 125.247 326.984 123.04 326.96 122.905C326.935 122.758 326.814 122.636 326.668 122.611C326.474 122.586 325.904 123.273 323.722 126.204ZM320.69 131.084C320.569 131.195 320.557 131.182 320.63 131.01C320.667 130.888 320.739 130.827 320.776 130.864C320.812 130.9 320.775 130.999 320.69 131.084Z" fill="#E55D0D"/>
</g>
<defs>
<clipPath id="clip0_350_197">
<rect width="400" height="240" fill="white" transform="translate(10 10)"/>
</clipPath>
</defs>
</svg>
