<svg width="200" height="200" viewBox="0 0 200 200" fill="none" xmlns="http://www.w3.org/2000/svg">
<circle cx="100" cy="100" r="100" fill="#292B34"/>
<g clip-path="url(#clip0_301_1062)">
<path d="M67.7388 61.7984C88.3587 43.7719 119.494 46.9547 137.52 67.5746C155.547 88.1945 153.953 118.802 133.333 136.829C112.713 154.856 80.9939 153.371 62.9673 132.751C44.9408 112.132 47.1189 79.825 67.7388 61.7984Z" fill="#FF8EC8"/>
<path d="M71.0359 67.4475C90.5511 50.3866 119.634 52.96 136.236 71.9497C152.837 90.9393 150.96 119.486 131.445 136.547C111.93 153.607 82.2784 152.624 65.6769 133.635C49.0753 114.645 51.5206 84.5085 71.0359 67.4475Z" fill="#FFADD7"/>
<path d="M97.6629 77.652C94.1629 84.9315 85.3518 87.6797 78.0723 84.1797C70.7928 80.6797 67.6747 72.1957 71.1747 64.9162C74.6747 57.6367 83.4473 54.3602 90.7268 57.8602C98.0063 61.3602 101.163 70.3725 97.6629 77.652Z" fill="#DF9DBF"/>
<path opacity="0.06" d="M75.0177 69.0893C78.5177 61.8098 87.2904 58.5332 94.5699 62.0332C95.3759 62.4207 96.1314 62.8762 96.8328 63.3893C95.4001 61.0633 93.3267 59.1102 90.7271 57.8602C83.4476 54.3602 74.6749 57.6367 71.1749 64.9162C68.088 71.3367 70.1501 78.6934 75.6742 82.7418C73.2357 78.7459 72.8113 73.6785 75.0177 69.0893Z" fill="#040000"/>
<path d="M92.4077 92.6672C92.1792 91.5474 92.937 90.484 94.0565 90.2555C95.1762 90.0269 96.2534 90.7162 96.4819 91.8359C96.7104 92.9557 96.0022 94.0754 94.8825 94.3039C93.763 94.5322 92.6362 93.7869 92.4077 92.6672Z" fill="#DF9DBF"/>
<path opacity="0.5" d="M120.93 68.9514C120.701 67.8316 121.459 66.7682 122.578 66.5396C123.698 66.3111 124.775 67.0004 125.004 68.1201C125.232 69.2398 124.524 70.3596 123.404 70.5881C122.285 70.8166 121.158 70.0711 120.93 68.9514Z" fill="white"/>
<path d="M105.226 127.829C106.924 126.345 109.487 126.607 110.971 128.304C112.455 130.001 112.323 132.521 110.626 134.005C108.928 135.489 106.317 135.367 104.833 133.669C103.349 131.972 103.529 129.313 105.226 127.829Z" fill="#DF9DBF"/>
<path opacity="0.5" d="M61.3923 93.174C61.1638 92.0543 61.9216 90.9908 63.0411 90.7623C64.1609 90.5338 65.238 91.223 65.4665 92.3428C65.695 93.4625 64.9868 94.5822 63.8671 94.8107C62.7476 95.039 61.6208 94.2937 61.3923 93.174Z" fill="white"/>
<path d="M141.593 105.038C140.866 112.196 134.317 117.166 127.158 116.439C120 115.711 114.819 109.548 115.546 102.39C116.274 95.2317 122.631 89.8301 129.789 90.5577C136.947 91.2854 142.321 97.8793 141.593 105.038Z" fill="#DF9DBF"/>
<path d="M83.8371 114.693C86.6947 119.64 84.7877 125.884 79.8408 128.741C74.8939 131.599 68.6939 130.038 65.8363 125.091C62.9787 120.144 64.5617 113.713 69.5086 110.855C74.4554 107.997 80.9793 109.746 83.8371 114.693Z" fill="#DF9DBF"/>
<path opacity="0.06" d="M72.0354 113.363C75.6417 111.28 80.0844 111.647 83.3354 113.914C80.2704 109.571 74.1854 108.153 69.5081 110.855C64.5612 113.712 62.9782 120.144 65.8358 125.091C66.6249 126.457 67.6694 127.563 68.8711 128.391C68.6924 128.137 68.5217 127.875 68.3629 127.6C65.5055 122.653 67.0885 116.221 72.0354 113.363Z" fill="#040000"/>
<path opacity="0.06" d="M118.302 105.114C119.03 97.9559 125.387 92.5543 132.545 93.2819C134.931 93.5244 137.119 94.4194 138.948 95.7694C136.798 92.9307 133.539 90.9391 129.789 90.558C122.631 89.8305 116.274 95.232 115.546 102.39C115.065 107.126 117.171 111.426 120.724 114.005C118.903 111.553 117.964 108.441 118.302 105.114Z" fill="#040000"/>
<path opacity="0.1" d="M99.7688 124.57C79.1906 124.57 61.0143 114.401 50.0176 98.8561C49.4897 118.333 60.8678 136.813 80.084 145.096C105.236 155.937 134.704 145.395 145.545 120.244C148.527 113.326 149.775 106.035 149.508 98.8729C138.51 114.409 120.339 124.57 99.7688 124.57Z" fill="#040000"/>
</g>
<defs>
<clipPath id="clip0_301_1062">
<rect width="100" height="100" fill="white" transform="translate(50 50)"/>
</clipPath>
</defs>
</svg>
