<svg width="50" height="30" viewBox="0 0 50 30" fill="none" xmlns="http://www.w3.org/2000/svg">
<path d="M12.5 10C14.1667 3.33333 18.3333 0 25 0C35 0 36.25 7.5 41.25 8.75C44.5833 9.58333 47.5 8.33333 50 5C48.3333 11.6667 44.1667 15 37.5 15C27.5 15 26.25 7.5 21.25 6.25C17.9167 5.41667 15 6.66667 12.5 10ZM0 25C1.66667 18.3333 5.83333 15 12.5 15C22.5 15 23.75 22.5 28.75 23.75C32.0833 24.5833 35 23.3333 37.5 20C35.8333 26.6667 31.6667 30 25 30C15 30 13.75 22.5 8.75 21.25C5.41667 20.4167 2.5 21.6667 0 25Z" fill="#44A8B3"/>
</svg>
