<svg width="14" height="14" viewBox="0 0 14 14" fill="none" xmlns="http://www.w3.org/2000/svg">
  <defs>
    <linearGradient id="phone-grad" x1="0%" y1="0%" x2="100%" y2="0%">
      <stop offset="0%" stop-color="#22d3ee" /> <stop offset="100%" stop-color="#2563eb" /> </linearGradient>
  </defs>

  <path d="M6.68646 9.16067C7.01188 9.48503 7.45264 9.66717 7.91214 9.66717C8.37164 9.66717 8.8124 9.48503 9.13782 9.16067L9.75066 8.54793C10.0761 8.22357 10.5168 8.04144 10.9763 8.04144C11.4358 8.04144 11.8766 8.22357 12.202 8.54793L13.4277 9.77342C13.6069 9.92344 13.751 10.1109 13.8499 10.3227C13.9488 10.5344 14 10.7652 14 10.9989C14 11.2326 13.9488 11.4634 13.8499 11.6752C13.751 11.8869 13.6069 12.0744 13.4277 12.2244C10.2182 15.4343 6.52362 13.9095 3.30447 10.6908C0.0853124 7.47212 -1.4319 3.78164 1.7785 0.571733C1.92863 0.392706 2.11617 0.248741 2.32792 0.149964C2.53968 0.0511883 2.77051 0 3.00418 0C3.23784 0 3.46867 0.0511883 3.68043 0.149964C3.89218 0.248741 4.07972 0.392706 4.22985 0.571733L5.45553 1.79722C5.78015 2.12248 5.96246 2.56322 5.96246 3.02272C5.96246 3.48221 5.78015 3.92295 5.45553 4.24821L4.84269 4.86095C4.51807 5.18621 4.33576 5.62694 4.33576 6.08644C4.33576 6.54594 4.51807 6.98667 4.84269 7.31193L6.68646 9.16067Z" 
        fill="url(#phone-grad)"/>
</svg>