<svg width="18" height="18" viewBox="0 0 18 18" fill="none" xmlns="http://www.w3.org/2000/svg">
<path d="M17.2145 7.10445L16.412 6.30092C16.2422 6.13199 16.1492 5.90675 16.1492 5.6681V4.53117C16.1492 3.05281 14.9464 1.84974 13.4683 1.84974H12.3315C12.0965 1.84974 11.866 1.7541 11.6997 1.58785L10.8963 0.784319C9.85076 -0.26144 8.15103 -0.26144 7.10545 0.784319L6.30027 1.58785C6.13405 1.7541 5.90349 1.84974 5.66845 1.84974H4.53172C3.05362 1.84974 1.85076 3.05281 1.85076 4.53117V5.6681C1.85076 5.90675 1.75782 6.13199 1.58892 6.30092L0.785523 7.10356C0.278821 7.61035 0 8.28428 0 9.00022C0 9.71616 0.279714 10.3901 0.785523 10.896L1.58803 11.6995C1.75782 11.8685 1.85076 12.0937 1.85076 12.3323V13.4693C1.85076 14.9476 3.05362 16.1507 4.53172 16.1507H5.66845C5.90349 16.1507 6.13405 16.2463 6.30027 16.4126L7.10366 17.217C7.62645 17.739 8.31278 18 8.99911 18C9.68543 18 10.3718 17.739 10.8945 17.2161L11.6979 16.4126C11.866 16.2463 12.0965 16.1507 12.3315 16.1507H13.4683C14.9464 16.1507 16.1492 14.9476 16.1492 13.4693V12.3323C16.1492 12.0937 16.2422 11.8685 16.412 11.6995L17.2145 10.8969C17.7203 10.3901 18 9.71706 18 9.00022C18 8.28339 17.7212 7.61035 17.2145 7.10445ZM13.0706 7.95625L7.70867 11.5315C7.55764 11.6325 7.38427 11.6817 7.21269 11.6817C6.98213 11.6817 6.75335 11.5923 6.58088 11.4198L4.79357 9.63215C4.44415 9.28267 4.44415 8.71778 4.79357 8.3683C5.14298 8.01882 5.70778 8.01882 6.05719 8.3683L7.32618 9.63751L12.0786 6.46895C12.4906 6.19455 13.0447 6.30538 13.3181 6.71654C13.5925 7.12769 13.4817 7.68275 13.0706 7.95625Z" fill="#0a120c"/>
</svg>
    