<svg width="40" height="40" viewBox="0 0 40 40" fill="none" xmlns="http://www.w3.org/2000/svg">
<circle cx="20" cy="20" r="20" fill="#515151"/>
<path d="M20 9.5C14.19 9.5 9.5 13.8969 9.5 19.3438C9.5 21.575 10.27 23.675 11.74 25.3813L10.27 29.5813C10.2 29.8438 10.27 30.1063 10.48 30.3031C10.55 30.4344 10.76 30.5 10.9 30.5C10.97 30.5 11.11 30.5 11.18 30.4344L16.01 28.4C17.27 28.925 18.6 29.1875 20 29.1875C25.81 29.1875 30.5 24.7906 30.5 19.3438C30.5 13.8969 25.81 9.5 20 9.5Z" fill="#40E4F1"/>
<path d="M26.0901 22.9531C25.8101 23.7406 24.7601 24.3969 23.8501 24.5281C23.6401 24.5938 23.4301 24.5938 23.1501 24.5938C22.5901 24.5938 21.7501 24.4625 20.2801 23.8719C18.6001 23.2156 16.9201 21.8375 15.5901 20.0656V20C15.1701 19.4094 14.4001 18.2938 14.4001 17.1125C14.4001 15.6688 15.1701 14.9469 15.4501 14.6188C15.8001 14.2906 16.2901 14.0938 16.8501 14.0938C16.9901 14.0938 17.0601 14.0938 17.2001 14.0938C17.6901 14.0938 18.0401 14.225 18.3901 14.8812L18.6701 15.4062C18.8801 15.9312 19.1601 16.5219 19.2301 16.5875C19.4401 16.9813 19.4401 17.3094 19.2301 17.6375C19.1601 17.8344 19.0201 17.9656 18.8801 18.0969C18.8101 18.2281 18.7401 18.2937 18.6701 18.2937C18.6001 18.3594 18.6001 18.3594 18.5301 18.425C18.7401 18.7531 19.1601 19.3438 19.7201 19.8031C20.5601 20.525 21.1901 20.7219 21.5401 20.8531C21.6801 20.7219 21.8201 20.4594 22.0301 20.2625L22.1001 20.1313C22.4501 19.6719 23.0101 19.5406 23.5701 19.7375C23.8501 19.8688 25.3901 20.525 25.3901 20.525L25.5301 20.5906C25.7401 20.7219 26.0201 20.7875 26.1601 21.05C26.4401 21.6406 26.2301 22.4937 26.0901 22.9531Z" fill="#515151"/>
</svg>
