<svg width="21" height="21" viewBox="0 0 21 21" fill="none" xmlns="http://www.w3.org/2000/svg">
<path d="M10.5 0C4.69 0 0 4.39687 0 9.84375C0 12.075 0.77 14.175 2.24 15.8813L0.77 20.0813C0.7 20.3438 0.77 20.6063 0.98 20.8031C1.05 20.9344 1.26 21 1.4 21C1.47 21 1.61 21 1.68 20.9344L6.51 18.9C7.77 19.425 9.1 19.6875 10.5 19.6875C16.31 19.6875 21 15.2906 21 9.84375C21 4.39687 16.31 0 10.5 0Z" fill="#40E4F1"/>
<path d="M16.5901 13.4531C16.3101 14.2406 15.2601 14.8969 14.3501 15.0281C14.1401 15.0937 13.9301 15.0938 13.6501 15.0938C13.0901 15.0938 12.2501 14.9625 10.7801 14.3719C9.10009 13.7156 7.42009 12.3375 6.09009 10.5656V10.5C5.67009 9.90938 4.90009 8.79375 4.90009 7.6125C4.90009 6.16875 5.67009 5.44688 5.95009 5.11875C6.30009 4.79063 6.79009 4.59375 7.35009 4.59375C7.49009 4.59375 7.56009 4.59375 7.70009 4.59375C8.19009 4.59375 8.54009 4.725 8.89009 5.38125L9.17009 5.90625C9.38009 6.43125 9.66009 7.02188 9.73009 7.0875C9.94009 7.48125 9.94009 7.80937 9.73009 8.1375C9.66009 8.33437 9.52009 8.46563 9.38009 8.59688C9.31009 8.72813 9.24009 8.79375 9.17009 8.79375C9.10009 8.85937 9.10009 8.85938 9.03009 8.925C9.24009 9.25313 9.66009 9.84375 10.2201 10.3031C11.0601 11.025 11.6901 11.2219 12.0401 11.3531C12.1801 11.2219 12.3201 10.9594 12.5301 10.7625L12.6001 10.6313C12.9501 10.1719 13.5101 10.0406 14.0701 10.2375C14.3501 10.3688 15.8901 11.025 15.8901 11.025L16.0301 11.0906C16.2401 11.2219 16.5201 11.2875 16.6601 11.55C16.9401 12.1406 16.7301 12.9938 16.5901 13.4531Z" fill="#1A3636"/>
</svg>
